<svg width="2253" height="290" viewBox="0 0 2253 290" fill="none" xmlns="http://www.w3.org/2000/svg">
<rect width="2253" height="290" fill="black"/>
<path d="M491.951 95.9834V194.913H512.239V130.28H513.06L538.662 194.43H552.477L578.079 130.522H578.901V194.913H599.189V95.9834H573.394L546.149 162.452H544.99L517.746 95.9834H491.951ZM616.035 194.913H636.614V120.716H616.035V194.913ZM626.373 111.151C632.508 111.151 637.531 106.466 637.531 100.717C637.531 95.0173 632.508 90.3316 626.373 90.3316C620.286 90.3316 615.263 95.0173 615.263 100.717C615.263 106.466 620.286 111.151 626.373 111.151ZM673.676 152.018C673.724 142.453 679.424 136.85 687.733 136.85C695.993 136.85 700.969 142.26 700.92 151.341V194.913H721.498V147.67C721.498 130.377 711.354 119.75 695.897 119.75C684.883 119.75 676.912 125.16 673.579 133.807H672.71V120.716H653.098V194.913H673.676V152.018ZM737.331 194.913H799.693V178.489H764.333V177.958L798.437 134.096V120.716H738.587V137.14H773.656V137.671L737.331 182.643V194.913ZM847.117 196.362C865.473 196.362 877.839 187.426 880.738 173.659L861.705 172.403C859.628 178.054 854.315 181.001 847.455 181.001C837.166 181.001 830.645 174.19 830.645 163.128V163.08H881.172V157.428C881.172 132.213 865.908 119.75 846.296 119.75C824.462 119.75 810.308 135.256 810.308 158.153C810.308 181.677 824.268 196.362 847.117 196.362ZM830.645 150.327C831.08 141.874 837.504 135.111 846.634 135.111C855.57 135.111 861.754 141.487 861.802 150.327H830.645Z" fill="white"/>
<path fill-rule="evenodd" clip-rule="evenodd" d="M218.097 72.6814V72.5486L145.548 72.5486L145.548 144.964L145.548 145.097H145.681L218.097 217.513V217.646H290.645V160.834L347.324 217.513V217.646H419.872V145.097H419.74L347.324 72.6814V72.5486L274.775 72.5486V129.36L218.097 72.6814ZM145.548 145.097V217.646H73V145.097H145.548Z" fill="url(#paint0_linear_114_125)"/>
<defs>
<linearGradient id="paint0_linear_114_125" x1="375.947" y1="110.807" x2="72.9999" y2="217.645" gradientUnits="userSpaceOnUse">
<stop stop-color="#32FFA0"/>
<stop offset="1" stop-color="#37F5DC"/>
</linearGradient>
</defs>
</svg>
