<svg width="674" height="869" viewBox="0 0 674 869" fill="none" xmlns="http://www.w3.org/2000/svg">
<line x1="254.5" y1="296" x2="254.5" y2="608" stroke="#C8C8C8" stroke-width="3"/>
<path d="M104.939 868.061C105.525 868.646 106.475 868.646 107.061 868.061L116.607 858.515C117.192 857.929 117.192 856.979 116.607 856.393C116.021 855.808 115.071 855.808 114.485 856.393L106 864.879L97.5148 856.393C96.929 855.808 95.9792 855.808 95.3934 856.393C94.8076 856.979 94.8076 857.929 95.3934 858.515L104.939 868.061ZM104.5 52L104.5 867L107.5 867L107.5 52L104.5 52Z" fill="#C8C8C8"/>
<path d="M115.939 606.939C115.354 607.525 115.354 608.475 115.939 609.061L125.485 618.607C126.071 619.192 127.021 619.192 127.607 618.607C128.192 618.021 128.192 617.071 127.607 616.485L119.121 608L127.607 599.515C128.192 598.929 128.192 597.979 127.607 597.393C127.021 596.808 126.071 596.808 125.485 597.393L115.939 606.939ZM256 606.5H117V609.5H256V606.5Z" fill="#C8C8C8"/>
<rect y="79" width="211" height="60" rx="4" fill="url(#paint0_linear_138_156)"/>
<path d="M75.0795 116.213C78.2756 116.213 80.3068 113.962 80.3068 110.588C80.3068 107.207 78.2756 104.949 75.0795 104.949C71.8835 104.949 69.8523 107.207 69.8523 110.588C69.8523 113.962 71.8835 116.213 75.0795 116.213ZM75.0938 114.153C73.3253 114.153 72.4588 112.577 72.4588 110.581C72.4588 108.585 73.3253 106.987 75.0938 106.987C76.8338 106.987 77.7003 108.585 77.7003 110.581C77.7003 112.577 76.8338 114.153 75.0938 114.153ZM85.06 109.608C85.06 108.031 86.0117 107.122 87.3683 107.122C88.6964 107.122 89.4918 107.996 89.4918 109.452V116H92.0629V109.054C92.07 106.44 90.5785 104.949 88.3271 104.949C86.6935 104.949 85.5714 105.73 85.0742 106.945H84.9464V105.091H82.489V116H85.06V109.608ZM102.695 105.453H105.23C105.181 102.996 103.086 101.256 99.989 101.256C96.935 101.256 94.641 102.974 94.6481 105.545C94.6481 107.634 96.1325 108.834 98.5259 109.452L100.181 109.878C101.75 110.276 102.787 110.766 102.794 111.895C102.787 113.138 101.608 113.969 99.8896 113.969C98.2418 113.969 96.9634 113.23 96.8569 111.703H94.2646C94.3711 114.594 96.5231 116.22 99.9109 116.22C103.398 116.22 105.422 114.48 105.429 111.916C105.422 109.395 103.341 108.244 101.154 107.726L99.7901 107.385C98.5969 107.101 97.3043 106.597 97.3185 105.382C97.3256 104.288 98.3058 103.486 99.9535 103.486C101.523 103.486 102.56 104.217 102.695 105.453ZM113.112 105.091H110.96V102.477H108.389V105.091H106.841V107.08H108.389V113.145C108.375 115.197 109.866 116.206 111.798 116.149C112.53 116.128 113.034 115.986 113.311 115.893L112.878 113.884C112.736 113.919 112.445 113.983 112.125 113.983C111.479 113.983 110.96 113.756 110.96 112.719V107.08H113.112V105.091ZM118.402 116.22C120.113 116.22 121.136 115.418 121.605 114.501H121.69V116H124.162V108.699C124.162 105.815 121.811 104.949 119.73 104.949C117.436 104.949 115.674 105.972 115.106 107.96L117.507 108.301C117.762 107.555 118.487 106.916 119.744 106.916C120.937 106.916 121.591 107.527 121.591 108.599V108.642C121.591 109.381 120.816 109.416 118.892 109.622C116.775 109.849 114.751 110.482 114.751 112.939C114.751 115.084 116.321 116.22 118.402 116.22ZM119.069 114.331C117.997 114.331 117.23 113.841 117.23 112.896C117.23 111.909 118.089 111.497 119.24 111.334C119.914 111.241 121.264 111.071 121.598 110.801V112.087C121.598 113.301 120.618 114.331 119.069 114.331ZM126.747 116H129.318V109.587C129.318 108.202 130.362 107.222 131.775 107.222C132.208 107.222 132.748 107.3 132.968 107.371V105.006C132.734 104.963 132.329 104.935 132.045 104.935C130.795 104.935 129.751 105.645 129.353 106.909H129.24V105.091H126.747V116ZM140.71 105.091H138.558V102.477H135.987V105.091H134.439V107.08H135.987V113.145C135.973 115.197 137.464 116.206 139.396 116.149C140.127 116.128 140.632 115.986 140.909 115.893L140.475 113.884C140.333 113.919 140.042 113.983 139.723 113.983C139.076 113.983 138.558 113.756 138.558 112.719V107.08H140.71V105.091Z" fill="#2D503C"/>
<rect y="197" width="211" height="60" rx="4" fill="url(#paint1_linear_138_156)"/>
<path d="M57.5795 234.213C60.7756 234.213 62.8068 231.962 62.8068 228.588C62.8068 225.207 60.7756 222.949 57.5795 222.949C54.3835 222.949 52.3523 225.207 52.3523 228.588C52.3523 231.962 54.3835 234.213 57.5795 234.213ZM57.5938 232.153C55.8253 232.153 54.9588 230.577 54.9588 228.581C54.9588 226.585 55.8253 224.987 57.5938 224.987C59.3338 224.987 60.2003 226.585 60.2003 228.581C60.2003 230.577 59.3338 232.153 57.5938 232.153ZM67.56 227.608C67.56 226.031 68.5117 225.122 69.8683 225.122C71.1964 225.122 71.9918 225.996 71.9918 227.452V234H74.5629V227.054C74.57 224.44 73.0785 222.949 70.8271 222.949C69.1935 222.949 68.0714 223.73 67.5742 224.945H67.4464V223.091H64.989V234H67.56V227.608ZM77.2901 234H79.9251V228.673H82.6097L85.4648 234H88.4052L85.2589 228.233C86.9705 227.544 87.8725 226.081 87.8725 224.107C87.8725 221.33 86.0827 219.455 82.7447 219.455H77.2901V234ZM79.9251 226.486V221.656H82.3398C84.3072 221.656 85.1879 222.558 85.1879 224.107C85.1879 225.655 84.3072 226.486 82.354 226.486H79.9251ZM94.8576 234.213C97.4002 234.213 99.1474 232.97 99.6019 231.074L97.2013 230.804C96.8533 231.727 96.0011 232.21 94.8931 232.21C93.2312 232.21 92.1303 231.116 92.109 229.249H99.7085V228.46C99.7085 224.632 97.4073 222.949 94.7227 222.949C91.5977 222.949 89.5593 225.243 89.5593 228.609C89.5593 232.033 91.5692 234.213 94.8576 234.213ZM92.1161 227.516C92.1942 226.124 93.2241 224.952 94.7582 224.952C96.2354 224.952 97.2298 226.031 97.244 227.516H92.1161ZM105.023 234.22C106.734 234.22 107.757 233.418 108.226 232.501H108.311V234H110.783V226.699C110.783 223.815 108.432 222.949 106.351 222.949C104.057 222.949 102.295 223.972 101.727 225.96L104.128 226.301C104.384 225.555 105.108 224.916 106.365 224.916C107.558 224.916 108.212 225.527 108.212 226.599V226.642C108.212 227.381 107.438 227.416 105.513 227.622C103.396 227.849 101.372 228.482 101.372 230.939C101.372 233.084 102.942 234.22 105.023 234.22ZM105.69 232.331C104.618 232.331 103.851 231.841 103.851 230.896C103.851 229.909 104.71 229.497 105.861 229.334C106.536 229.241 107.885 229.071 108.219 228.801V230.087C108.219 231.301 107.239 232.331 105.69 232.331ZM118.126 234.213C120.868 234.213 122.615 232.587 122.8 230.271H120.342C120.122 231.443 119.277 232.118 118.148 232.118C116.543 232.118 115.506 230.776 115.506 228.545C115.506 226.344 116.564 225.023 118.148 225.023C119.384 225.023 120.143 225.818 120.342 226.869H122.8C122.622 224.504 120.776 222.949 118.112 222.949C114.916 222.949 112.899 225.257 112.899 228.588C112.899 231.891 114.866 234.213 118.126 234.213ZM130.358 223.091H128.206V220.477H125.635V223.091H124.087V225.08H125.635V231.145C125.621 233.197 127.113 234.206 129.044 234.149C129.776 234.128 130.28 233.986 130.557 233.893L130.124 231.884C129.982 231.919 129.691 231.983 129.371 231.983C128.725 231.983 128.206 231.756 128.206 230.719V225.08H130.358V223.091ZM132.509 234H135.08V223.091H132.509V234ZM133.801 221.543C134.618 221.543 135.286 220.918 135.286 220.151C135.286 219.376 134.618 218.751 133.801 218.751C132.977 218.751 132.31 219.376 132.31 220.151C132.31 220.918 132.977 221.543 133.801 221.543ZM147.468 223.091H144.733L142.219 231.195H142.105L139.598 223.091H136.857L140.742 234H143.583L147.468 223.091ZM153.705 234.213C156.248 234.213 157.995 232.97 158.45 231.074L156.049 230.804C155.701 231.727 154.849 232.21 153.741 232.21C152.079 232.21 150.978 231.116 150.957 229.249H158.556V228.46C158.556 224.632 156.255 222.949 153.57 222.949C150.445 222.949 148.407 225.243 148.407 228.609C148.407 232.033 150.417 234.213 153.705 234.213ZM150.964 227.516C151.042 226.124 152.072 224.952 153.606 224.952C155.083 224.952 156.077 226.031 156.092 227.516H150.964Z" fill="#2D503C"/>
<rect x="141" y="333" width="223" height="60" rx="4" fill="#4B4B4B"/>
<path d="M187.435 370H189.963V368.281H190.112C190.517 369.077 191.362 370.192 193.237 370.192C195.808 370.192 197.733 368.153 197.733 364.56C197.733 360.923 195.751 358.949 193.23 358.949C191.305 358.949 190.503 360.107 190.112 360.895H190.006V355.455H187.435V370ZM189.956 364.545C189.956 362.429 190.865 361.058 192.52 361.058C194.232 361.058 195.112 362.514 195.112 364.545C195.112 366.591 194.217 368.082 192.52 368.082C190.879 368.082 189.956 366.662 189.956 364.545ZM204.748 370.213C207.291 370.213 209.038 368.97 209.493 367.074L207.092 366.804C206.744 367.727 205.892 368.21 204.784 368.21C203.122 368.21 202.021 367.116 202 365.249H209.599V364.46C209.599 360.632 207.298 358.949 204.613 358.949C201.488 358.949 199.45 361.243 199.45 364.609C199.45 368.033 201.46 370.213 204.748 370.213ZM202.007 363.516C202.085 362.124 203.115 360.952 204.649 360.952C206.126 360.952 207.12 362.031 207.135 363.516H202.007ZM217.3 359.091H215.034V358.232C215.034 357.379 215.389 356.903 216.348 356.903C216.753 356.903 217.094 356.996 217.307 357.06L217.825 355.071C217.491 354.957 216.76 354.773 215.872 354.773C213.976 354.773 212.463 355.859 212.463 358.061V359.091H210.851V361.08H212.463V370H215.034V361.08H217.3V359.091ZM223.662 370.213C226.858 370.213 228.889 367.962 228.889 364.588C228.889 361.207 226.858 358.949 223.662 358.949C220.466 358.949 218.434 361.207 218.434 364.588C218.434 367.962 220.466 370.213 223.662 370.213ZM223.676 368.153C221.907 368.153 221.041 366.577 221.041 364.581C221.041 362.585 221.907 360.987 223.676 360.987C225.416 360.987 226.282 362.585 226.282 364.581C226.282 366.577 225.416 368.153 223.676 368.153ZM231.071 370H233.642V363.587C233.642 362.202 234.686 361.222 236.099 361.222C236.533 361.222 237.072 361.3 237.293 361.371V359.006C237.058 358.963 236.653 358.935 236.369 358.935C235.119 358.935 234.075 359.645 233.678 360.909H233.564V359.091H231.071V370ZM243.381 370.213C245.924 370.213 247.671 368.97 248.125 367.074L245.725 366.804C245.377 367.727 244.525 368.21 243.417 368.21C241.755 368.21 240.654 367.116 240.632 365.249H248.232V364.46C248.232 360.632 245.931 358.949 243.246 358.949C240.121 358.949 238.083 361.243 238.083 364.609C238.083 368.033 240.093 370.213 243.381 370.213ZM240.64 363.516C240.718 362.124 241.748 360.952 243.282 360.952C244.759 360.952 245.753 362.031 245.767 363.516H240.64ZM250.521 370H253.156V364.673H255.84L258.695 370H261.636L258.489 364.233C260.201 363.544 261.103 362.081 261.103 360.107C261.103 357.33 259.313 355.455 255.975 355.455H250.521V370ZM253.156 362.486V357.656H255.57C257.538 357.656 258.418 358.558 258.418 360.107C258.418 361.655 257.538 362.486 255.585 362.486H253.156ZM268.088 370.213C270.631 370.213 272.378 368.97 272.832 367.074L270.432 366.804C270.084 367.727 269.232 368.21 268.124 368.21C266.462 368.21 265.361 367.116 265.339 365.249H272.939V364.46C272.939 360.632 270.638 358.949 267.953 358.949C264.828 358.949 262.79 361.243 262.79 364.609C262.79 368.033 264.8 370.213 268.088 370.213ZM265.347 363.516C265.425 362.124 266.455 360.952 267.989 360.952C269.466 360.952 270.46 362.031 270.474 363.516H265.347ZM277.685 363.608C277.685 362.031 278.637 361.122 279.993 361.122C281.321 361.122 282.117 361.996 282.117 363.452V370H284.688V363.054C284.695 360.44 283.203 358.949 280.952 358.949C279.319 358.949 278.196 359.73 277.699 360.945H277.571V359.091H275.114V370H277.685V363.608ZM291.35 370.192C293.225 370.192 294.07 369.077 294.475 368.281H294.631V370H297.159V355.455H294.581V360.895H294.475C294.084 360.107 293.282 358.949 291.357 358.949C288.836 358.949 286.854 360.923 286.854 364.56C286.854 368.153 288.779 370.192 291.35 370.192ZM292.067 368.082C290.37 368.082 289.475 366.591 289.475 364.545C289.475 362.514 290.355 361.058 292.067 361.058C293.722 361.058 294.631 362.429 294.631 364.545C294.631 366.662 293.708 368.082 292.067 368.082ZM304.729 370.213C307.271 370.213 309.018 368.97 309.473 367.074L307.072 366.804C306.724 367.727 305.872 368.21 304.764 368.21C303.102 368.21 302.001 367.116 301.98 365.249H309.58V364.46C309.58 360.632 307.278 358.949 304.594 358.949C301.469 358.949 299.43 361.243 299.43 364.609C299.43 368.033 301.44 370.213 304.729 370.213ZM301.987 363.516C302.065 362.124 303.095 360.952 304.629 360.952C306.107 360.952 307.101 362.031 307.115 363.516H301.987ZM311.755 370H314.326V363.587C314.326 362.202 315.37 361.222 316.783 361.222C317.216 361.222 317.756 361.3 317.976 361.371V359.006C317.742 358.963 317.337 358.935 317.053 358.935C315.803 358.935 314.759 359.645 314.361 360.909H314.248V359.091H311.755V370Z" fill="white"/>
<rect x="141" y="508" width="223" height="60" rx="4" fill="#4B4B4B"/>
<path d="M211.58 545.213C214.776 545.213 216.807 542.962 216.807 539.588C216.807 536.207 214.776 533.949 211.58 533.949C208.384 533.949 206.352 536.207 206.352 539.588C206.352 542.962 208.384 545.213 211.58 545.213ZM211.594 543.153C209.825 543.153 208.959 541.577 208.959 539.581C208.959 537.585 209.825 535.987 211.594 535.987C213.334 535.987 214.2 537.585 214.2 539.581C214.2 541.577 213.334 543.153 211.594 543.153ZM221.56 538.608C221.56 537.031 222.512 536.122 223.868 536.122C225.196 536.122 225.992 536.996 225.992 538.452V545H228.563V538.054C228.57 535.44 227.078 533.949 224.827 533.949C223.194 533.949 222.071 534.73 221.574 535.945H221.446V534.091H218.989V545H221.56V538.608ZM231.29 545H233.925V539.673H236.61L239.465 545H242.405L239.259 539.233C240.971 538.544 241.873 537.081 241.873 535.107C241.873 532.33 240.083 530.455 236.745 530.455H231.29V545ZM233.925 537.486V532.656H236.34C238.307 532.656 239.188 533.558 239.188 535.107C239.188 536.655 238.307 537.486 236.354 537.486H233.925ZM248.858 545.213C251.4 545.213 253.147 543.97 253.602 542.074L251.201 541.804C250.853 542.727 250.001 543.21 248.893 543.21C247.231 543.21 246.13 542.116 246.109 540.249H253.708V539.46C253.708 535.632 251.407 533.949 248.723 533.949C245.598 533.949 243.559 536.243 243.559 539.609C243.559 543.033 245.569 545.213 248.858 545.213ZM246.116 538.516C246.194 537.124 247.224 535.952 248.758 535.952C250.235 535.952 251.23 537.031 251.244 538.516H246.116ZM258.455 538.608C258.455 537.031 259.406 536.122 260.763 536.122C262.091 536.122 262.886 536.996 262.886 538.452V545H265.457V538.054C265.464 535.44 263.973 533.949 261.722 533.949C260.088 533.949 258.966 534.73 258.469 535.945H258.341V534.091H255.884V545H258.455V538.608ZM272.119 545.192C273.994 545.192 274.839 544.077 275.244 543.281H275.401V545H277.929V530.455H275.351V535.895H275.244C274.854 535.107 274.051 533.949 272.126 533.949C269.605 533.949 267.624 535.923 267.624 539.56C267.624 543.153 269.548 545.192 272.119 545.192ZM272.837 543.082C271.139 543.082 270.244 541.591 270.244 539.545C270.244 537.514 271.125 536.058 272.837 536.058C274.491 536.058 275.401 537.429 275.401 539.545C275.401 541.662 274.477 543.082 272.837 543.082ZM285.498 545.213C288.041 545.213 289.788 543.97 290.243 542.074L287.842 541.804C287.494 542.727 286.642 543.21 285.534 543.21C283.872 543.21 282.771 542.116 282.75 540.249H290.349V539.46C290.349 535.632 288.048 533.949 285.363 533.949C282.238 533.949 280.2 536.243 280.2 539.609C280.2 543.033 282.21 545.213 285.498 545.213ZM282.757 538.516C282.835 537.124 283.865 535.952 285.399 535.952C286.876 535.952 287.87 537.031 287.885 538.516H282.757ZM292.524 545H295.095V538.587C295.095 537.202 296.139 536.222 297.553 536.222C297.986 536.222 298.526 536.3 298.746 536.371V534.006C298.511 533.963 298.107 533.935 297.822 533.935C296.572 533.935 295.528 534.645 295.131 535.909H295.017V534.091H292.524V545Z" fill="white"/>
<rect y="644" width="211" height="60" rx="4" fill="url(#paint2_linear_138_156)"/>
<path d="M69.0795 681.213C72.2756 681.213 74.3068 678.962 74.3068 675.588C74.3068 672.207 72.2756 669.949 69.0795 669.949C65.8835 669.949 63.8523 672.207 63.8523 675.588C63.8523 678.962 65.8835 681.213 69.0795 681.213ZM69.0938 679.153C67.3253 679.153 66.4588 677.577 66.4588 675.581C66.4588 673.585 67.3253 671.987 69.0938 671.987C70.8338 671.987 71.7003 673.585 71.7003 675.581C71.7003 677.577 70.8338 679.153 69.0938 679.153ZM79.06 674.608C79.06 673.031 80.0117 672.122 81.3683 672.122C82.6964 672.122 83.4918 672.996 83.4918 674.452V681H86.0629V674.054C86.07 671.44 84.5785 669.949 82.3271 669.949C80.6935 669.949 79.5714 670.73 79.0742 671.945H78.9464V670.091H76.489V681H79.06V674.608ZM88.7901 681H91.4251V675.673H94.1097L96.9648 681H99.9052L96.7589 675.233C98.4705 674.544 99.3725 673.081 99.3725 671.107C99.3725 668.33 97.5827 666.455 94.2447 666.455H88.7901V681ZM91.4251 673.486V668.656H93.8398C95.8072 668.656 96.6879 669.558 96.6879 671.107C96.6879 672.655 95.8072 673.486 93.854 673.486H91.4251ZM106.358 681.213C108.9 681.213 110.647 679.97 111.102 678.074L108.701 677.804C108.353 678.727 107.501 679.21 106.393 679.21C104.731 679.21 103.63 678.116 103.609 676.249H111.208V675.46C111.208 671.632 108.907 669.949 106.223 669.949C103.098 669.949 101.059 672.243 101.059 675.609C101.059 679.033 103.069 681.213 106.358 681.213ZM103.616 674.516C103.694 673.124 104.724 671.952 106.258 671.952C107.735 671.952 108.73 673.031 108.744 674.516H103.616ZM116.523 681.22C118.234 681.22 119.257 680.418 119.726 679.501H119.811V681H122.283V673.699C122.283 670.815 119.932 669.949 117.851 669.949C115.557 669.949 113.795 670.972 113.227 672.96L115.628 673.301C115.884 672.555 116.608 671.916 117.865 671.916C119.058 671.916 119.712 672.527 119.712 673.599V673.642C119.712 674.381 118.938 674.416 117.013 674.622C114.896 674.849 112.872 675.482 112.872 677.939C112.872 680.084 114.442 681.22 116.523 681.22ZM117.19 679.331C116.118 679.331 115.351 678.841 115.351 677.896C115.351 676.909 116.21 676.497 117.361 676.334C118.036 676.241 119.385 676.071 119.719 675.801V677.087C119.719 678.301 118.739 679.331 117.19 679.331ZM128.916 681.192C130.791 681.192 131.636 680.077 132.041 679.281H132.197V681H134.726V666.455H132.148V671.895H132.041C131.651 671.107 130.848 669.949 128.923 669.949C126.402 669.949 124.42 671.923 124.42 675.56C124.42 679.153 126.345 681.192 128.916 681.192ZM129.634 679.082C127.936 679.082 127.041 677.591 127.041 675.545C127.041 673.514 127.922 672.058 129.634 672.058C131.288 672.058 132.197 673.429 132.197 675.545C132.197 677.662 131.274 679.082 129.634 679.082ZM139.064 685.091C141.066 685.091 142.224 684.061 142.842 682.321L147.224 670.105L144.475 670.091L141.954 678.33H141.841L139.326 670.091H136.599L140.555 681.227L140.335 681.817C139.859 683.06 139.106 683.145 137.984 682.818L137.387 684.821C137.735 684.963 138.36 685.091 139.064 685.091Z" fill="#2D503C"/>
<rect y="762" width="211" height="60" rx="4" fill="url(#paint3_linear_138_156)"/>
<path d="M61.0795 799.213C64.2756 799.213 66.3068 796.962 66.3068 793.588C66.3068 790.207 64.2756 787.949 61.0795 787.949C57.8835 787.949 55.8523 790.207 55.8523 793.588C55.8523 796.962 57.8835 799.213 61.0795 799.213ZM61.0938 797.153C59.3253 797.153 58.4588 795.577 58.4588 793.581C58.4588 791.585 59.3253 789.987 61.0938 789.987C62.8338 789.987 63.7003 791.585 63.7003 793.581C63.7003 795.577 62.8338 797.153 61.0938 797.153ZM71.06 792.608C71.06 791.031 72.0117 790.122 73.3683 790.122C74.6964 790.122 75.4918 790.996 75.4918 792.452V799H78.0629V792.054C78.07 789.44 76.5785 787.949 74.3271 787.949C72.6935 787.949 71.5714 788.73 71.0742 789.945H70.9464V788.091H68.489V799H71.06V792.608ZM85.7191 799C90.1509 799 92.7788 796.259 92.7788 791.713C92.7788 787.182 90.1509 784.455 85.8185 784.455H80.7901V799H85.7191ZM83.4251 796.72V786.734H85.6694C88.6239 786.734 90.1651 788.382 90.1651 791.713C90.1651 795.058 88.6239 796.72 85.5913 796.72H83.4251ZM99.9982 799.213C102.541 799.213 104.288 797.97 104.743 796.074L102.342 795.804C101.994 796.727 101.142 797.21 100.034 797.21C98.3718 797.21 97.271 796.116 97.2496 794.249H104.849V793.46C104.849 789.632 102.548 787.949 99.8633 787.949C96.7383 787.949 94.6999 790.243 94.6999 793.609C94.6999 797.033 96.7099 799.213 99.9982 799.213ZM97.2567 792.516C97.3349 791.124 98.3647 789.952 99.8988 789.952C101.376 789.952 102.37 791.031 102.385 792.516H97.2567ZM115.646 790.974C115.291 789.128 113.814 787.949 111.257 787.949C108.629 787.949 106.839 789.241 106.847 791.259C106.839 792.849 107.82 793.901 109.915 794.334L111.776 794.724C112.777 794.945 113.246 795.349 113.246 795.967C113.246 796.713 112.436 797.274 111.214 797.274C110.036 797.274 109.268 796.763 109.048 795.783L106.541 796.024C106.861 798.027 108.544 799.213 111.222 799.213C113.949 799.213 115.874 797.8 115.881 795.733C115.874 794.178 114.872 793.226 112.812 792.778L110.952 792.381C109.844 792.132 109.403 791.749 109.411 791.116C109.403 790.378 110.22 789.866 111.293 789.866C112.479 789.866 113.104 790.513 113.303 791.23L115.646 790.974ZM123.448 788.091H121.296V785.477H118.725V788.091H117.177V790.08H118.725V796.145C118.711 798.197 120.202 799.206 122.134 799.149C122.866 799.128 123.37 798.986 123.647 798.893L123.214 796.884C123.072 796.919 122.781 796.983 122.461 796.983C121.815 796.983 121.296 796.756 121.296 795.719V790.08H123.448V788.091ZM125.598 799H128.169V792.587C128.169 791.202 129.213 790.222 130.627 790.222C131.06 790.222 131.6 790.3 131.82 790.371V788.006C131.586 787.963 131.181 787.935 130.897 787.935C129.647 787.935 128.603 788.645 128.205 789.909H128.091V788.091H125.598V799ZM137.837 799.213C141.033 799.213 143.065 796.962 143.065 793.588C143.065 790.207 141.033 787.949 137.837 787.949C134.641 787.949 132.61 790.207 132.61 793.588C132.61 796.962 134.641 799.213 137.837 799.213ZM137.852 797.153C136.083 797.153 135.217 795.577 135.217 793.581C135.217 791.585 136.083 789.987 137.852 789.987C139.592 789.987 140.458 791.585 140.458 793.581C140.458 795.577 139.592 797.153 137.852 797.153ZM146.474 803.091C148.477 803.091 149.634 802.061 150.252 800.321L154.634 788.105L151.886 788.091L149.364 796.33H149.251L146.737 788.091H144.009L147.965 799.227L147.745 799.817C147.269 801.06 146.516 801.145 145.394 800.818L144.798 802.821C145.146 802.963 145.771 803.091 146.474 803.091Z" fill="#2D503C"/>
<path d="M272.523 44.4545H270.761V59H272.523V44.4545ZM277.503 52.4375C277.503 50.5341 278.682 49.4545 280.287 49.4545C281.843 49.4545 282.787 50.4702 282.787 52.1818V59H284.463V52.0682C284.463 49.2841 282.979 47.9489 280.77 47.9489C279.123 47.9489 278.1 48.6875 277.588 49.7955H277.446V48.0909H275.827V59H277.503V52.4375ZM295.254 50.5341C294.728 48.9858 293.549 47.9489 291.39 47.9489C289.089 47.9489 287.384 49.2557 287.384 51.1023C287.384 52.608 288.279 53.6165 290.282 54.0852L292.1 54.5114C293.201 54.767 293.719 55.2926 293.719 56.0455C293.719 56.983 292.725 57.75 291.163 57.75C289.792 57.75 288.933 57.1605 288.634 55.9886L287.043 56.3864C287.434 58.2401 288.961 59.2273 291.191 59.2273C293.727 59.2273 295.452 57.8423 295.452 55.9602C295.452 54.4403 294.501 53.4815 292.555 53.0057L290.935 52.608C289.643 52.2884 289.06 51.8551 289.06 51.017C289.06 50.0795 290.055 49.3977 291.39 49.3977C292.853 49.3977 293.457 50.2074 293.748 50.9602L295.254 50.5341ZM302.549 59.2273C304.765 59.2273 306.385 58.1193 306.896 56.4716L305.277 56.017C304.85 57.1534 303.863 57.7216 302.549 57.7216C300.582 57.7216 299.225 56.4503 299.147 54.1136H307.066V53.4034C307.066 49.3409 304.652 47.9489 302.379 47.9489C299.424 47.9489 297.464 50.2784 297.464 53.6307C297.464 56.983 299.396 59.2273 302.549 59.2273ZM299.147 52.6648C299.261 50.9673 300.461 49.4545 302.379 49.4545C304.197 49.4545 305.362 50.8182 305.362 52.6648H299.147ZM309.616 59H311.292V52.0966C311.292 50.6193 312.457 49.5398 314.048 49.5398C314.495 49.5398 314.957 49.625 315.071 49.6534V47.9489C314.879 47.9347 314.439 47.9205 314.19 47.9205C312.883 47.9205 311.747 48.6591 311.349 49.7386H311.235V48.0909H309.616V59ZM322.485 48.0909H320.156V45.4773H318.48V48.0909H316.832V49.5114H318.48V56.3295C318.48 58.233 320.014 59.142 321.434 59.142C322.059 59.142 322.457 59.0284 322.684 58.9432L322.343 57.4375C322.201 57.4659 321.974 57.5227 321.605 57.5227C320.866 57.5227 320.156 57.2955 320.156 55.875V49.5114H322.485V48.0909ZM329.463 59.2273C331.679 59.2273 333.299 58.1193 333.81 56.4716L332.191 56.017C331.765 57.1534 330.777 57.7216 329.463 57.7216C327.496 57.7216 326.14 56.4503 326.061 54.1136H333.98V53.4034C333.98 49.3409 331.566 47.9489 329.293 47.9489C326.338 47.9489 324.378 50.2784 324.378 53.6307C324.378 56.983 326.31 59.2273 329.463 59.2273ZM326.061 52.6648C326.175 50.9673 327.375 49.4545 329.293 49.4545C331.111 49.4545 332.276 50.8182 332.276 52.6648H326.061ZM340.65 59.2273C342.752 59.2273 343.462 57.9205 343.831 57.3239H344.03V59H345.65V44.4545H343.973V49.8239H343.831C343.462 49.2557 342.809 47.9489 340.678 47.9489C337.922 47.9489 336.019 50.1364 336.019 53.5739C336.019 57.0398 337.922 59.2273 340.65 59.2273ZM340.877 57.7216C338.775 57.7216 337.695 55.875 337.695 53.5455C337.695 51.2443 338.746 49.4545 340.877 49.4545C342.922 49.4545 344.002 51.1023 344.002 53.5455C344.002 56.017 342.894 57.7216 340.877 57.7216ZM354.577 59H356.253V48.0909H354.577V59ZM355.429 46.2727C356.083 46.2727 356.623 45.7614 356.623 45.1364C356.623 44.5114 356.083 44 355.429 44C354.776 44 354.236 44.5114 354.236 45.1364C354.236 45.7614 354.776 46.2727 355.429 46.2727ZM360.999 52.4375C360.999 50.5341 362.178 49.4545 363.783 49.4545C365.339 49.4545 366.283 50.4702 366.283 52.1818V59H367.96V52.0682C367.96 49.2841 366.475 47.9489 364.266 47.9489C362.619 47.9489 361.596 48.6875 361.085 49.7955H360.942V48.0909H359.323V59H360.999V52.4375ZM375.767 48.0909H373.437V45.4773H371.761V48.0909H370.113V49.5114H371.761V56.3295C371.761 58.233 373.295 59.142 374.716 59.142C375.341 59.142 375.738 59.0284 375.966 58.9432L375.625 57.4375C375.483 57.4659 375.255 57.5227 374.886 57.5227C374.147 57.5227 373.437 57.2955 373.437 55.875V49.5114H375.767V48.0909ZM382.603 59.2273C385.557 59.2273 387.546 56.983 387.546 53.6023C387.546 50.1932 385.557 47.9489 382.603 47.9489C379.648 47.9489 377.659 50.1932 377.659 53.6023C377.659 56.983 379.648 59.2273 382.603 59.2273ZM382.603 57.7216C380.358 57.7216 379.336 55.7898 379.336 53.6023C379.336 51.4148 380.358 49.4545 382.603 49.4545C384.847 49.4545 385.87 51.4148 385.87 53.6023C385.87 55.7898 384.847 57.7216 382.603 57.7216ZM400.474 48.0909H398.144V45.4773H396.468V48.0909H394.82V49.5114H396.468V56.3295C396.468 58.233 398.002 59.142 399.423 59.142C400.048 59.142 400.445 59.0284 400.673 58.9432L400.332 57.4375C400.19 57.4659 399.962 57.5227 399.593 57.5227C398.854 57.5227 398.144 57.2955 398.144 55.875V49.5114H400.474V48.0909ZM404.906 52.4375C404.906 50.5341 406.12 49.4545 407.775 49.4545C409.352 49.4545 410.303 50.4489 410.303 52.1818V59H411.979V52.0682C411.979 49.2628 410.488 47.9489 408.258 47.9489C406.539 47.9489 405.559 48.6662 405.048 49.7955H404.906V44.4545H403.229V59H404.906V52.4375ZM419.62 59.2273C421.836 59.2273 423.455 58.1193 423.966 56.4716L422.347 56.017C421.921 57.1534 420.934 57.7216 419.62 57.7216C417.652 57.7216 416.296 56.4503 416.218 54.1136H424.137V53.4034C424.137 49.3409 421.722 47.9489 419.449 47.9489C416.495 47.9489 414.534 50.2784 414.534 53.6307C414.534 56.983 416.466 59.2273 419.62 59.2273ZM416.218 52.6648C416.331 50.9673 417.532 49.4545 419.449 49.4545C421.267 49.4545 422.432 50.8182 422.432 52.6648H416.218ZM437.027 59C441.459 59 443.959 56.2443 443.959 51.6989C443.959 47.1818 441.459 44.4545 437.226 44.4545H432.539V59H437.027ZM434.3 57.4375V46.017H437.113C440.522 46.017 442.255 48.1761 442.255 51.6989C442.255 55.25 440.522 57.4375 436.914 57.4375H434.3ZM459.186 51.7273C459.186 47.125 456.488 44.2557 452.766 44.2557C449.044 44.2557 446.346 47.125 446.346 51.7273C446.346 56.3295 449.044 59.1989 452.766 59.1989C456.488 59.1989 459.186 56.3295 459.186 51.7273ZM457.482 51.7273C457.482 55.5057 455.408 57.5511 452.766 57.5511C450.124 57.5511 448.05 55.5057 448.05 51.7273C448.05 47.9489 450.124 45.9034 452.766 45.9034C455.408 45.9034 457.482 47.9489 457.482 51.7273ZM462.148 44.4545V59H463.796V47.9489H463.938L468.483 59H470.074L474.62 47.9489H474.762V59H476.409V44.4545H474.307L469.364 56.5284H469.194L464.25 44.4545H462.148Z" fill="black"/>
<path d="M270.761 178H272.523V172.318H275.705C275.832 172.318 275.953 172.318 276.074 172.311L279.142 178H281.188L277.899 171.991C279.753 171.359 280.619 169.847 280.619 167.915C280.619 165.344 279.085 163.455 275.676 163.455H270.761V178ZM272.523 170.727V165.017H275.619C277.977 165.017 278.886 166.168 278.886 167.915C278.886 169.662 277.977 170.727 275.648 170.727H272.523ZM287.784 178.227C290 178.227 291.619 177.119 292.13 175.472L290.511 175.017C290.085 176.153 289.098 176.722 287.784 176.722C285.816 176.722 284.46 175.45 284.382 173.114H292.301V172.403C292.301 168.341 289.886 166.949 287.613 166.949C284.659 166.949 282.699 169.278 282.699 172.631C282.699 175.983 284.63 178.227 287.784 178.227ZM284.382 171.665C284.495 169.967 285.696 168.455 287.613 168.455C289.431 168.455 290.596 169.818 290.596 171.665H284.382ZM298.061 178.256C299.964 178.256 300.958 177.233 301.299 176.523H301.385V178H303.061V170.812C303.061 167.347 300.419 166.949 299.027 166.949C297.379 166.949 295.504 167.517 294.652 169.506L296.243 170.074C296.612 169.278 297.485 168.426 299.083 168.426C300.625 168.426 301.385 169.243 301.385 170.642V170.699C301.385 171.509 300.561 171.438 298.572 171.693C296.548 171.956 294.339 172.403 294.339 174.903C294.339 177.034 295.987 178.256 298.061 178.256ZM298.316 176.75C296.981 176.75 296.015 176.153 296.015 174.989C296.015 173.71 297.18 173.312 298.487 173.142C299.197 173.057 301.1 172.858 301.385 172.517V174.051C301.385 175.415 300.305 176.75 298.316 176.75ZM310.552 178.227C312.967 178.227 314.558 176.75 314.842 174.818H313.165C312.853 176.011 311.859 176.722 310.552 176.722C308.563 176.722 307.285 175.074 307.285 172.545C307.285 170.074 308.592 168.455 310.552 168.455C312.029 168.455 312.91 169.364 313.165 170.358H314.842C314.558 168.312 312.825 166.949 310.523 166.949C307.569 166.949 305.609 169.278 305.609 172.602C305.609 175.869 307.484 178.227 310.552 178.227ZM322.036 167.091H319.707V164.477H318.031V167.091H316.383V168.511H318.031V175.33C318.031 177.233 319.565 178.142 320.985 178.142C321.61 178.142 322.008 178.028 322.235 177.943L321.894 176.438C321.752 176.466 321.525 176.523 321.156 176.523C320.417 176.523 319.707 176.295 319.707 174.875V168.511H322.036V167.091ZM324.558 178H326.234V167.091H324.558V178ZM325.41 165.273C326.063 165.273 326.603 164.761 326.603 164.136C326.603 163.511 326.063 163 325.41 163C324.756 163 324.217 163.511 324.217 164.136C324.217 164.761 324.756 165.273 325.41 165.273ZM338.224 167.091H336.406L333.395 175.784H333.281L330.27 167.091H328.451L332.485 178H334.19L338.224 167.091ZM344.62 178.227C346.836 178.227 348.455 177.119 348.966 175.472L347.347 175.017C346.921 176.153 345.934 176.722 344.62 176.722C342.652 176.722 341.296 175.45 341.218 173.114H349.137V172.403C349.137 168.341 346.722 166.949 344.449 166.949C341.495 166.949 339.534 169.278 339.534 172.631C339.534 175.983 341.466 178.227 344.62 178.227ZM341.218 171.665C341.331 169.967 342.532 168.455 344.449 168.455C346.267 168.455 347.432 169.818 347.432 171.665H341.218ZM357.311 182.091H358.988V176.324H359.13C359.499 176.92 360.209 178.227 362.311 178.227C365.039 178.227 366.942 176.04 366.942 172.574C366.942 169.136 365.039 166.949 362.283 166.949C360.152 166.949 359.499 168.256 359.13 168.824H358.931V167.091H357.311V182.091ZM358.959 172.545C358.959 170.102 360.039 168.455 362.084 168.455C364.215 168.455 365.266 170.244 365.266 172.545C365.266 174.875 364.186 176.722 362.084 176.722C360.067 176.722 358.959 175.017 358.959 172.545ZM369.499 178H371.175V171.097C371.175 169.619 372.34 168.54 373.931 168.54C374.378 168.54 374.84 168.625 374.953 168.653V166.949C374.762 166.935 374.321 166.92 374.073 166.92C372.766 166.92 371.63 167.659 371.232 168.739H371.118V167.091H369.499V178ZM381.04 178.227C383.995 178.227 385.983 175.983 385.983 172.602C385.983 169.193 383.995 166.949 381.04 166.949C378.086 166.949 376.097 169.193 376.097 172.602C376.097 175.983 378.086 178.227 381.04 178.227ZM381.04 176.722C378.796 176.722 377.773 174.79 377.773 172.602C377.773 170.415 378.796 168.455 381.04 168.455C383.284 168.455 384.307 170.415 384.307 172.602C384.307 174.79 383.284 176.722 381.04 176.722ZM388.542 182.091H390.218V176.324H390.36C390.729 176.92 391.44 178.227 393.542 178.227C396.269 178.227 398.173 176.04 398.173 172.574C398.173 169.136 396.269 166.949 393.513 166.949C391.383 166.949 390.729 168.256 390.36 168.824H390.161V167.091H388.542V182.091ZM390.19 172.545C390.19 170.102 391.269 168.455 393.315 168.455C395.445 168.455 396.496 170.244 396.496 172.545C396.496 174.875 395.417 176.722 393.315 176.722C391.298 176.722 390.19 175.017 390.19 172.545ZM405.303 178.227C407.519 178.227 409.138 177.119 409.65 175.472L408.031 175.017C407.604 176.153 406.617 176.722 405.303 176.722C403.336 176.722 401.979 175.45 401.901 173.114H409.82V172.403C409.82 168.341 407.406 166.949 405.133 166.949C402.178 166.949 400.218 169.278 400.218 172.631C400.218 175.983 402.15 178.227 405.303 178.227ZM401.901 171.665C402.015 169.967 403.215 168.455 405.133 168.455C406.951 168.455 408.116 169.818 408.116 171.665H401.901ZM412.37 178H414.046V171.097C414.046 169.619 415.211 168.54 416.802 168.54C417.249 168.54 417.711 168.625 417.825 168.653V166.949C417.633 166.935 417.192 166.92 416.944 166.92C415.637 166.92 414.501 167.659 414.103 168.739H413.989V167.091H412.37V178ZM425.239 167.091H422.91V164.477H421.234V167.091H419.586V168.511H421.234V175.33C421.234 177.233 422.768 178.142 424.188 178.142C424.813 178.142 425.211 178.028 425.438 177.943L425.097 176.438C424.955 176.466 424.728 176.523 424.359 176.523C423.62 176.523 422.91 176.295 422.91 174.875V168.511H425.239V167.091ZM427.761 178H429.437V167.091H427.761V178ZM428.613 165.273C429.266 165.273 429.806 164.761 429.806 164.136C429.806 163.511 429.266 163 428.613 163C427.96 163 427.42 163.511 427.42 164.136C427.42 164.761 427.96 165.273 428.613 165.273ZM437.081 178.227C439.297 178.227 440.916 177.119 441.427 175.472L439.808 175.017C439.382 176.153 438.395 176.722 437.081 176.722C435.113 176.722 433.757 175.45 433.679 173.114H441.598V172.403C441.598 168.341 439.183 166.949 436.91 166.949C433.956 166.949 431.995 169.278 431.995 172.631C431.995 175.983 433.927 178.227 437.081 178.227ZM433.679 171.665C433.792 169.967 434.993 168.455 436.91 168.455C438.728 168.455 439.893 169.818 439.893 171.665H433.679ZM451.875 169.534C451.349 167.986 450.17 166.949 448.011 166.949C445.71 166.949 444.005 168.256 444.005 170.102C444.005 171.608 444.9 172.616 446.903 173.085L448.721 173.511C449.822 173.767 450.341 174.293 450.341 175.045C450.341 175.983 449.346 176.75 447.784 176.75C446.413 176.75 445.554 176.161 445.255 174.989L443.664 175.386C444.055 177.24 445.582 178.227 447.812 178.227C450.348 178.227 452.074 176.842 452.074 174.96C452.074 173.44 451.122 172.482 449.176 172.006L447.556 171.608C446.264 171.288 445.681 170.855 445.681 170.017C445.681 169.08 446.676 168.398 448.011 168.398C449.474 168.398 450.078 169.207 450.369 169.96L451.875 169.534ZM460.222 178H461.898V167.091H460.222V178ZM461.074 165.273C461.727 165.273 462.267 164.761 462.267 164.136C462.267 163.511 461.727 163 461.074 163C460.42 163 459.881 163.511 459.881 164.136C459.881 164.761 460.42 165.273 461.074 165.273ZM466.644 171.438C466.644 169.534 467.823 168.455 469.428 168.455C470.983 168.455 471.928 169.47 471.928 171.182V178H473.604V171.068C473.604 168.284 472.12 166.949 469.911 166.949C468.263 166.949 467.24 167.688 466.729 168.795H466.587V167.091H464.968V178H466.644V171.438ZM476.667 178H478.343V167.091H476.667V178ZM477.519 165.273C478.173 165.273 478.712 164.761 478.712 164.136C478.712 163.511 478.173 163 477.519 163C476.866 163 476.326 163.511 476.326 164.136C476.326 164.761 476.866 165.273 477.519 165.273ZM486.157 167.091H483.828V164.477H482.152V167.091H480.504V168.511H482.152V175.33C482.152 177.233 483.686 178.142 485.106 178.142C485.731 178.142 486.129 178.028 486.356 177.943L486.015 176.438C485.873 176.466 485.646 176.523 485.277 176.523C484.538 176.523 483.828 176.295 483.828 174.875V168.511H486.157V167.091ZM488.679 178H490.355V167.091H488.679V178ZM489.531 165.273C490.184 165.273 490.724 164.761 490.724 164.136C490.724 163.511 490.184 163 489.531 163C488.877 163 488.338 163.511 488.338 164.136C488.338 164.761 488.877 165.273 489.531 165.273ZM496.635 178.256C498.538 178.256 499.533 177.233 499.874 176.523H499.959V178H501.635V170.812C501.635 167.347 498.993 166.949 497.601 166.949C495.953 166.949 494.078 167.517 493.226 169.506L494.817 170.074C495.186 169.278 496.06 168.426 497.658 168.426C499.199 168.426 499.959 169.243 499.959 170.642V170.699C499.959 171.509 499.135 171.438 497.146 171.693C495.122 171.956 492.913 172.403 492.913 174.903C492.913 177.034 494.561 178.256 496.635 178.256ZM496.891 176.75C495.555 176.75 494.589 176.153 494.589 174.989C494.589 173.71 495.754 173.312 497.061 173.142C497.771 173.057 499.675 172.858 499.959 172.517V174.051C499.959 175.415 498.879 176.75 496.891 176.75ZM506.37 163.455H504.694V178H506.37V163.455ZM509.44 178H511.116V167.091H509.44V178ZM510.293 165.273C510.946 165.273 511.486 164.761 511.486 164.136C511.486 163.511 510.946 163 510.293 163C509.639 163 509.099 163.511 509.099 164.136C509.099 164.761 509.639 165.273 510.293 165.273ZM513.874 178H522.425V176.438H516.203V176.324L522.226 168.426V167.091H514.073V168.653H520.067V168.767L513.874 176.722V178ZM529.268 178.227C531.484 178.227 533.103 177.119 533.615 175.472L531.995 175.017C531.569 176.153 530.582 176.722 529.268 176.722C527.301 176.722 525.944 175.45 525.866 173.114H533.785V172.403C533.785 168.341 531.37 166.949 529.098 166.949C526.143 166.949 524.183 169.278 524.183 172.631C524.183 175.983 526.115 178.227 529.268 178.227ZM525.866 171.665C525.98 169.967 527.18 168.455 529.098 168.455C530.916 168.455 532.081 169.818 532.081 171.665H525.866ZM540.454 178.227C542.556 178.227 543.267 176.92 543.636 176.324H543.835V178H545.454V163.455H543.778V168.824H543.636C543.267 168.256 542.613 166.949 540.483 166.949C537.727 166.949 535.824 169.136 535.824 172.574C535.824 176.04 537.727 178.227 540.454 178.227ZM540.681 176.722C538.579 176.722 537.5 174.875 537.5 172.545C537.5 170.244 538.551 168.455 540.681 168.455C542.727 168.455 543.806 170.102 543.806 172.545C543.806 175.017 542.699 176.722 540.681 176.722Z" fill="black"/>
<path d="M417.966 428.017H422.54V441H424.301V428.017H428.875V426.455H417.966V428.017ZM434.358 441.227C436.574 441.227 438.193 440.119 438.705 438.472L437.085 438.017C436.659 439.153 435.672 439.722 434.358 439.722C432.391 439.722 431.034 438.45 430.956 436.114H438.875V435.403C438.875 431.341 436.46 429.949 434.188 429.949C431.233 429.949 429.273 432.278 429.273 435.631C429.273 438.983 431.205 441.227 434.358 441.227ZM430.956 434.665C431.07 432.967 432.27 431.455 434.188 431.455C436.006 431.455 437.17 432.818 437.17 434.665H430.956ZM441.425 441H443.101V434.182C443.101 432.584 444.266 431.455 445.572 431.455C446.844 431.455 447.732 432.286 447.732 433.528V441H449.436V433.898C449.436 432.491 450.317 431.455 451.851 431.455C453.044 431.455 454.067 432.087 454.067 433.699V441H455.743V433.699C455.743 431.135 454.365 429.949 452.419 429.949C450.857 429.949 449.713 430.666 449.152 431.795H449.038C448.499 430.631 447.547 429.949 446.112 429.949C444.692 429.949 443.641 430.631 443.186 431.795H443.044V430.091H441.425V441ZM458.808 445.091H460.484V439.324H460.626C460.995 439.92 461.705 441.227 463.808 441.227C466.535 441.227 468.438 439.04 468.438 435.574C468.438 432.136 466.535 429.949 463.779 429.949C461.648 429.949 460.995 431.256 460.626 431.824H460.427V430.091H458.808V445.091ZM460.455 435.545C460.455 433.102 461.535 431.455 463.58 431.455C465.711 431.455 466.762 433.244 466.762 435.545C466.762 437.875 465.683 439.722 463.58 439.722C461.563 439.722 460.455 438.017 460.455 435.545ZM472.671 426.455H470.995V441H472.671V426.455ZM478.951 441.256C480.855 441.256 481.849 440.233 482.19 439.523H482.275V441H483.951V433.812C483.951 430.347 481.309 429.949 479.917 429.949C478.27 429.949 476.395 430.517 475.542 432.506L477.133 433.074C477.502 432.278 478.376 431.426 479.974 431.426C481.515 431.426 482.275 432.243 482.275 433.642V433.699C482.275 434.509 481.451 434.438 479.463 434.693C477.439 434.956 475.23 435.403 475.23 437.903C475.23 440.034 476.877 441.256 478.951 441.256ZM479.207 439.75C477.872 439.75 476.906 439.153 476.906 437.989C476.906 436.71 478.071 436.312 479.377 436.142C480.088 436.057 481.991 435.858 482.275 435.517V437.051C482.275 438.415 481.196 439.75 479.207 439.75ZM491.755 430.091H489.425V427.477H487.749V430.091H486.102V431.511H487.749V438.33C487.749 440.233 489.283 441.142 490.704 441.142C491.329 441.142 491.727 441.028 491.954 440.943L491.613 439.438C491.471 439.466 491.244 439.523 490.874 439.523C490.136 439.523 489.425 439.295 489.425 437.875V431.511H491.755V430.091ZM498.733 441.227C500.949 441.227 502.568 440.119 503.08 438.472L501.46 438.017C501.034 439.153 500.047 439.722 498.733 439.722C496.766 439.722 495.409 438.45 495.331 436.114H503.25V435.403C503.25 431.341 500.835 429.949 498.562 429.949C495.608 429.949 493.648 432.278 493.648 435.631C493.648 438.983 495.58 441.227 498.733 441.227ZM495.331 434.665C495.445 432.967 496.645 431.455 498.562 431.455C500.381 431.455 501.545 432.818 501.545 434.665H495.331ZM511.425 441H513.101V434.097C513.101 432.619 514.266 431.54 515.857 431.54C516.304 431.54 516.766 431.625 516.879 431.653V429.949C516.688 429.935 516.247 429.92 515.999 429.92C514.692 429.92 513.555 430.659 513.158 431.739H513.044V430.091H511.425V441ZM523.108 441.227C525.324 441.227 526.943 440.119 527.455 438.472L525.835 438.017C525.409 439.153 524.422 439.722 523.108 439.722C521.141 439.722 519.784 438.45 519.706 436.114H527.625V435.403C527.625 431.341 525.21 429.949 522.938 429.949C519.983 429.949 518.023 432.278 518.023 435.631C518.023 438.983 519.955 441.227 523.108 441.227ZM519.706 434.665C519.82 432.967 521.02 431.455 522.938 431.455C524.756 431.455 525.92 432.818 525.92 434.665H519.706ZM531.851 434.438C531.851 432.534 533.03 431.455 534.635 431.455C536.19 431.455 537.135 432.47 537.135 434.182V441H538.811V434.068C538.811 431.284 537.327 429.949 535.118 429.949C533.47 429.949 532.447 430.688 531.936 431.795H531.794V430.091H530.175V441H531.851V434.438ZM545.993 441.227C548.096 441.227 548.806 439.92 549.175 439.324H549.374V441H550.993V426.455H549.317V431.824H549.175C548.806 431.256 548.152 429.949 546.022 429.949C543.266 429.949 541.363 432.136 541.363 435.574C541.363 439.04 543.266 441.227 545.993 441.227ZM546.221 439.722C544.118 439.722 543.039 437.875 543.039 435.545C543.039 433.244 544.09 431.455 546.221 431.455C548.266 431.455 549.346 433.102 549.346 435.545C549.346 438.017 548.238 439.722 546.221 439.722ZM558.87 441.227C561.086 441.227 562.705 440.119 563.216 438.472L561.597 438.017C561.171 439.153 560.184 439.722 558.87 439.722C556.902 439.722 555.546 438.45 555.468 436.114H563.387V435.403C563.387 431.341 560.972 429.949 558.699 429.949C555.745 429.949 553.784 432.278 553.784 435.631C553.784 438.983 555.716 441.227 558.87 441.227ZM555.468 434.665C555.581 432.967 556.782 431.455 558.699 431.455C560.517 431.455 561.682 432.818 561.682 434.665H555.468ZM565.936 441H567.613V434.097C567.613 432.619 568.777 431.54 570.368 431.54C570.816 431.54 571.277 431.625 571.391 431.653V429.949C571.199 429.935 570.759 429.92 570.51 429.92C569.203 429.92 568.067 430.659 567.669 431.739H567.556V430.091H565.936V441ZM577.62 441.227C579.836 441.227 581.455 440.119 581.966 438.472L580.347 438.017C579.921 439.153 578.934 439.722 577.62 439.722C575.652 439.722 574.296 438.45 574.218 436.114H582.137V435.403C582.137 431.341 579.722 429.949 577.449 429.949C574.495 429.949 572.534 432.278 572.534 435.631C572.534 438.983 574.466 441.227 577.62 441.227ZM574.218 434.665C574.331 432.967 575.532 431.455 577.449 431.455C579.267 431.455 580.432 432.818 580.432 434.665H574.218ZM588.806 441.227C590.908 441.227 591.618 439.92 591.988 439.324H592.186V441H593.806V426.455H592.13V431.824H591.988C591.618 431.256 590.965 429.949 588.834 429.949C586.078 429.949 584.175 432.136 584.175 435.574C584.175 439.04 586.078 441.227 588.806 441.227ZM589.033 439.722C586.931 439.722 585.851 437.875 585.851 435.545C585.851 433.244 586.902 431.455 589.033 431.455C591.078 431.455 592.158 433.102 592.158 435.545C592.158 438.017 591.05 439.722 589.033 439.722Z" fill="black"/>
<path d="M418.761 306H420.523V300.318H423.705C423.832 300.318 423.953 300.318 424.074 300.311L427.142 306H429.188L425.899 299.991C427.753 299.359 428.619 297.847 428.619 295.915C428.619 293.344 427.085 291.455 423.676 291.455H418.761V306ZM420.523 298.727V293.017H423.619C425.977 293.017 426.886 294.168 426.886 295.915C426.886 297.662 425.977 298.727 423.648 298.727H420.523ZM435.784 306.227C438 306.227 439.619 305.119 440.13 303.472L438.511 303.017C438.085 304.153 437.098 304.722 435.784 304.722C433.816 304.722 432.46 303.45 432.382 301.114H440.301V300.403C440.301 296.341 437.886 294.949 435.613 294.949C432.659 294.949 430.699 297.278 430.699 300.631C430.699 303.983 432.63 306.227 435.784 306.227ZM432.382 299.665C432.495 297.967 433.696 296.455 435.613 296.455C437.431 296.455 438.596 297.818 438.596 299.665H432.382ZM446.061 306.256C447.964 306.256 448.958 305.233 449.299 304.523H449.385V306H451.061V298.812C451.061 295.347 448.419 294.949 447.027 294.949C445.379 294.949 443.504 295.517 442.652 297.506L444.243 298.074C444.612 297.278 445.485 296.426 447.083 296.426C448.625 296.426 449.385 297.243 449.385 298.642V298.699C449.385 299.509 448.561 299.438 446.572 299.693C444.548 299.956 442.339 300.403 442.339 302.903C442.339 305.034 443.987 306.256 446.061 306.256ZM446.316 304.75C444.981 304.75 444.015 304.153 444.015 302.989C444.015 301.71 445.18 301.312 446.487 301.142C447.197 301.057 449.1 300.858 449.385 300.517V302.051C449.385 303.415 448.305 304.75 446.316 304.75ZM458.552 306.227C460.967 306.227 462.558 304.75 462.842 302.818H461.165C460.853 304.011 459.859 304.722 458.552 304.722C456.563 304.722 455.285 303.074 455.285 300.545C455.285 298.074 456.592 296.455 458.552 296.455C460.029 296.455 460.91 297.364 461.165 298.358H462.842C462.558 296.312 460.825 294.949 458.523 294.949C455.569 294.949 453.609 297.278 453.609 300.602C453.609 303.869 455.484 306.227 458.552 306.227ZM470.036 295.091H467.707V292.477H466.031V295.091H464.383V296.511H466.031V303.33C466.031 305.233 467.565 306.142 468.985 306.142C469.61 306.142 470.008 306.028 470.235 305.943L469.894 304.438C469.752 304.466 469.525 304.523 469.156 304.523C468.417 304.523 467.707 304.295 467.707 302.875V296.511H470.036V295.091ZM472.558 306H474.234V295.091H472.558V306ZM473.41 293.273C474.063 293.273 474.603 292.761 474.603 292.136C474.603 291.511 474.063 291 473.41 291C472.756 291 472.217 291.511 472.217 292.136C472.217 292.761 472.756 293.273 473.41 293.273ZM486.224 295.091H484.406L481.395 303.784H481.281L478.27 295.091H476.451L480.485 306H482.19L486.224 295.091ZM492.62 306.227C494.836 306.227 496.455 305.119 496.966 303.472L495.347 303.017C494.921 304.153 493.934 304.722 492.62 304.722C490.652 304.722 489.296 303.45 489.218 301.114H497.137V300.403C497.137 296.341 494.722 294.949 492.449 294.949C489.495 294.949 487.534 297.278 487.534 300.631C487.534 303.983 489.466 306.227 492.62 306.227ZM489.218 299.665C489.331 297.967 490.532 296.455 492.449 296.455C494.267 296.455 495.432 297.818 495.432 299.665H489.218ZM505.311 310.091H506.988V304.324H507.13C507.499 304.92 508.209 306.227 510.311 306.227C513.039 306.227 514.942 304.04 514.942 300.574C514.942 297.136 513.039 294.949 510.283 294.949C508.152 294.949 507.499 296.256 507.13 296.824H506.931V295.091H505.311V310.091ZM506.959 300.545C506.959 298.102 508.039 296.455 510.084 296.455C512.215 296.455 513.266 298.244 513.266 300.545C513.266 302.875 512.186 304.722 510.084 304.722C508.067 304.722 506.959 303.017 506.959 300.545ZM517.499 306H519.175V299.097C519.175 297.619 520.34 296.54 521.931 296.54C522.378 296.54 522.84 296.625 522.953 296.653V294.949C522.762 294.935 522.321 294.92 522.073 294.92C520.766 294.92 519.63 295.659 519.232 296.739H519.118V295.091H517.499V306ZM529.04 306.227C531.995 306.227 533.983 303.983 533.983 300.602C533.983 297.193 531.995 294.949 529.04 294.949C526.086 294.949 524.097 297.193 524.097 300.602C524.097 303.983 526.086 306.227 529.04 306.227ZM529.04 304.722C526.796 304.722 525.773 302.79 525.773 300.602C525.773 298.415 526.796 296.455 529.04 296.455C531.284 296.455 532.307 298.415 532.307 300.602C532.307 302.79 531.284 304.722 529.04 304.722ZM536.542 310.091H538.218V304.324H538.36C538.729 304.92 539.44 306.227 541.542 306.227C544.269 306.227 546.173 304.04 546.173 300.574C546.173 297.136 544.269 294.949 541.513 294.949C539.383 294.949 538.729 296.256 538.36 296.824H538.161V295.091H536.542V310.091ZM538.19 300.545C538.19 298.102 539.269 296.455 541.315 296.455C543.445 296.455 544.496 298.244 544.496 300.545C544.496 302.875 543.417 304.722 541.315 304.722C539.298 304.722 538.19 303.017 538.19 300.545ZM553.303 306.227C555.519 306.227 557.138 305.119 557.65 303.472L556.031 303.017C555.604 304.153 554.617 304.722 553.303 304.722C551.336 304.722 549.979 303.45 549.901 301.114H557.82V300.403C557.82 296.341 555.406 294.949 553.133 294.949C550.178 294.949 548.218 297.278 548.218 300.631C548.218 303.983 550.15 306.227 553.303 306.227ZM549.901 299.665C550.015 297.967 551.215 296.455 553.133 296.455C554.951 296.455 556.116 297.818 556.116 299.665H549.901ZM560.37 306H562.046V299.097C562.046 297.619 563.211 296.54 564.802 296.54C565.249 296.54 565.711 296.625 565.825 296.653V294.949C565.633 294.935 565.192 294.92 564.944 294.92C563.637 294.92 562.501 295.659 562.103 296.739H561.989V295.091H560.37V306ZM573.239 295.091H570.91V292.477H569.234V295.091H567.586V296.511H569.234V303.33C569.234 305.233 570.768 306.142 572.188 306.142C572.813 306.142 573.211 306.028 573.438 305.943L573.097 304.438C572.955 304.466 572.728 304.523 572.359 304.523C571.62 304.523 570.91 304.295 570.91 302.875V296.511H573.239V295.091ZM576.84 310.091C578.353 310.091 579.418 309.288 580.05 307.591L584.695 295.119L582.863 295.091L579.852 303.784H579.738L576.727 295.091H574.908L578.942 306.057L578.63 306.909C578.019 308.571 577.266 308.727 576.045 308.415L575.619 309.892C575.789 309.977 576.272 310.091 576.84 310.091ZM596.97 306.227C599.385 306.227 600.975 304.75 601.26 302.818H599.583C599.271 304.011 598.277 304.722 596.97 304.722C594.981 304.722 593.703 303.074 593.703 300.545C593.703 298.074 595.01 296.455 596.97 296.455C598.447 296.455 599.328 297.364 599.583 298.358H601.26C600.975 296.312 599.243 294.949 596.941 294.949C593.987 294.949 592.027 297.278 592.027 300.602C592.027 303.869 593.902 306.227 596.97 306.227ZM605.386 299.438C605.386 297.534 606.6 296.455 608.255 296.455C609.832 296.455 610.784 297.449 610.784 299.182V306H612.46V299.068C612.46 296.263 610.968 294.949 608.738 294.949C607.02 294.949 606.039 295.666 605.528 296.795H605.386V291.455H603.71V306H605.386V299.438ZM618.737 306.256C620.64 306.256 621.634 305.233 621.975 304.523H622.06V306H623.737V298.812C623.737 295.347 621.094 294.949 619.702 294.949C618.055 294.949 616.18 295.517 615.327 297.506L616.918 298.074C617.288 297.278 618.161 296.426 619.759 296.426C621.3 296.426 622.06 297.243 622.06 298.642V298.699C622.06 299.509 621.237 299.438 619.248 299.693C617.224 299.956 615.015 300.403 615.015 302.903C615.015 305.034 616.663 306.256 618.737 306.256ZM618.992 304.75C617.657 304.75 616.691 304.153 616.691 302.989C616.691 301.71 617.856 301.312 619.163 301.142C619.873 301.057 621.776 300.858 622.06 300.517V302.051C622.06 303.415 620.981 304.75 618.992 304.75ZM628.472 299.438C628.472 297.534 629.651 296.455 631.256 296.455C632.811 296.455 633.756 297.47 633.756 299.182V306H635.432V299.068C635.432 296.284 633.948 294.949 631.739 294.949C630.091 294.949 629.069 295.688 628.557 296.795H628.415V295.091H626.796V306H628.472V299.438ZM642.898 310.318C645.512 310.318 647.614 309.125 647.614 306.312V295.091H645.995V296.824H645.825C645.455 296.256 644.773 294.949 642.643 294.949C639.887 294.949 637.984 297.136 637.984 300.489C637.984 303.898 639.972 305.83 642.614 305.83C644.745 305.83 645.427 304.58 645.796 303.983H645.938V306.199C645.938 308.017 644.66 308.841 642.898 308.841C640.917 308.841 640.221 307.797 639.773 307.193L638.438 308.131C639.12 309.274 640.462 310.318 642.898 310.318ZM642.842 304.324C640.739 304.324 639.66 302.733 639.66 300.46C639.66 298.244 640.711 296.455 642.842 296.455C644.887 296.455 645.967 298.102 645.967 300.46C645.967 302.875 644.859 304.324 642.842 304.324ZM655.256 306.227C657.472 306.227 659.092 305.119 659.603 303.472L657.984 303.017C657.558 304.153 656.57 304.722 655.256 304.722C653.289 304.722 651.933 303.45 651.854 301.114H659.773V300.403C659.773 296.341 657.359 294.949 655.086 294.949C652.131 294.949 650.171 297.278 650.171 300.631C650.171 303.983 652.103 306.227 655.256 306.227ZM651.854 299.665C651.968 297.967 653.168 296.455 655.086 296.455C656.904 296.455 658.069 297.818 658.069 299.665H651.854ZM666.442 306.227C668.545 306.227 669.255 304.92 669.624 304.324H669.823V306H671.442V291.455H669.766V296.824H669.624C669.255 296.256 668.602 294.949 666.471 294.949C663.715 294.949 661.812 297.136 661.812 300.574C661.812 304.04 663.715 306.227 666.442 306.227ZM666.67 304.722C664.567 304.722 663.488 302.875 663.488 300.545C663.488 298.244 664.539 296.455 666.67 296.455C668.715 296.455 669.795 298.102 669.795 300.545C669.795 303.017 668.687 304.722 666.67 304.722Z" fill="black"/>
<path d="M418.104 479H426.996V477.438H419.866V472.494H426.428V470.932H419.866V466.017H426.883V464.455H418.104V479ZM438.75 468.091H436.932L433.921 476.784H433.807L430.796 468.091H428.978L433.012 479H434.716L438.75 468.091ZM445.146 479.227C447.362 479.227 448.981 478.119 449.493 476.472L447.873 476.017C447.447 477.153 446.46 477.722 445.146 477.722C443.179 477.722 441.822 476.45 441.744 474.114H449.663V473.403C449.663 469.341 447.248 467.949 444.976 467.949C442.021 467.949 440.061 470.278 440.061 473.631C440.061 476.983 441.993 479.227 445.146 479.227ZM441.744 472.665C441.858 470.967 443.058 469.455 444.976 469.455C446.794 469.455 447.959 470.818 447.959 472.665H441.744ZM453.889 472.438C453.889 470.534 455.068 469.455 456.673 469.455C458.228 469.455 459.173 470.47 459.173 472.182V479H460.849V472.068C460.849 469.284 459.365 467.949 457.156 467.949C455.508 467.949 454.486 468.688 453.974 469.795H453.832V468.091H452.213V479H453.889V472.438ZM468.656 468.091H466.327V465.477H464.651V468.091H463.003V469.511H464.651V476.33C464.651 478.233 466.185 479.142 467.605 479.142C468.23 479.142 468.628 479.028 468.855 478.943L468.514 477.438C468.372 477.466 468.145 477.523 467.776 477.523C467.037 477.523 466.327 477.295 466.327 475.875V469.511H468.656V468.091ZM477.03 479H485.553V477.438H478.791V464.455H477.03V479ZM488.053 479H489.729V468.091H488.053V479ZM488.905 466.273C489.558 466.273 490.098 465.761 490.098 465.136C490.098 464.511 489.558 464 488.905 464C488.252 464 487.712 464.511 487.712 465.136C487.712 465.761 488.252 466.273 488.905 466.273ZM500.526 470.534C500 468.986 498.821 467.949 496.662 467.949C494.361 467.949 492.657 469.256 492.657 471.102C492.657 472.608 493.552 473.616 495.554 474.085L497.373 474.511C498.473 474.767 498.992 475.293 498.992 476.045C498.992 476.983 497.998 477.75 496.435 477.75C495.064 477.75 494.205 477.161 493.907 475.989L492.316 476.386C492.706 478.24 494.233 479.227 496.464 479.227C498.999 479.227 500.725 477.842 500.725 475.96C500.725 474.44 499.773 473.482 497.827 473.006L496.208 472.608C494.915 472.288 494.333 471.855 494.333 471.017C494.333 470.08 495.327 469.398 496.662 469.398C498.125 469.398 498.729 470.207 499.02 470.96L500.526 470.534ZM507.992 468.091H505.663V465.477H503.987V468.091H502.339V469.511H503.987V476.33C503.987 478.233 505.521 479.142 506.941 479.142C507.566 479.142 507.964 479.028 508.191 478.943L507.85 477.438C507.708 477.466 507.481 477.523 507.112 477.523C506.373 477.523 505.663 477.295 505.663 475.875V469.511H507.992V468.091ZM514.97 479.227C517.186 479.227 518.805 478.119 519.317 476.472L517.698 476.017C517.271 477.153 516.284 477.722 514.97 477.722C513.003 477.722 511.646 476.45 511.568 474.114H519.487V473.403C519.487 469.341 517.073 467.949 514.8 467.949C511.845 467.949 509.885 470.278 509.885 473.631C509.885 476.983 511.817 479.227 514.97 479.227ZM511.568 472.665C511.682 470.967 512.882 469.455 514.8 469.455C516.618 469.455 517.783 470.818 517.783 472.665H511.568ZM523.713 472.438C523.713 470.534 524.892 469.455 526.497 469.455C528.053 469.455 528.997 470.47 528.997 472.182V479H530.673V472.068C530.673 469.284 529.189 467.949 526.98 467.949C525.332 467.949 524.31 468.688 523.798 469.795H523.656V468.091H522.037V479H523.713V472.438ZM538.31 479.227C540.526 479.227 542.145 478.119 542.657 476.472L541.037 476.017C540.611 477.153 539.624 477.722 538.31 477.722C536.343 477.722 534.986 476.45 534.908 474.114H542.827V473.403C542.827 469.341 540.412 467.949 538.14 467.949C535.185 467.949 533.225 470.278 533.225 473.631C533.225 476.983 535.157 479.227 538.31 479.227ZM534.908 472.665C535.022 470.967 536.222 469.455 538.14 469.455C539.958 469.455 541.123 470.818 541.123 472.665H534.908ZM545.377 479H547.053V472.097C547.053 470.619 548.218 469.54 549.809 469.54C550.256 469.54 550.718 469.625 550.831 469.653V467.949C550.64 467.935 550.199 467.92 549.951 467.92C548.644 467.92 547.508 468.659 547.11 469.739H546.996V468.091H545.377V479ZM560.546 470.534C560.02 468.986 558.841 467.949 556.682 467.949C554.381 467.949 552.676 469.256 552.676 471.102C552.676 472.608 553.571 473.616 555.574 474.085L557.392 474.511C558.493 474.767 559.011 475.293 559.011 476.045C559.011 476.983 558.017 477.75 556.455 477.75C555.084 477.75 554.225 477.161 553.926 475.989L552.335 476.386C552.726 478.24 554.253 479.227 556.483 479.227C559.019 479.227 560.744 477.842 560.744 475.96C560.744 474.44 559.793 473.482 557.847 473.006L556.227 472.608C554.935 472.288 554.352 471.855 554.352 471.017C554.352 470.08 555.347 469.398 556.682 469.398C558.145 469.398 558.749 470.207 559.04 470.96L560.546 470.534ZM572.103 479.256C574.006 479.256 575 478.233 575.341 477.523H575.427V479H577.103V471.812C577.103 468.347 574.461 467.949 573.069 467.949C571.421 467.949 569.546 468.517 568.694 470.506L570.285 471.074C570.654 470.278 571.527 469.426 573.125 469.426C574.667 469.426 575.427 470.243 575.427 471.642V471.699C575.427 472.509 574.603 472.438 572.614 472.693C570.59 472.956 568.381 473.403 568.381 475.903C568.381 478.034 570.029 479.256 572.103 479.256ZM572.358 477.75C571.023 477.75 570.057 477.153 570.057 475.989C570.057 474.71 571.222 474.312 572.529 474.142C573.239 474.057 575.142 473.858 575.427 473.517V475.051C575.427 476.415 574.347 477.75 572.358 477.75ZM584.281 479.227C586.384 479.227 587.094 477.92 587.463 477.324H587.662V479H589.281V464.455H587.605V469.824H587.463C587.094 469.256 586.44 467.949 584.31 467.949C581.554 467.949 579.651 470.136 579.651 473.574C579.651 477.04 581.554 479.227 584.281 479.227ZM584.509 477.722C582.406 477.722 581.327 475.875 581.327 473.545C581.327 471.244 582.378 469.455 584.509 469.455C586.554 469.455 587.634 471.102 587.634 473.545C587.634 476.017 586.526 477.722 584.509 477.722ZM596.703 479.227C598.805 479.227 599.516 477.92 599.885 477.324H600.084V479H601.703V464.455H600.027V469.824H599.885C599.516 469.256 598.862 467.949 596.732 467.949C593.976 467.949 592.073 470.136 592.073 473.574C592.073 477.04 593.976 479.227 596.703 479.227ZM596.93 477.722C594.828 477.722 593.749 475.875 593.749 473.545C593.749 471.244 594.8 469.455 596.93 469.455C598.976 469.455 600.055 471.102 600.055 473.545C600.055 476.017 598.948 477.722 596.93 477.722ZM609.58 479.227C611.796 479.227 613.415 478.119 613.926 476.472L612.307 476.017C611.881 477.153 610.894 477.722 609.58 477.722C607.612 477.722 606.256 476.45 606.178 474.114H614.097V473.403C614.097 469.341 611.682 467.949 609.409 467.949C606.455 467.949 604.494 470.278 604.494 473.631C604.494 476.983 606.426 479.227 609.58 479.227ZM606.178 472.665C606.291 470.967 607.492 469.455 609.409 469.455C611.227 469.455 612.392 470.818 612.392 472.665H606.178ZM620.766 479.227C622.868 479.227 623.578 477.92 623.948 477.324H624.146V479H625.766V464.455H624.09V469.824H623.948C623.578 469.256 622.925 467.949 620.794 467.949C618.038 467.949 616.135 470.136 616.135 473.574C616.135 477.04 618.038 479.227 620.766 479.227ZM620.993 477.722C618.891 477.722 617.811 475.875 617.811 473.545C617.811 471.244 618.862 469.455 620.993 469.455C623.038 469.455 624.118 471.102 624.118 473.545C624.118 476.017 623.01 477.722 620.993 477.722Z" fill="black"/>
<path d="M270.761 743H279.653V741.438H272.523V736.494H279.085V734.932H272.523V730.017H279.54V728.455H270.761V743ZM284.163 728.455H282.487V743H284.163V728.455ZM291.807 743.227C294.023 743.227 295.642 742.119 296.154 740.472L294.534 740.017C294.108 741.153 293.121 741.722 291.807 741.722C289.84 741.722 288.483 740.45 288.405 738.114H296.324V737.403C296.324 733.341 293.909 731.949 291.637 731.949C288.682 731.949 286.722 734.278 286.722 737.631C286.722 740.983 288.654 743.227 291.807 743.227ZM288.405 736.665C288.519 734.967 289.719 733.455 291.637 733.455C293.455 733.455 294.62 734.818 294.62 736.665H288.405ZM298.874 743H300.55V736.182C300.55 734.584 301.715 733.455 303.022 733.455C304.293 733.455 305.181 734.286 305.181 735.528V743H306.885V735.898C306.885 734.491 307.766 733.455 309.3 733.455C310.493 733.455 311.516 734.087 311.516 735.699V743H313.192V735.699C313.192 733.135 311.814 731.949 309.868 731.949C308.306 731.949 307.162 732.666 306.601 733.795H306.488C305.948 732.631 304.996 731.949 303.561 731.949C302.141 731.949 301.09 732.631 300.635 733.795H300.493V732.091H298.874V743ZM320.831 743.227C323.047 743.227 324.666 742.119 325.177 740.472L323.558 740.017C323.132 741.153 322.145 741.722 320.831 741.722C318.863 741.722 317.507 740.45 317.429 738.114H325.348V737.403C325.348 733.341 322.933 731.949 320.66 731.949C317.706 731.949 315.745 734.278 315.745 737.631C315.745 740.983 317.677 743.227 320.831 743.227ZM317.429 736.665C317.542 734.967 318.743 733.455 320.66 733.455C322.478 733.455 323.643 734.818 323.643 736.665H317.429ZM329.574 736.438C329.574 734.534 330.752 733.455 332.358 733.455C333.913 733.455 334.858 734.47 334.858 736.182V743H336.534V736.068C336.534 733.284 335.049 731.949 332.841 731.949C331.193 731.949 330.17 732.688 329.659 733.795H329.517V732.091H327.897V743H329.574V736.438ZM344.341 732.091H342.011V729.477H340.335V732.091H338.688V733.511H340.335V740.33C340.335 742.233 341.869 743.142 343.29 743.142C343.915 743.142 344.312 743.028 344.54 742.943L344.199 741.438C344.057 741.466 343.83 741.523 343.46 741.523C342.722 741.523 342.011 741.295 342.011 739.875V733.511H344.341V732.091ZM352.487 743H354.163V736.097C354.163 734.619 355.328 733.54 356.919 733.54C357.366 733.54 357.828 733.625 357.942 733.653V731.949C357.75 731.935 357.31 731.92 357.061 731.92C355.754 731.92 354.618 732.659 354.22 733.739H354.107V732.091H352.487V743ZM364.17 743.227C366.386 743.227 368.006 742.119 368.517 740.472L366.898 740.017C366.472 741.153 365.484 741.722 364.17 741.722C362.203 741.722 360.847 740.45 360.768 738.114H368.688V737.403C368.688 733.341 366.273 731.949 364 731.949C361.045 731.949 359.085 734.278 359.085 737.631C359.085 740.983 361.017 743.227 364.17 743.227ZM360.768 736.665C360.882 734.967 362.082 733.455 364 733.455C365.818 733.455 366.983 734.818 366.983 736.665H360.768ZM371.237 743H372.913V736.182C372.913 734.584 374.078 733.455 375.385 733.455C376.656 733.455 377.544 734.286 377.544 735.528V743H379.249V735.898C379.249 734.491 380.129 733.455 381.663 733.455C382.857 733.455 383.879 734.087 383.879 735.699V743H385.555V735.699C385.555 733.135 384.178 731.949 382.232 731.949C380.669 731.949 379.526 732.666 378.964 733.795H378.851C378.311 732.631 377.359 731.949 375.925 731.949C374.504 731.949 373.453 732.631 372.999 733.795H372.857V732.091H371.237V743ZM393.052 743.227C396.006 743.227 397.995 740.983 397.995 737.602C397.995 734.193 396.006 731.949 393.052 731.949C390.097 731.949 388.109 734.193 388.109 737.602C388.109 740.983 390.097 743.227 393.052 743.227ZM393.052 741.722C390.808 741.722 389.785 739.79 389.785 737.602C389.785 735.415 390.808 733.455 393.052 733.455C395.296 733.455 396.319 735.415 396.319 737.602C396.319 739.79 395.296 741.722 393.052 741.722ZM409.083 732.091H407.265L404.254 740.784H404.14L401.129 732.091H399.311L403.345 743H405.049L409.083 732.091ZM415.479 743.227C417.695 743.227 419.314 742.119 419.826 740.472L418.206 740.017C417.78 741.153 416.793 741.722 415.479 741.722C413.512 741.722 412.155 740.45 412.077 738.114H419.996V737.403C419.996 733.341 417.581 731.949 415.309 731.949C412.354 731.949 410.394 734.278 410.394 737.631C410.394 740.983 412.326 743.227 415.479 743.227ZM412.077 736.665C412.191 734.967 413.391 733.455 415.309 733.455C417.127 733.455 418.292 734.818 418.292 736.665H412.077ZM426.665 743.227C428.767 743.227 429.478 741.92 429.847 741.324H430.046V743H431.665V728.455H429.989V733.824H429.847C429.478 733.256 428.824 731.949 426.694 731.949C423.938 731.949 422.034 734.136 422.034 737.574C422.034 741.04 423.938 743.227 426.665 743.227ZM426.892 741.722C424.79 741.722 423.711 739.875 423.711 737.545C423.711 735.244 424.762 733.455 426.892 733.455C428.938 733.455 430.017 735.102 430.017 737.545C430.017 740.017 428.909 741.722 426.892 741.722ZM445.451 732.091H443.007V730.983C443.007 729.903 443.462 729.335 444.57 729.335C445.053 729.335 445.337 729.449 445.507 729.506L445.99 728.057C445.735 727.943 445.223 727.773 444.4 727.773C442.837 727.773 441.331 728.71 441.331 730.585V732.091H439.57V733.511H441.331V743H443.007V733.511H445.451V732.091ZM447.8 743H449.476V736.097C449.476 734.619 450.641 733.54 452.232 733.54C452.679 733.54 453.141 733.625 453.254 733.653V731.949C453.062 731.935 452.622 731.92 452.374 731.92C451.067 731.92 449.93 732.659 449.533 733.739H449.419V732.091H447.8V743ZM459.341 743.227C462.295 743.227 464.284 740.983 464.284 737.602C464.284 734.193 462.295 731.949 459.341 731.949C456.386 731.949 454.398 734.193 454.398 737.602C454.398 740.983 456.386 743.227 459.341 743.227ZM459.341 741.722C457.097 741.722 456.074 739.79 456.074 737.602C456.074 735.415 457.097 733.455 459.341 733.455C461.585 733.455 462.608 735.415 462.608 737.602C462.608 739.79 461.585 741.722 459.341 741.722ZM466.843 743H468.519V736.182C468.519 734.584 469.684 733.455 470.99 733.455C472.262 733.455 473.15 734.286 473.15 735.528V743H474.854V735.898C474.854 734.491 475.735 733.455 477.269 733.455C478.462 733.455 479.485 734.087 479.485 735.699V743H481.161V735.699C481.161 733.135 479.783 731.949 477.837 731.949C476.275 731.949 475.131 732.666 474.57 733.795H474.456C473.917 732.631 472.965 731.949 471.53 731.949C470.11 731.949 469.059 732.631 468.604 733.795H468.462V732.091H466.843V743ZM494.595 732.091H492.265V729.477H490.589V732.091H488.941V733.511H490.589V740.33C490.589 742.233 492.123 743.142 493.544 743.142C494.169 743.142 494.566 743.028 494.794 742.943L494.453 741.438C494.311 741.466 494.083 741.523 493.714 741.523C492.975 741.523 492.265 741.295 492.265 739.875V733.511H494.595V732.091ZM499.027 736.438C499.027 734.534 500.241 733.455 501.896 733.455C503.473 733.455 504.424 734.449 504.424 736.182V743H506.1V736.068C506.1 733.263 504.609 731.949 502.379 731.949C500.66 731.949 499.68 732.666 499.169 733.795H499.027V728.455H497.35V743H499.027V736.438ZM513.741 743.227C515.957 743.227 517.576 742.119 518.087 740.472L516.468 740.017C516.042 741.153 515.055 741.722 513.741 741.722C511.773 741.722 510.417 740.45 510.339 738.114H518.258V737.403C518.258 733.341 515.843 731.949 513.57 731.949C510.616 731.949 508.656 734.278 508.656 737.631C508.656 740.983 510.587 743.227 513.741 743.227ZM510.339 736.665C510.452 734.967 511.653 733.455 513.57 733.455C515.388 733.455 516.553 734.818 516.553 736.665H510.339ZM531.148 743C535.58 743 538.08 740.244 538.08 735.699C538.08 731.182 535.58 728.455 531.347 728.455H526.66V743H531.148ZM528.421 741.438V730.017H531.234C534.643 730.017 536.376 732.176 536.376 735.699C536.376 739.25 534.643 741.438 531.035 741.438H528.421ZM553.308 735.727C553.308 731.125 550.609 728.256 546.887 728.256C543.165 728.256 540.467 731.125 540.467 735.727C540.467 740.33 543.165 743.199 546.887 743.199C550.609 743.199 553.308 740.33 553.308 735.727ZM551.603 735.727C551.603 739.506 549.529 741.551 546.887 741.551C544.245 741.551 542.171 739.506 542.171 735.727C542.171 731.949 544.245 729.903 546.887 729.903C549.529 729.903 551.603 731.949 551.603 735.727ZM556.269 728.455V743H557.917V731.949H558.059L562.604 743H564.195L568.741 731.949H568.883V743H570.531V728.455H568.428L563.485 740.528H563.315L558.371 728.455H556.269Z" fill="black"/>
<line x1="106" y1="171.5" x2="253" y2="171.5" stroke="#C8C8C8" stroke-width="3"/>
<line x1="253.343" y1="472.5" x2="400.343" y2="472.5" stroke="#C8C8C8" stroke-width="3"/>
<line x1="106" y1="297.5" x2="253" y2="297.5" stroke="#C8C8C8" stroke-width="3"/>
<line x1="253.343" y1="433.5" x2="400.343" y2="433.5" stroke="#C8C8C8" stroke-width="3"/>
<line x1="253.343" y1="298.5" x2="400.343" y2="298.5" stroke="#C8C8C8" stroke-width="3" stroke-dasharray="6 6"/>
<line x1="106" y1="736.5" x2="253" y2="736.5" stroke="#C8C8C8" stroke-width="3"/>
<line x1="106" y1="53.5" x2="253" y2="53.5" stroke="#C8C8C8" stroke-width="3"/>
<rect x="105.971" y="42" width="16" height="16" rx="8" transform="rotate(45 105.971 42)" fill="#C8C8C8"/>
<rect x="253.313" y="461" width="16" height="16" rx="8" transform="rotate(45 253.313 461)" fill="#C8C8C8"/>
<rect x="105.971" y="160" width="16" height="16" rx="8" transform="rotate(45 105.971 160)" fill="#C8C8C8"/>
<rect x="105.971" y="286" width="16" height="16" rx="8" transform="rotate(45 105.971 286)" fill="#C8C8C8"/>
<rect x="253.313" y="422" width="16" height="16" rx="8" transform="rotate(45 253.313 422)" fill="#C8C8C8"/>
<rect x="253.313" y="287" width="16" height="16" rx="8" transform="rotate(45 253.313 287)" fill="#C8C8C8"/>
<rect x="105.971" y="725" width="16" height="16" rx="8" transform="rotate(45 105.971 725)" fill="#C8C8C8"/>
<defs>
<linearGradient id="paint0_linear_138_156" x1="184.28" y1="94.8203" x2="21.0193" y2="179.517" gradientUnits="userSpaceOnUse">
<stop stop-color="#33FFA0"/>
<stop offset="1" stop-color="#35F7DF"/>
</linearGradient>
<linearGradient id="paint1_linear_138_156" x1="184.28" y1="212.82" x2="21.0193" y2="297.517" gradientUnits="userSpaceOnUse">
<stop stop-color="#33FFA0"/>
<stop offset="1" stop-color="#35F7DF"/>
</linearGradient>
<linearGradient id="paint2_linear_138_156" x1="184.28" y1="659.82" x2="21.0193" y2="744.517" gradientUnits="userSpaceOnUse">
<stop stop-color="#33FFA0"/>
<stop offset="1" stop-color="#35F7DF"/>
</linearGradient>
<linearGradient id="paint3_linear_138_156" x1="184.28" y1="777.82" x2="21.0193" y2="862.517" gradientUnits="userSpaceOnUse">
<stop stop-color="#33FFA0"/>
<stop offset="1" stop-color="#35F7DF"/>
</linearGradient>
</defs>
</svg>
