<svg width="506" height="704" viewBox="0 0 506 704" fill="none" xmlns="http://www.w3.org/2000/svg">
<line x1="182.558" y1="229.457" x2="182.558" y2="471.318" stroke="#545454" stroke-width="2.32558"/>
<path d="M77.1778 702.822C77.6319 703.276 78.3681 703.276 78.8222 702.822L86.2222 695.422C86.6763 694.968 86.6763 694.232 86.2222 693.778C85.7681 693.324 85.0318 693.324 84.5777 693.778L78 700.356L71.4223 693.778C70.9682 693.324 70.2319 693.324 69.7778 693.778C69.3237 694.232 69.3237 694.968 69.7778 695.422L77.1778 702.822ZM76.8372 40L76.8372 702H79.1628L79.1628 40H76.8372Z" fill="#545454"/>
<path d="M85.2246 470.496C84.7705 470.95 84.7705 471.686 85.2246 472.14L92.6245 479.54C93.0786 479.994 93.8148 479.994 94.269 479.54C94.723 479.086 94.723 478.35 94.269 477.896L87.6912 471.318L94.269 464.74C94.723 464.286 94.723 463.55 94.269 463.096C93.8148 462.642 93.0786 462.642 92.6245 463.096L85.2246 470.496ZM183.721 470.155H86.0468V472.481H183.721V470.155Z" fill="#545454"/>
<rect y="61.2403" width="155.039" height="46.907" rx="3.10078" fill="url(#paint0_linear_143_57)"/>
<path d="M52.8832 90.3642C55.44 90.3642 57.065 88.5631 57.065 85.8642C57.065 83.1597 55.44 81.3529 52.8832 81.3529C50.3263 81.3529 48.7013 83.1597 48.7013 85.8642C48.7013 88.5631 50.3263 90.3642 52.8832 90.3642ZM52.8945 88.7165C51.4798 88.7165 50.7866 87.4552 50.7866 85.8586C50.7866 84.262 51.4798 82.9836 52.8945 82.9836C54.2866 82.9836 54.9798 84.262 54.9798 85.8586C54.9798 87.4552 54.2866 88.7165 52.8945 88.7165ZM60.8675 85.0802C60.8675 83.8188 61.6289 83.0915 62.7141 83.0915C63.7766 83.0915 64.413 83.7904 64.413 84.9552V90.1938H66.4698V84.637C66.4755 82.5461 65.2823 81.3529 63.4812 81.3529C62.1744 81.3529 61.2766 81.9779 60.8789 82.9495H60.7766V81.4665H58.8107V90.1938H60.8675V85.0802ZM74.9755 81.7563H77.0039C76.9641 79.7904 75.288 78.3983 72.8107 78.3983C70.3675 78.3983 68.5323 79.7733 68.538 81.8301C68.538 83.5006 69.7255 84.4608 71.6403 84.9552L72.9641 85.2961C74.2198 85.6142 75.0494 86.0063 75.055 86.9097C75.0494 87.904 74.1062 88.5688 72.7312 88.5688C71.413 88.5688 70.3903 87.9779 70.305 86.7563H68.2312C68.3164 89.0688 70.038 90.3699 72.7482 90.3699C75.538 90.3699 77.1573 88.9779 77.163 86.9267C77.1573 84.9097 75.4925 83.9892 73.7425 83.5745L72.6516 83.3017C71.6971 83.0745 70.663 82.6711 70.6744 81.6995C70.68 80.8245 71.4641 80.1824 72.7823 80.1824C74.038 80.1824 74.8675 80.7676 74.9755 81.7563ZM83.3093 81.4665H81.5877V79.3756H79.5309V81.4665H78.2923V83.0574H79.5309V87.9097C79.5195 89.5517 80.7127 90.3586 82.2582 90.3131C82.8434 90.2961 83.2468 90.1824 83.4684 90.1086L83.1218 88.5006C83.0082 88.529 82.7752 88.5802 82.5195 88.5802C82.0025 88.5802 81.5877 88.3983 81.5877 87.5688V83.0574H83.3093V81.4665ZM87.5408 90.3699C88.9102 90.3699 89.7283 89.7279 90.1033 88.9949H90.1715V90.1938H92.1488V84.3529C92.1488 82.0461 90.2681 81.3529 88.6033 81.3529C86.7681 81.3529 85.359 82.1711 84.9045 83.762L86.8249 84.0347C87.0295 83.4381 87.609 82.9267 88.6147 82.9267C89.5692 82.9267 90.092 83.4154 90.092 84.2733V84.3074C90.092 84.8983 89.4727 84.9267 87.9329 85.0915C86.2397 85.2733 84.6204 85.779 84.6204 87.7449C84.6204 89.4608 85.8761 90.3699 87.5408 90.3699ZM88.0749 88.8586C87.217 88.8586 86.6033 88.4665 86.6033 87.7108C86.6033 86.9211 87.2908 86.5915 88.2113 86.4608C88.7511 86.387 89.8306 86.2506 90.0977 86.0347V87.0631C90.0977 88.0347 89.3136 88.8586 88.0749 88.8586ZM94.217 90.1938H96.2738V85.0631C96.2738 83.9552 97.109 83.1711 98.2397 83.1711C98.5863 83.1711 99.0181 83.2336 99.1942 83.2904V81.3983C99.0067 81.3642 98.6829 81.3415 98.4556 81.3415C97.4556 81.3415 96.6204 81.9097 96.3022 82.9211H96.2113V81.4665H94.217V90.1938ZM105.387 81.4665H103.666V79.3756H101.609V81.4665H100.37V83.0574H101.609V87.9097C101.598 89.5517 102.791 90.3586 104.336 90.3131C104.922 90.2961 105.325 90.1824 105.547 90.1086L105.2 88.5006C105.086 88.529 104.853 88.5802 104.598 88.5802C104.081 88.5802 103.666 88.3983 103.666 87.5688V83.0574H105.387V81.4665Z" fill="#2D503C"/>
<rect y="152.713" width="155.039" height="46.907" rx="3.10078" fill="url(#paint1_linear_143_57)"/>
<path d="M38.8832 181.837C41.44 181.837 43.065 180.036 43.065 177.337C43.065 174.633 41.44 172.826 38.8832 172.826C36.3263 172.826 34.7013 174.633 34.7013 177.337C34.7013 180.036 36.3263 181.837 38.8832 181.837ZM38.8945 180.189C37.4798 180.189 36.7866 178.928 36.7866 177.331C36.7866 175.735 37.4798 174.456 38.8945 174.456C40.2866 174.456 40.9798 175.735 40.9798 177.331C40.9798 178.928 40.2866 180.189 38.8945 180.189ZM46.8675 176.553C46.8675 175.292 47.6289 174.564 48.7141 174.564C49.7766 174.564 50.413 175.263 50.413 176.428V181.667H52.4698V176.11C52.4755 174.019 51.2823 172.826 49.4812 172.826C48.1744 172.826 47.2766 173.451 46.8789 174.422H46.7766V172.939H44.8107V181.667H46.8675V176.553ZM54.6516 181.667H56.7596V177.405H58.9073L61.1914 181.667H63.5437L61.0266 177.053C62.396 176.502 63.1175 175.331 63.1175 173.752C63.1175 171.53 61.6857 170.03 59.0153 170.03H54.6516V181.667ZM56.7596 175.655V171.792H58.6914C60.2653 171.792 60.9698 172.513 60.9698 173.752C60.9698 174.991 60.2653 175.655 58.7028 175.655H56.7596ZM68.7056 181.837C70.7397 181.837 72.1374 180.843 72.5011 179.326L70.5806 179.11C70.3022 179.849 69.6204 180.235 68.734 180.235C67.4045 180.235 66.5238 179.36 66.5067 177.866H72.5863V177.235C72.5863 174.172 70.7454 172.826 68.5977 172.826C66.0977 172.826 64.467 174.661 64.467 177.354C64.467 180.093 66.0749 181.837 68.7056 181.837ZM66.5124 176.479C66.5749 175.366 67.3988 174.428 68.6261 174.428C69.8079 174.428 70.6033 175.292 70.6147 176.479H66.5124ZM76.8377 181.843C78.207 181.843 79.0252 181.201 79.4002 180.468H79.4684V181.667H81.4457V175.826C81.4457 173.519 79.565 172.826 77.9002 172.826C76.065 172.826 74.6559 173.644 74.2013 175.235L76.1218 175.508C76.3263 174.911 76.9059 174.4 77.9116 174.4C78.8661 174.4 79.3888 174.888 79.3888 175.746V175.78C79.3888 176.371 78.7695 176.4 77.2298 176.564C75.5366 176.746 73.9173 177.252 73.9173 179.218C73.9173 180.934 75.1729 181.843 76.8377 181.843ZM77.3718 180.331C76.5138 180.331 75.9002 179.939 75.9002 179.184C75.9002 178.394 76.5877 178.064 77.5082 177.934C78.0479 177.86 79.1275 177.724 79.3945 177.508V178.536C79.3945 179.508 78.6104 180.331 77.3718 180.331ZM87.3207 181.837C89.5138 181.837 90.9116 180.536 91.0593 178.684H89.0934C88.9173 179.621 88.2411 180.161 87.3377 180.161C86.0536 180.161 85.2241 179.087 85.2241 177.303C85.2241 175.542 86.0707 174.485 87.3377 174.485C88.3263 174.485 88.9343 175.121 89.0934 175.962H91.0593C90.9173 174.07 89.44 172.826 87.3093 172.826C84.7525 172.826 83.1388 174.672 83.1388 177.337C83.1388 179.979 84.7127 181.837 87.3207 181.837ZM97.1062 172.939H95.3846V170.849H93.3278V172.939H92.0891V174.53H93.3278V179.383C93.3164 181.025 94.5096 181.831 96.055 181.786C96.6403 181.769 97.0437 181.655 97.2653 181.581L96.9187 179.974C96.805 180.002 96.5721 180.053 96.3164 180.053C95.7994 180.053 95.3846 179.871 95.3846 179.042V174.53H97.1062V172.939ZM98.8263 181.667H100.883V172.939H98.8263V181.667ZM99.8604 171.701C100.514 171.701 101.048 171.201 101.048 170.587C101.048 169.968 100.514 169.468 99.8604 169.468C99.2013 169.468 98.6673 169.968 98.6673 170.587C98.6673 171.201 99.2013 171.701 99.8604 171.701ZM110.794 172.939H108.606L106.595 179.422H106.504L104.498 172.939H102.305L105.413 181.667H107.686L110.794 172.939ZM115.784 181.837C117.818 181.837 119.216 180.843 119.579 179.326L117.659 179.11C117.38 179.849 116.699 180.235 115.812 180.235C114.483 180.235 113.602 179.36 113.585 177.866H119.664V177.235C119.664 174.172 117.824 172.826 115.676 172.826C113.176 172.826 111.545 174.661 111.545 177.354C111.545 180.093 113.153 181.837 115.784 181.837ZM113.591 176.479C113.653 175.366 114.477 174.428 115.704 174.428C116.886 174.428 117.681 175.292 117.693 176.479H113.591Z" fill="#2D503C"/>
<rect x="103.876" y="258.14" width="155.039" height="46.5116" rx="3.10078" fill="#C3C3C3"/>
<path d="M130.957 287.093H132.917V285.761H133.032C133.346 286.377 134.001 287.242 135.455 287.242C137.448 287.242 138.94 285.662 138.94 282.876C138.94 280.057 137.404 278.526 135.449 278.526C133.957 278.526 133.335 279.424 133.032 280.035H132.95V275.817H130.957V287.093ZM132.911 282.865C132.911 281.224 133.616 280.161 134.899 280.161C136.226 280.161 136.908 281.29 136.908 282.865C136.908 284.45 136.215 285.606 134.899 285.606C133.627 285.606 132.911 284.505 132.911 282.865ZM144.378 287.258C146.349 287.258 147.704 286.295 148.056 284.825L146.195 284.615C145.925 285.331 145.265 285.706 144.406 285.706C143.117 285.706 142.264 284.858 142.248 283.41H148.139V282.799C148.139 279.831 146.355 278.526 144.274 278.526C141.851 278.526 140.271 280.305 140.271 282.914C140.271 285.568 141.829 287.258 144.378 287.258ZM142.253 282.066C142.314 280.987 143.112 280.079 144.301 280.079C145.446 280.079 146.217 280.916 146.228 282.066H142.253ZM154.108 278.636H152.352V277.97C152.352 277.309 152.627 276.941 153.37 276.941C153.684 276.941 153.948 277.012 154.114 277.062L154.515 275.52C154.257 275.432 153.69 275.289 153.001 275.289C151.531 275.289 150.359 276.131 150.359 277.838V278.636H149.109V280.178H150.359V287.093H152.352V280.178H154.108V278.636ZM159.04 287.258C161.517 287.258 163.092 285.513 163.092 282.898C163.092 280.277 161.517 278.526 159.04 278.526C156.562 278.526 154.988 280.277 154.988 282.898C154.988 285.513 156.562 287.258 159.04 287.258ZM159.051 285.662C157.68 285.662 157.008 284.439 157.008 282.892C157.008 281.345 157.68 280.106 159.051 280.106C160.4 280.106 161.071 281.345 161.071 282.892C161.071 284.439 160.4 285.662 159.051 285.662ZM164.784 287.093H166.777V282.121C166.777 281.048 167.586 280.288 168.682 280.288C169.017 280.288 169.436 280.349 169.606 280.404V278.57C169.425 278.537 169.111 278.515 168.891 278.515C167.922 278.515 167.112 279.066 166.804 280.046H166.716V278.636H164.784V287.093ZM174.326 287.258C176.297 287.258 177.652 286.295 178.004 284.825L176.143 284.615C175.873 285.331 175.213 285.706 174.354 285.706C173.065 285.706 172.212 284.858 172.195 283.41H178.087V282.799C178.087 279.831 176.303 278.526 174.222 278.526C171.799 278.526 170.219 280.305 170.219 282.914C170.219 285.568 171.777 287.258 174.326 287.258ZM172.201 282.066C172.262 280.987 173.06 280.079 174.249 280.079C175.394 280.079 176.165 280.916 176.176 282.066H172.201ZM179.861 287.093H181.903V282.964H183.984L186.198 287.093H188.477L186.038 282.622C187.365 282.088 188.064 280.954 188.064 279.424C188.064 277.271 186.677 275.817 184.089 275.817H179.861V287.093ZM181.903 281.268V277.524H183.775C185.3 277.524 185.983 278.223 185.983 279.424C185.983 280.624 185.3 281.268 183.786 281.268H181.903ZM193.479 287.258C195.45 287.258 196.804 286.295 197.157 284.825L195.296 284.615C195.026 285.331 194.365 285.706 193.506 285.706C192.218 285.706 191.365 284.858 191.348 283.41H197.239V282.799C197.239 279.831 195.455 278.526 193.374 278.526C190.952 278.526 189.372 280.305 189.372 282.914C189.372 285.568 190.93 287.258 193.479 287.258ZM191.354 282.066C191.414 280.987 192.213 280.079 193.402 280.079C194.547 280.079 195.318 280.916 195.329 282.066H191.354ZM200.918 282.138C200.918 280.916 201.656 280.211 202.708 280.211C203.737 280.211 204.354 280.888 204.354 282.017V287.093H206.347V281.709C206.352 279.682 205.196 278.526 203.451 278.526C202.185 278.526 201.315 279.132 200.929 280.073H200.83V278.636H198.925V287.093H200.918V282.138ZM211.511 287.242C212.965 287.242 213.62 286.377 213.934 285.761H214.055V287.093H216.015V275.817H214.016V280.035H213.934C213.631 279.424 213.009 278.526 211.517 278.526C209.562 278.526 208.026 280.057 208.026 282.876C208.026 285.662 209.518 287.242 211.511 287.242ZM212.067 285.606C210.751 285.606 210.058 284.45 210.058 282.865C210.058 281.29 210.74 280.161 212.067 280.161C213.35 280.161 214.055 281.224 214.055 282.865C214.055 284.505 213.339 285.606 212.067 285.606ZM221.882 287.258C223.854 287.258 225.208 286.295 225.56 284.825L223.699 284.615C223.43 285.331 222.769 285.706 221.91 285.706C220.622 285.706 219.768 284.858 219.752 283.41H225.643V282.799C225.643 279.831 223.859 278.526 221.778 278.526C219.355 278.526 217.775 280.305 217.775 282.914C217.775 285.568 219.333 287.258 221.882 287.258ZM219.757 282.066C219.818 280.987 220.616 280.079 221.805 280.079C222.951 280.079 223.721 280.916 223.732 282.066H219.757ZM227.329 287.093H229.322V282.121C229.322 281.048 230.131 280.288 231.227 280.288C231.563 280.288 231.981 280.349 232.152 280.404V278.57C231.97 278.537 231.656 278.515 231.436 278.515C230.467 278.515 229.658 279.066 229.35 280.046H229.261V278.636H227.329V287.093Z" fill="#323232"/>
<rect x="103.876" y="393.798" width="155.039" height="46.5116" rx="3.10078" fill="#C3C3C3"/>
<path d="M149.674 422.917C152.152 422.917 153.726 421.172 153.726 418.557C153.726 415.936 152.152 414.185 149.674 414.185C147.197 414.185 145.622 415.936 145.622 418.557C145.622 421.172 147.197 422.917 149.674 422.917ZM149.685 421.32C148.314 421.32 147.643 420.098 147.643 418.551C147.643 417.004 148.314 415.765 149.685 415.765C151.034 415.765 151.706 417.004 151.706 418.551C151.706 420.098 151.034 421.32 149.685 421.32ZM157.411 417.797C157.411 416.575 158.149 415.87 159.2 415.87C160.23 415.87 160.847 416.547 160.847 417.676V422.752H162.84V417.367C162.845 415.341 161.689 414.185 159.944 414.185C158.677 414.185 157.807 414.791 157.422 415.732H157.323V414.295H155.418V422.752H157.411V417.797ZM164.954 422.752H166.996V418.623H169.077L171.291 422.752H173.57L171.131 418.281C172.458 417.747 173.157 416.613 173.157 415.083C173.157 412.93 171.77 411.476 169.182 411.476H164.954V422.752ZM166.996 416.927V413.183H168.868C170.393 413.183 171.076 413.882 171.076 415.083C171.076 416.283 170.393 416.927 168.879 416.927H166.996ZM178.572 422.917C180.543 422.917 181.897 421.954 182.25 420.484L180.389 420.274C180.119 420.99 179.458 421.365 178.599 421.365C177.311 421.365 176.458 420.517 176.441 419.069H182.332V418.458C182.332 415.49 180.548 414.185 178.467 414.185C176.045 414.185 174.465 415.964 174.465 418.573C174.465 421.227 176.023 422.917 178.572 422.917ZM176.447 417.725C176.507 416.646 177.306 415.738 178.495 415.738C179.64 415.738 180.411 416.575 180.422 417.725H176.447ZM186.011 417.797C186.011 416.575 186.749 415.87 187.801 415.87C188.83 415.87 189.447 416.547 189.447 417.676V422.752H191.44V417.367C191.446 415.341 190.289 414.185 188.544 414.185C187.278 414.185 186.408 414.791 186.022 415.732H185.923V414.295H184.018V422.752H186.011V417.797ZM196.604 422.901C198.058 422.901 198.713 422.036 199.027 421.42H199.148V422.752H201.108V411.476H199.109V415.694H199.027C198.724 415.083 198.102 414.185 196.61 414.185C194.655 414.185 193.119 415.716 193.119 418.535C193.119 421.32 194.611 422.901 196.604 422.901ZM197.16 421.265C195.845 421.265 195.151 420.109 195.151 418.524C195.151 416.949 195.834 415.82 197.16 415.82C198.443 415.82 199.148 416.883 199.148 418.524C199.148 420.164 198.432 421.265 197.16 421.265ZM206.976 422.917C208.947 422.917 210.301 421.954 210.653 420.484L208.792 420.274C208.523 420.99 207.862 421.365 207.003 421.365C205.715 421.365 204.861 420.517 204.845 419.069H210.736V418.458C210.736 415.49 208.952 414.185 206.871 414.185C204.448 414.185 202.868 415.964 202.868 418.573C202.868 421.227 204.426 422.917 206.976 422.917ZM204.85 417.725C204.911 416.646 205.709 415.738 206.898 415.738C208.044 415.738 208.814 416.575 208.825 417.725H204.85ZM212.422 422.752H214.415V417.78C214.415 416.707 215.224 415.947 216.32 415.947C216.656 415.947 217.074 416.008 217.245 416.063V414.229C217.063 414.196 216.749 414.174 216.529 414.174C215.56 414.174 214.751 414.725 214.443 415.705H214.354V414.295H212.422V422.752Z" fill="#323232"/>
<rect y="499.225" width="155.039" height="46.907" rx="3.10078" fill="url(#paint2_linear_143_57)"/>
<path d="M48.3832 528.349C50.94 528.349 52.565 526.548 52.565 523.849C52.565 521.144 50.94 519.337 48.3832 519.337C45.8263 519.337 44.2013 521.144 44.2013 523.849C44.2013 526.548 45.8263 528.349 48.3832 528.349ZM48.3945 526.701C46.9798 526.701 46.2866 525.44 46.2866 523.843C46.2866 522.247 46.9798 520.968 48.3945 520.968C49.7866 520.968 50.4798 522.247 50.4798 523.843C50.4798 525.44 49.7866 526.701 48.3945 526.701ZM56.3675 523.065C56.3675 521.803 57.1289 521.076 58.2141 521.076C59.2766 521.076 59.913 521.775 59.913 522.94V528.178H61.9698V522.622C61.9755 520.531 60.7823 519.337 58.9812 519.337C57.6744 519.337 56.7766 519.962 56.3789 520.934H56.2766V519.451H54.3107V528.178H56.3675V523.065ZM64.1516 528.178H66.2596V523.917H68.4073L70.6914 528.178H73.0437L70.5266 523.565C71.896 523.014 72.6175 521.843 72.6175 520.264C72.6175 518.042 71.1857 516.542 68.5153 516.542H64.1516V528.178ZM66.2596 522.167V518.303H68.1914C69.7653 518.303 70.4698 519.025 70.4698 520.264C70.4698 521.502 69.7653 522.167 68.2028 522.167H66.2596ZM78.2056 528.349C80.2397 528.349 81.6374 527.354 82.0011 525.837L80.0806 525.622C79.8022 526.36 79.1204 526.747 78.234 526.747C76.9045 526.747 76.0238 525.872 76.0067 524.377H82.0863V523.747C82.0863 520.684 80.2454 519.337 78.0977 519.337C75.5977 519.337 73.967 521.173 73.967 523.866C73.967 526.604 75.5749 528.349 78.2056 528.349ZM76.0124 522.991C76.0749 521.877 76.8988 520.94 78.1261 520.94C79.3079 520.94 80.1033 521.803 80.1147 522.991H76.0124ZM86.3377 528.354C87.707 528.354 88.5252 527.712 88.9002 526.979H88.9684V528.178H90.9457V522.337C90.9457 520.031 89.065 519.337 87.4002 519.337C85.565 519.337 84.1559 520.156 83.7013 521.747L85.6218 522.019C85.8263 521.423 86.4059 520.911 87.4116 520.911C88.3661 520.911 88.8888 521.4 88.8888 522.258V522.292C88.8888 522.883 88.2695 522.911 86.7298 523.076C85.0366 523.258 83.4173 523.764 83.4173 525.729C83.4173 527.445 84.6729 528.354 86.3377 528.354ZM86.8718 526.843C86.0138 526.843 85.4002 526.451 85.4002 525.695C85.4002 524.906 86.0877 524.576 87.0082 524.445C87.5479 524.372 88.6275 524.235 88.8945 524.019V525.048C88.8945 526.019 88.1104 526.843 86.8718 526.843ZM96.2525 528.332C97.7525 528.332 98.4286 527.44 98.7525 526.803H98.8775V528.178H100.9V516.542H98.8377V520.894H98.7525C98.44 520.264 97.7979 519.337 96.2582 519.337C94.2411 519.337 92.6559 520.917 92.6559 523.826C92.6559 526.701 94.1957 528.332 96.2525 528.332ZM96.8263 526.644C95.4684 526.644 94.7525 525.451 94.7525 523.815C94.7525 522.19 95.457 521.025 96.8263 521.025C98.1502 521.025 98.8775 522.122 98.8775 523.815C98.8775 525.508 98.1388 526.644 96.8263 526.644ZM104.37 531.451C105.973 531.451 106.899 530.627 107.393 529.235L110.899 519.462L108.7 519.451L106.683 526.042H106.592L104.581 519.451H102.399L105.564 528.36L105.387 528.832C105.007 529.826 104.404 529.894 103.507 529.633L103.029 531.235C103.308 531.349 103.808 531.451 104.37 531.451Z" fill="#2D503C"/>
<rect y="626" width="155.039" height="46.907" rx="3.10078" fill="url(#paint3_linear_143_57)"/>
<path d="M41.8832 655.124C44.44 655.124 46.065 653.323 46.065 650.624C46.065 647.919 44.44 646.113 41.8832 646.113C39.3263 646.113 37.7013 647.919 37.7013 650.624C37.7013 653.323 39.3263 655.124 41.8832 655.124ZM41.8945 653.476C40.4798 653.476 39.7866 652.215 39.7866 650.618C39.7866 649.022 40.4798 647.743 41.8945 647.743C43.2866 647.743 43.9798 649.022 43.9798 650.618C43.9798 652.215 43.2866 653.476 41.8945 653.476ZM49.8675 649.84C49.8675 648.578 50.6289 647.851 51.7141 647.851C52.7766 647.851 53.413 648.55 53.413 649.715V654.953H55.4698V649.397C55.4755 647.306 54.2823 646.113 52.4812 646.113C51.1744 646.113 50.2766 646.738 49.8789 647.709H49.7766V646.226H47.8107V654.953H49.8675V649.84ZM61.5948 654.953C65.1403 654.953 67.2425 652.76 67.2425 649.124C67.2425 645.499 65.1403 643.317 61.6744 643.317H57.6516V654.953H61.5948ZM59.7596 653.13V645.141H61.555C63.9187 645.141 65.1516 646.459 65.1516 649.124C65.1516 651.8 63.9187 653.13 61.4925 653.13H59.7596ZM73.0181 655.124C75.0522 655.124 76.4499 654.13 76.8136 652.613L74.8931 652.397C74.6147 653.135 73.9329 653.522 73.0465 653.522C71.717 653.522 70.8363 652.647 70.8192 651.152H76.8988V650.522C76.8988 647.459 75.0579 646.113 72.9102 646.113C70.4102 646.113 68.7795 647.948 68.7795 650.641C68.7795 653.38 70.3874 655.124 73.0181 655.124ZM70.8249 649.766C70.8874 648.652 71.7113 647.715 72.9386 647.715C74.1204 647.715 74.9158 648.578 74.9272 649.766H70.8249ZM85.5366 648.533C85.2525 647.056 84.0707 646.113 82.0252 646.113C79.9229 646.113 78.4911 647.147 78.4968 648.76C78.4911 650.033 79.2752 650.874 80.9513 651.221L82.44 651.533C83.2411 651.709 83.6161 652.033 83.6161 652.527C83.6161 653.124 82.9684 653.573 81.9911 653.573C81.0479 653.573 80.4343 653.164 80.2582 652.38L78.2525 652.573C78.5082 654.175 79.8548 655.124 81.9968 655.124C84.1786 655.124 85.7184 653.993 85.7241 652.34C85.7184 651.096 84.9173 650.334 83.2695 649.976L81.7809 649.658C80.8945 649.459 80.5423 649.152 80.5479 648.647C80.5423 648.056 81.1957 647.647 82.0536 647.647C83.0025 647.647 83.5025 648.164 83.6616 648.738L85.5366 648.533ZM91.7781 646.226H90.0565V644.135H87.9996V646.226H86.761V647.817H87.9996V652.669C87.9883 654.311 89.1815 655.118 90.7269 655.073C91.3121 655.056 91.7156 654.942 91.9371 654.868L91.5906 653.26C91.4769 653.289 91.244 653.34 90.9883 653.34C90.4712 653.34 90.0565 653.158 90.0565 652.328V647.817H91.7781V646.226ZM93.4982 654.953H95.555V649.823C95.555 648.715 96.3903 647.931 97.521 647.931C97.8675 647.931 98.2994 647.993 98.4755 648.05V646.158C98.288 646.124 97.9641 646.101 97.7369 646.101C96.7369 646.101 95.9016 646.669 95.5835 647.681H95.4925V646.226H93.4982V654.953ZM103.289 655.124C105.846 655.124 107.471 653.323 107.471 650.624C107.471 647.919 105.846 646.113 103.289 646.113C100.733 646.113 99.1076 647.919 99.1076 650.624C99.1076 653.323 100.733 655.124 103.289 655.124ZM103.301 653.476C101.886 653.476 101.193 652.215 101.193 650.618C101.193 649.022 101.886 647.743 103.301 647.743C104.693 647.743 105.386 649.022 105.386 650.618C105.386 652.215 104.693 653.476 103.301 653.476ZM110.199 658.226C111.801 658.226 112.727 657.402 113.221 656.01L116.727 646.238L114.528 646.226L112.511 652.817H112.42L110.409 646.226H108.227L111.392 655.135L111.216 655.607C110.835 656.601 110.233 656.669 109.335 656.408L108.858 658.01C109.136 658.124 109.636 658.226 110.199 658.226Z" fill="#2D503C"/>
<path d="M198.167 34.3714H196.758V46.0078H198.167V34.3714ZM202.151 40.7578C202.151 39.235 203.094 38.3714 204.378 38.3714C205.623 38.3714 206.378 39.1839 206.378 40.5532V46.0078H207.719V40.4623C207.719 38.235 206.532 37.1668 204.765 37.1668C203.447 37.1668 202.628 37.7578 202.219 38.6441H202.106V37.2805H200.81V46.0078H202.151V40.7578ZM216.351 39.235C215.931 37.9964 214.988 37.1668 213.261 37.1668C211.42 37.1668 210.056 38.2123 210.056 39.6896C210.056 40.8941 210.772 41.7009 212.374 42.0759L213.829 42.4168C214.709 42.6214 215.124 43.0418 215.124 43.6441C215.124 44.3941 214.329 45.0078 213.079 45.0078C211.982 45.0078 211.295 44.5362 211.056 43.5987L209.783 43.9168C210.096 45.3998 211.317 46.1896 213.101 46.1896C215.13 46.1896 216.511 45.0816 216.511 43.5759C216.511 42.36 215.749 41.593 214.192 41.2123L212.897 40.8941C211.863 40.6384 211.397 40.2918 211.397 39.6214C211.397 38.8714 212.192 38.3259 213.261 38.3259C214.431 38.3259 214.914 38.9737 215.147 39.5759L216.351 39.235ZM222.188 46.1896C223.961 46.1896 225.256 45.3032 225.665 43.985L224.37 43.6214C224.029 44.5305 223.239 44.985 222.188 44.985C220.614 44.985 219.529 43.968 219.467 42.0987H225.802V41.5305C225.802 38.2805 223.87 37.1668 222.052 37.1668C219.688 37.1668 218.12 39.0305 218.12 41.7123C218.12 44.3941 219.665 46.1896 222.188 46.1896ZM219.467 40.9396C219.557 39.5816 220.518 38.3714 222.052 38.3714C223.506 38.3714 224.438 39.4623 224.438 40.9396H219.467ZM227.842 46.0078H229.182V40.485C229.182 39.3032 230.114 38.4396 231.387 38.4396C231.745 38.4396 232.114 38.5078 232.205 38.5305V37.1668C232.052 37.1555 231.699 37.1441 231.501 37.1441C230.455 37.1441 229.546 37.735 229.228 38.5987H229.137V37.2805H227.842V46.0078ZM238.137 37.2805H236.273V35.1896H234.932V37.2805H233.614V38.4168H234.932V43.8714C234.932 45.3941 236.16 46.1214 237.296 46.1214C237.796 46.1214 238.114 46.0305 238.296 45.9623L238.023 44.7578C237.91 44.7805 237.728 44.8259 237.432 44.8259C236.842 44.8259 236.273 44.6441 236.273 43.5078V38.4168H238.137V37.2805ZM243.719 46.1896C245.492 46.1896 246.788 45.3032 247.197 43.985L245.901 43.6214C245.56 44.5305 244.771 44.985 243.719 44.985C242.146 44.985 241.06 43.968 240.998 42.0987H247.333V41.5305C247.333 38.2805 245.401 37.1668 243.583 37.1668C241.219 37.1668 239.651 39.0305 239.651 41.7123C239.651 44.3941 241.197 46.1896 243.719 46.1896ZM240.998 40.9396C241.089 39.5816 242.049 38.3714 243.583 38.3714C245.038 38.3714 245.969 39.4623 245.969 40.9396H240.998ZM252.668 46.1896C254.35 46.1896 254.918 45.1441 255.214 44.6668H255.373V46.0078H256.668V34.3714H255.327V38.6668H255.214C254.918 38.2123 254.396 37.1668 252.691 37.1668C250.486 37.1668 248.964 38.9168 248.964 41.6668C248.964 44.4396 250.486 46.1896 252.668 46.1896ZM252.85 44.985C251.168 44.985 250.305 43.5078 250.305 41.6441C250.305 39.8032 251.146 38.3714 252.85 38.3714C254.486 38.3714 255.35 39.6896 255.35 41.6441C255.35 43.6214 254.464 44.985 252.85 44.985ZM263.81 46.0078H265.151V37.2805H263.81V46.0078ZM264.492 35.8259C265.015 35.8259 265.447 35.4168 265.447 34.9168C265.447 34.4168 265.015 34.0078 264.492 34.0078C263.969 34.0078 263.538 34.4168 263.538 34.9168C263.538 35.4168 263.969 35.8259 264.492 35.8259ZM268.948 40.7578C268.948 39.235 269.891 38.3714 271.175 38.3714C272.42 38.3714 273.175 39.1839 273.175 40.5532V46.0078H274.516V40.4623C274.516 38.235 273.329 37.1668 271.562 37.1668C270.244 37.1668 269.425 37.7578 269.016 38.6441H268.903V37.2805H267.607V46.0078H268.948V40.7578ZM280.762 37.2805H278.898V35.1896H277.557V37.2805H276.239V38.4168H277.557V43.8714C277.557 45.3941 278.785 46.1214 279.921 46.1214C280.421 46.1214 280.739 46.0305 280.921 45.9623L280.648 44.7578C280.535 44.7805 280.353 44.8259 280.057 44.8259C279.467 44.8259 278.898 44.6441 278.898 43.5078V38.4168H280.762V37.2805ZM286.231 46.1896C288.594 46.1896 290.185 44.3941 290.185 41.6896C290.185 38.9623 288.594 37.1668 286.231 37.1668C283.867 37.1668 282.276 38.9623 282.276 41.6896C282.276 44.3941 283.867 46.1896 286.231 46.1896ZM286.231 44.985C284.435 44.985 283.617 43.4396 283.617 41.6896C283.617 39.9396 284.435 38.3714 286.231 38.3714C288.026 38.3714 288.844 39.9396 288.844 41.6896C288.844 43.4396 288.026 44.985 286.231 44.985ZM300.528 37.2805H298.664V35.1896H297.323V37.2805H296.005V38.4168H297.323V43.8714C297.323 45.3941 298.55 46.1214 299.687 46.1214C300.187 46.1214 300.505 46.0305 300.687 45.9623L300.414 44.7578C300.3 44.7805 300.119 44.8259 299.823 44.8259C299.232 44.8259 298.664 44.6441 298.664 43.5078V38.4168H300.528V37.2805ZM304.073 40.7578C304.073 39.235 305.045 38.3714 306.369 38.3714C307.63 38.3714 308.391 39.1668 308.391 40.5532V46.0078H309.732V40.4623C309.732 38.218 308.539 37.1668 306.755 37.1668C305.38 37.1668 304.596 37.7407 304.187 38.6441H304.073V34.3714H302.732V46.0078H304.073V40.7578ZM315.844 46.1896C317.617 46.1896 318.913 45.3032 319.322 43.985L318.026 43.6214C317.685 44.5305 316.896 44.985 315.844 44.985C314.271 44.985 313.185 43.968 313.123 42.0987H319.458V41.5305C319.458 38.2805 317.526 37.1668 315.708 37.1668C313.344 37.1668 311.776 39.0305 311.776 41.7123C311.776 44.3941 313.322 46.1896 315.844 46.1896ZM313.123 40.9396C313.214 39.5816 314.174 38.3714 315.708 38.3714C317.163 38.3714 318.094 39.4623 318.094 40.9396H313.123ZM329.771 46.0078C333.316 46.0078 335.316 43.8032 335.316 40.1668C335.316 36.5532 333.316 34.3714 329.93 34.3714H326.18V46.0078H329.771ZM327.589 44.7578V35.6214H329.839C332.566 35.6214 333.952 37.3487 333.952 40.1668C333.952 43.0078 332.566 44.7578 329.68 44.7578H327.589ZM347.498 40.1896C347.498 36.5078 345.339 34.2123 342.361 34.2123C339.384 34.2123 337.225 36.5078 337.225 40.1896C337.225 43.8714 339.384 46.1668 342.361 46.1668C345.339 46.1668 347.498 43.8714 347.498 40.1896ZM346.134 40.1896C346.134 43.2123 344.475 44.8487 342.361 44.8487C340.248 44.8487 338.589 43.2123 338.589 40.1896C338.589 37.1668 340.248 35.5305 342.361 35.5305C344.475 35.5305 346.134 37.1668 346.134 40.1896ZM349.867 34.3714V46.0078H351.185V37.1668H351.299L354.935 46.0078H356.208L359.844 37.1668H359.958V46.0078H361.276V34.3714H359.594L355.64 44.0305H355.503L351.549 34.3714H349.867Z" fill="#C3C3C3"/>
<path d="M196.758 138.256H198.167V133.71H200.712C200.815 133.71 200.911 133.71 201.008 133.705L203.462 138.256H205.099L202.468 133.449C203.951 132.943 204.644 131.733 204.644 130.188C204.644 128.131 203.417 126.619 200.69 126.619H196.758V138.256ZM198.167 132.438V127.869H200.644C202.53 127.869 203.258 128.79 203.258 130.188C203.258 131.585 202.53 132.438 200.667 132.438H198.167ZM210.376 138.438C212.148 138.438 213.444 137.551 213.853 136.233L212.557 135.869C212.217 136.779 211.427 137.233 210.376 137.233C208.802 137.233 207.717 136.216 207.654 134.347H213.989V133.779C213.989 130.529 212.057 129.415 210.239 129.415C207.876 129.415 206.307 131.279 206.307 133.96C206.307 136.642 207.853 138.438 210.376 138.438ZM207.654 133.188C207.745 131.83 208.705 130.619 210.239 130.619C211.694 130.619 212.626 131.71 212.626 133.188H207.654ZM218.597 138.46C220.12 138.46 220.915 137.642 221.188 137.074H221.256V138.256H222.597V132.506C222.597 129.733 220.484 129.415 219.37 129.415C218.052 129.415 216.552 129.869 215.87 131.46L217.143 131.915C217.438 131.279 218.137 130.597 219.415 130.597C220.648 130.597 221.256 131.25 221.256 132.369V132.415C221.256 133.063 220.597 133.006 219.006 133.21C217.387 133.421 215.62 133.779 215.62 135.779C215.62 137.483 216.938 138.46 218.597 138.46ZM218.802 137.256C217.734 137.256 216.961 136.779 216.961 135.847C216.961 134.824 217.893 134.506 218.938 134.369C219.506 134.301 221.029 134.142 221.256 133.869V135.097C221.256 136.188 220.393 137.256 218.802 137.256ZM228.59 138.438C230.522 138.438 231.795 137.256 232.022 135.71H230.681C230.431 136.665 229.636 137.233 228.59 137.233C226.999 137.233 225.976 135.915 225.976 133.892C225.976 131.915 227.022 130.619 228.59 130.619C229.772 130.619 230.476 131.347 230.681 132.142H232.022C231.795 130.506 230.408 129.415 228.567 129.415C226.204 129.415 224.636 131.279 224.636 133.938C224.636 136.551 226.136 138.438 228.59 138.438ZM237.778 129.529H235.914V127.438H234.573V129.529H233.255V130.665H234.573V136.119C234.573 137.642 235.8 138.369 236.937 138.369C237.437 138.369 237.755 138.279 237.937 138.21L237.664 137.006C237.55 137.029 237.369 137.074 237.073 137.074C236.482 137.074 235.914 136.892 235.914 135.756V130.665H237.778V129.529ZM239.795 138.256H241.136V129.529H239.795V138.256ZM240.476 128.074C240.999 128.074 241.431 127.665 241.431 127.165C241.431 126.665 240.999 126.256 240.476 126.256C239.954 126.256 239.522 126.665 239.522 127.165C239.522 127.665 239.954 128.074 240.476 128.074ZM250.728 129.529H249.273L246.864 136.483H246.773L244.364 129.529H242.91L246.137 138.256H247.501L250.728 129.529ZM255.844 138.438C257.617 138.438 258.913 137.551 259.322 136.233L258.026 135.869C257.685 136.779 256.896 137.233 255.844 137.233C254.271 137.233 253.185 136.216 253.123 134.347H259.458V133.779C259.458 130.529 257.526 129.415 255.708 129.415C253.344 129.415 251.776 131.279 251.776 133.96C251.776 136.642 253.322 138.438 255.844 138.438ZM253.123 133.188C253.214 131.83 254.174 130.619 255.708 130.619C257.163 130.619 258.094 131.71 258.094 133.188H253.123ZM265.998 141.529H267.339V136.915H267.452C267.748 137.392 268.316 138.438 269.998 138.438C272.18 138.438 273.702 136.688 273.702 133.915C273.702 131.165 272.18 129.415 269.975 129.415C268.271 129.415 267.748 130.46 267.452 130.915H267.293V129.529H265.998V141.529ZM267.316 133.892C267.316 131.938 268.18 130.619 269.816 130.619C271.521 130.619 272.361 132.051 272.361 133.892C272.361 135.756 271.498 137.233 269.816 137.233C268.202 137.233 267.316 135.869 267.316 133.892ZM275.748 138.256H277.089V132.733C277.089 131.551 278.021 130.688 279.293 130.688C279.651 130.688 280.021 130.756 280.111 130.779V129.415C279.958 129.404 279.606 129.392 279.407 129.392C278.361 129.392 277.452 129.983 277.134 130.847H277.043V129.529H275.748V138.256ZM284.981 138.438C287.344 138.438 288.935 136.642 288.935 133.938C288.935 131.21 287.344 129.415 284.981 129.415C282.617 129.415 281.026 131.21 281.026 133.938C281.026 136.642 282.617 138.438 284.981 138.438ZM284.981 137.233C283.185 137.233 282.367 135.688 282.367 133.938C282.367 132.188 283.185 130.619 284.981 130.619C286.776 130.619 287.594 132.188 287.594 133.938C287.594 135.688 286.776 137.233 284.981 137.233ZM290.982 141.529H292.323V136.915H292.437C292.732 137.392 293.3 138.438 294.982 138.438C297.164 138.438 298.687 136.688 298.687 133.915C298.687 131.165 297.164 129.415 294.959 129.415C293.255 129.415 292.732 130.46 292.437 130.915H292.278V129.529H290.982V141.529ZM292.3 133.892C292.3 131.938 293.164 130.619 294.8 130.619C296.505 130.619 297.346 132.051 297.346 133.892C297.346 135.756 296.482 137.233 294.8 137.233C293.187 137.233 292.3 135.869 292.3 133.892ZM304.391 138.438C306.164 138.438 307.459 137.551 307.869 136.233L306.573 135.869C306.232 136.779 305.442 137.233 304.391 137.233C302.817 137.233 301.732 136.216 301.67 134.347H308.005V133.779C308.005 130.529 306.073 129.415 304.255 129.415C301.891 129.415 300.323 131.279 300.323 133.96C300.323 136.642 301.869 138.438 304.391 138.438ZM301.67 133.188C301.761 131.83 302.721 130.619 304.255 130.619C305.709 130.619 306.641 131.71 306.641 133.188H301.67ZM310.045 138.256H311.386V132.733C311.386 131.551 312.317 130.688 313.59 130.688C313.948 130.688 314.317 130.756 314.408 130.779V129.415C314.255 129.404 313.903 129.392 313.704 129.392C312.658 129.392 311.749 129.983 311.431 130.847H311.34V129.529H310.045V138.256ZM320.34 129.529H318.476V127.438H317.136V129.529H315.817V130.665H317.136V136.119C317.136 137.642 318.363 138.369 319.499 138.369C319.999 138.369 320.317 138.279 320.499 138.21L320.226 137.006C320.113 137.029 319.931 137.074 319.636 137.074C319.045 137.074 318.476 136.892 318.476 135.756V130.665H320.34V129.529ZM322.357 138.256H323.698V129.529H322.357V138.256ZM323.039 128.074C323.562 128.074 323.994 127.665 323.994 127.165C323.994 126.665 323.562 126.256 323.039 126.256C322.516 126.256 322.084 126.665 322.084 127.165C322.084 127.665 322.516 128.074 323.039 128.074ZM329.813 138.438C331.586 138.438 332.881 137.551 333.29 136.233L331.995 135.869C331.654 136.779 330.864 137.233 329.813 137.233C328.239 137.233 327.154 136.216 327.092 134.347H333.427V133.779C333.427 130.529 331.495 129.415 329.677 129.415C327.313 129.415 325.745 131.279 325.745 133.96C325.745 136.642 327.29 138.438 329.813 138.438ZM327.092 133.188C327.182 131.83 328.143 130.619 329.677 130.619C331.131 130.619 332.063 131.71 332.063 133.188H327.092ZM341.648 131.483C341.228 130.244 340.285 129.415 338.557 129.415C336.717 129.415 335.353 130.46 335.353 131.938C335.353 133.142 336.069 133.949 337.671 134.324L339.126 134.665C340.006 134.869 340.421 135.29 340.421 135.892C340.421 136.642 339.626 137.256 338.376 137.256C337.279 137.256 336.592 136.784 336.353 135.847L335.08 136.165C335.393 137.648 336.614 138.438 338.398 138.438C340.427 138.438 341.807 137.33 341.807 135.824C341.807 134.608 341.046 133.841 339.489 133.46L338.194 133.142C337.16 132.887 336.694 132.54 336.694 131.869C336.694 131.119 337.489 130.574 338.557 130.574C339.728 130.574 340.211 131.222 340.444 131.824L341.648 131.483ZM348.326 138.256H349.667V129.529H348.326V138.256ZM349.008 128.074C349.53 128.074 349.962 127.665 349.962 127.165C349.962 126.665 349.53 126.256 349.008 126.256C348.485 126.256 348.053 126.665 348.053 127.165C348.053 127.665 348.485 128.074 349.008 128.074ZM353.464 133.006C353.464 131.483 354.407 130.619 355.691 130.619C356.935 130.619 357.691 131.432 357.691 132.801V138.256H359.032V132.71C359.032 130.483 357.844 129.415 356.077 129.415C354.759 129.415 353.941 130.006 353.532 130.892H353.418V129.529H352.123V138.256H353.464V133.006ZM361.482 138.256H362.823V129.529H361.482V138.256ZM362.164 128.074C362.687 128.074 363.119 127.665 363.119 127.165C363.119 126.665 362.687 126.256 362.164 126.256C361.641 126.256 361.209 126.665 361.209 127.165C361.209 127.665 361.641 128.074 362.164 128.074ZM369.074 129.529H367.211V127.438H365.87V129.529H364.552V130.665H365.87V136.119C365.87 137.642 367.097 138.369 368.234 138.369C368.734 138.369 369.052 138.279 369.234 138.21L368.961 137.006C368.847 137.029 368.665 137.074 368.37 137.074C367.779 137.074 367.211 136.892 367.211 135.756V130.665H369.074V129.529ZM371.092 138.256H372.432V129.529H371.092V138.256ZM371.773 128.074C372.296 128.074 372.728 127.665 372.728 127.165C372.728 126.665 372.296 126.256 371.773 126.256C371.251 126.256 370.819 126.665 370.819 127.165C370.819 127.665 371.251 128.074 371.773 128.074ZM377.457 138.46C378.979 138.46 379.775 137.642 380.047 137.074H380.116V138.256H381.457V132.506C381.457 129.733 379.343 129.415 378.229 129.415C376.911 129.415 375.411 129.869 374.729 131.46L376.002 131.915C376.297 131.279 376.996 130.597 378.275 130.597C379.508 130.597 380.116 131.25 380.116 132.369V132.415C380.116 133.063 379.457 133.006 377.866 133.21C376.246 133.421 374.479 133.779 374.479 135.779C374.479 137.483 375.797 138.46 377.457 138.46ZM377.661 137.256C376.593 137.256 375.82 136.779 375.82 135.847C375.82 134.824 376.752 134.506 377.797 134.369C378.366 134.301 379.888 134.142 380.116 133.869V135.097C380.116 136.188 379.252 137.256 377.661 137.256ZM385.245 126.619H383.904V138.256H385.245V126.619ZM387.701 138.256H389.042V129.529H387.701V138.256ZM388.383 128.074C388.905 128.074 389.337 127.665 389.337 127.165C389.337 126.665 388.905 126.256 388.383 126.256C387.86 126.256 387.428 126.665 387.428 127.165C387.428 127.665 387.86 128.074 388.383 128.074ZM391.248 138.256H398.089V137.006H393.111V136.915L397.93 130.597V129.529H391.407V130.779H396.202V130.869L391.248 137.233V138.256ZM403.563 138.438C405.336 138.438 406.631 137.551 407.04 136.233L405.745 135.869C405.404 136.779 404.614 137.233 403.563 137.233C401.989 137.233 400.904 136.216 400.842 134.347H407.177V133.779C407.177 130.529 405.245 129.415 403.427 129.415C401.063 129.415 399.495 131.279 399.495 133.96C399.495 136.642 401.04 138.438 403.563 138.438ZM400.842 133.188C400.932 131.83 401.893 130.619 403.427 130.619C404.881 130.619 405.813 131.71 405.813 133.188H400.842ZM412.512 138.438C414.194 138.438 414.762 137.392 415.057 136.915H415.217V138.256H416.512V126.619H415.171V130.915H415.057C414.762 130.46 414.239 129.415 412.535 129.415C410.33 129.415 408.807 131.165 408.807 133.915C408.807 136.688 410.33 138.438 412.512 138.438ZM412.694 137.233C411.012 137.233 410.148 135.756 410.148 133.892C410.148 132.051 410.989 130.619 412.694 130.619C414.33 130.619 415.194 131.938 415.194 133.892C415.194 135.869 414.307 137.233 412.694 137.233Z" fill="#C3C3C3"/>
<path d="M301.548 331.745H305.207V342.132H306.616V331.745H310.275V330.495H301.548V331.745ZM314.661 342.314C316.434 342.314 317.729 341.427 318.139 340.109L316.843 339.745C316.502 340.655 315.712 341.109 314.661 341.109C313.087 341.109 312.002 340.092 311.94 338.223H318.275V337.655C318.275 334.405 316.343 333.291 314.525 333.291C312.161 333.291 310.593 335.155 310.593 337.836C310.593 340.518 312.139 342.314 314.661 342.314ZM311.94 337.064C312.031 335.706 312.991 334.495 314.525 334.495C315.979 334.495 316.911 335.586 316.911 337.064H311.94ZM320.315 342.132H321.656V336.677C321.656 335.399 322.587 334.495 323.633 334.495C324.65 334.495 325.36 335.16 325.36 336.155V342.132H326.724V336.45C326.724 335.325 327.428 334.495 328.656 334.495C329.61 334.495 330.428 335.001 330.428 336.291V342.132H331.769V336.291C331.769 334.24 330.667 333.291 329.11 333.291C327.86 333.291 326.945 333.865 326.496 334.768H326.406C325.974 333.836 325.212 333.291 324.065 333.291C322.928 333.291 322.087 333.836 321.724 334.768H321.61V333.405H320.315V342.132ZM334.221 345.405H335.562V340.791H335.675C335.971 341.268 336.539 342.314 338.221 342.314C340.403 342.314 341.925 340.564 341.925 337.791C341.925 335.041 340.403 333.291 338.198 333.291C336.494 333.291 335.971 334.336 335.675 334.791H335.516V333.405H334.221V345.405ZM335.539 337.768C335.539 335.814 336.403 334.495 338.039 334.495C339.744 334.495 340.585 335.927 340.585 337.768C340.585 339.632 339.721 341.109 338.039 341.109C336.425 341.109 335.539 339.745 335.539 337.768ZM345.312 330.495H343.971V342.132H345.312V330.495ZM350.336 342.336C351.859 342.336 352.654 341.518 352.927 340.95H352.995V342.132H354.336V336.382C354.336 333.609 352.222 333.291 351.109 333.291C349.791 333.291 348.291 333.745 347.609 335.336L348.881 335.791C349.177 335.155 349.876 334.473 351.154 334.473C352.387 334.473 352.995 335.126 352.995 336.245V336.291C352.995 336.939 352.336 336.882 350.745 337.086C349.126 337.297 347.359 337.655 347.359 339.655C347.359 341.359 348.677 342.336 350.336 342.336ZM350.541 341.132C349.472 341.132 348.7 340.655 348.7 339.723C348.7 338.7 349.631 338.382 350.677 338.245C351.245 338.177 352.768 338.018 352.995 337.745V338.973C352.995 340.064 352.131 341.132 350.541 341.132ZM360.579 333.405H358.715V331.314H357.374V333.405H356.056V334.541H357.374V339.995C357.374 341.518 358.602 342.245 359.738 342.245C360.238 342.245 360.556 342.155 360.738 342.086L360.465 340.882C360.352 340.905 360.17 340.95 359.874 340.95C359.283 340.95 358.715 340.768 358.715 339.632V334.541H360.579V333.405ZM366.161 342.314C367.934 342.314 369.229 341.427 369.639 340.109L368.343 339.745C368.002 340.655 367.212 341.109 366.161 341.109C364.587 341.109 363.502 340.092 363.44 338.223H369.775V337.655C369.775 334.405 367.843 333.291 366.025 333.291C363.661 333.291 362.093 335.155 362.093 337.836C362.093 340.518 363.639 342.314 366.161 342.314ZM363.44 337.064C363.531 335.706 364.491 334.495 366.025 334.495C367.479 334.495 368.411 335.586 368.411 337.064H363.44ZM376.315 342.132H377.656V336.609C377.656 335.427 378.587 334.564 379.86 334.564C380.218 334.564 380.587 334.632 380.678 334.655V333.291C380.525 333.28 380.173 333.268 379.974 333.268C378.928 333.268 378.019 333.859 377.701 334.723H377.61V333.405H376.315V342.132ZM385.661 342.314C387.434 342.314 388.729 341.427 389.139 340.109L387.843 339.745C387.502 340.655 386.712 341.109 385.661 341.109C384.087 341.109 383.002 340.092 382.94 338.223H389.275V337.655C389.275 334.405 387.343 333.291 385.525 333.291C383.161 333.291 381.593 335.155 381.593 337.836C381.593 340.518 383.139 342.314 385.661 342.314ZM382.94 337.064C383.031 335.706 383.991 334.495 385.525 334.495C386.979 334.495 387.911 335.586 387.911 337.064H382.94ZM392.656 336.882C392.656 335.359 393.599 334.495 394.883 334.495C396.127 334.495 396.883 335.308 396.883 336.677V342.132H398.224V336.586C398.224 334.359 397.036 333.291 395.269 333.291C393.951 333.291 393.133 333.882 392.724 334.768H392.61V333.405H391.315V342.132H392.656V336.882ZM403.97 342.314C405.651 342.314 406.22 341.268 406.515 340.791H406.674V342.132H407.97V330.495H406.629V334.791H406.515C406.22 334.336 405.697 333.291 403.992 333.291C401.788 333.291 400.265 335.041 400.265 337.791C400.265 340.564 401.788 342.314 403.97 342.314ZM404.151 341.109C402.47 341.109 401.606 339.632 401.606 337.768C401.606 335.927 402.447 334.495 404.151 334.495C405.788 334.495 406.651 335.814 406.651 337.768C406.651 339.745 405.765 341.109 404.151 341.109ZM414.271 342.314C416.043 342.314 417.339 341.427 417.748 340.109L416.452 339.745C416.112 340.655 415.322 341.109 414.271 341.109C412.697 341.109 411.612 340.092 411.549 338.223H417.884V337.655C417.884 334.405 415.952 333.291 414.134 333.291C411.771 333.291 410.202 335.155 410.202 337.836C410.202 340.518 411.748 342.314 414.271 342.314ZM411.549 337.064C411.64 335.706 412.6 334.495 414.134 334.495C415.589 334.495 416.521 335.586 416.521 337.064H411.549ZM419.924 342.132H421.265V336.609C421.265 335.427 422.197 334.564 423.47 334.564C423.827 334.564 424.197 334.632 424.288 334.655V333.291C424.134 333.28 423.782 333.268 423.583 333.268C422.538 333.268 421.629 333.859 421.31 334.723H421.22V333.405H419.924V342.132ZM429.271 342.314C431.043 342.314 432.339 341.427 432.748 340.109L431.452 339.745C431.112 340.655 430.322 341.109 429.271 341.109C427.697 341.109 426.612 340.092 426.549 338.223H432.884V337.655C432.884 334.405 430.952 333.291 429.134 333.291C426.771 333.291 425.202 335.155 425.202 337.836C425.202 340.518 426.748 342.314 429.271 342.314ZM426.549 337.064C426.64 335.706 427.6 334.495 429.134 334.495C430.589 334.495 431.521 335.586 431.521 337.064H426.549ZM438.22 342.314C439.901 342.314 440.47 341.268 440.765 340.791H440.924V342.132H442.22V330.495H440.879V334.791H440.765C440.47 334.336 439.947 333.291 438.242 333.291C436.038 333.291 434.515 335.041 434.515 337.791C434.515 340.564 436.038 342.314 438.22 342.314ZM438.401 341.109C436.72 341.109 435.856 339.632 435.856 337.768C435.856 335.927 436.697 334.495 438.401 334.495C440.038 334.495 440.901 335.814 440.901 337.768C440.901 339.745 440.015 341.109 438.401 341.109Z" fill="#C3C3C3"/>
<path d="M302.184 235.93H303.593V231.385H306.139C306.241 231.385 306.337 231.385 306.434 231.379L308.889 235.93H310.525L307.894 231.123C309.377 230.618 310.07 229.407 310.07 227.862C310.07 225.805 308.843 224.294 306.116 224.294H302.184V235.93ZM303.593 230.112V225.544H306.07C307.957 225.544 308.684 226.464 308.684 227.862C308.684 229.26 307.957 230.112 306.093 230.112H303.593ZM315.802 236.112C317.575 236.112 318.87 235.226 319.279 233.907L317.984 233.544C317.643 234.453 316.853 234.907 315.802 234.907C314.228 234.907 313.143 233.89 313.08 232.021H319.416V231.453C319.416 228.203 317.484 227.089 315.666 227.089C313.302 227.089 311.734 228.953 311.734 231.635C311.734 234.317 313.279 236.112 315.802 236.112ZM313.08 230.862C313.171 229.504 314.131 228.294 315.666 228.294C317.12 228.294 318.052 229.385 318.052 230.862H313.08ZM324.023 236.135C325.546 236.135 326.342 235.317 326.614 234.748H326.683V235.93H328.023V230.18C328.023 227.407 325.91 227.089 324.796 227.089C323.478 227.089 321.978 227.544 321.296 229.135L322.569 229.589C322.864 228.953 323.563 228.271 324.842 228.271C326.075 228.271 326.683 228.924 326.683 230.044V230.089C326.683 230.737 326.023 230.68 324.433 230.885C322.813 231.095 321.046 231.453 321.046 233.453C321.046 235.157 322.364 236.135 324.023 236.135ZM324.228 234.93C323.16 234.93 322.387 234.453 322.387 233.521C322.387 232.498 323.319 232.18 324.364 232.044C324.933 231.976 326.455 231.817 326.683 231.544V232.771C326.683 233.862 325.819 234.93 324.228 234.93ZM334.016 236.112C335.948 236.112 337.221 234.93 337.448 233.385H336.107C335.857 234.339 335.062 234.907 334.016 234.907C332.425 234.907 331.403 233.589 331.403 231.567C331.403 229.589 332.448 228.294 334.016 228.294C335.198 228.294 335.903 229.021 336.107 229.817H337.448C337.221 228.18 335.835 227.089 333.994 227.089C331.63 227.089 330.062 228.953 330.062 231.612C330.062 234.226 331.562 236.112 334.016 236.112ZM343.204 227.203H341.34V225.112H339.999V227.203H338.681V228.339H339.999V233.794C339.999 235.317 341.227 236.044 342.363 236.044C342.863 236.044 343.181 235.953 343.363 235.885L343.09 234.68C342.977 234.703 342.795 234.748 342.499 234.748C341.908 234.748 341.34 234.567 341.34 233.43V228.339H343.204V227.203ZM345.221 235.93H346.562V227.203H345.221V235.93ZM345.903 225.748C346.425 225.748 346.857 225.339 346.857 224.839C346.857 224.339 346.425 223.93 345.903 223.93C345.38 223.93 344.948 224.339 344.948 224.839C344.948 225.339 345.38 225.748 345.903 225.748ZM356.154 227.203H354.7L352.291 234.157H352.2L349.791 227.203H348.336L351.563 235.93H352.927L356.154 227.203ZM361.271 236.112C363.043 236.112 364.339 235.226 364.748 233.907L363.452 233.544C363.112 234.453 362.322 234.907 361.271 234.907C359.697 234.907 358.612 233.89 358.549 232.021H364.884V231.453C364.884 228.203 362.952 227.089 361.134 227.089C358.771 227.089 357.202 228.953 357.202 231.635C357.202 234.317 358.748 236.112 361.271 236.112ZM358.549 230.862C358.64 229.504 359.6 228.294 361.134 228.294C362.589 228.294 363.521 229.385 363.521 230.862H358.549ZM371.424 239.203H372.765V234.589H372.879C373.174 235.067 373.742 236.112 375.424 236.112C377.606 236.112 379.129 234.362 379.129 231.589C379.129 228.839 377.606 227.089 375.401 227.089C373.697 227.089 373.174 228.135 372.879 228.589H372.72V227.203H371.424V239.203ZM372.742 231.567C372.742 229.612 373.606 228.294 375.242 228.294C376.947 228.294 377.788 229.726 377.788 231.567C377.788 233.43 376.924 234.907 375.242 234.907C373.629 234.907 372.742 233.544 372.742 231.567ZM381.174 235.93H382.515V230.407C382.515 229.226 383.447 228.362 384.72 228.362C385.077 228.362 385.447 228.43 385.538 228.453V227.089C385.384 227.078 385.032 227.067 384.833 227.067C383.788 227.067 382.879 227.657 382.56 228.521H382.47V227.203H381.174V235.93ZM390.407 236.112C392.771 236.112 394.362 234.317 394.362 231.612C394.362 228.885 392.771 227.089 390.407 227.089C388.043 227.089 386.452 228.885 386.452 231.612C386.452 234.317 388.043 236.112 390.407 236.112ZM390.407 234.907C388.612 234.907 387.793 233.362 387.793 231.612C387.793 229.862 388.612 228.294 390.407 228.294C392.202 228.294 393.021 229.862 393.021 231.612C393.021 233.362 392.202 234.907 390.407 234.907ZM396.408 239.203H397.749V234.589H397.863C398.158 235.067 398.727 236.112 400.408 236.112C402.59 236.112 404.113 234.362 404.113 231.589C404.113 228.839 402.59 227.089 400.386 227.089C398.681 227.089 398.158 228.135 397.863 228.589H397.704V227.203H396.408V239.203ZM397.727 231.567C397.727 229.612 398.59 228.294 400.227 228.294C401.931 228.294 402.772 229.726 402.772 231.567C402.772 233.43 401.908 234.907 400.227 234.907C398.613 234.907 397.727 233.544 397.727 231.567ZM409.818 236.112C411.59 236.112 412.886 235.226 413.295 233.907L411.999 233.544C411.658 234.453 410.869 234.907 409.818 234.907C408.244 234.907 407.158 233.89 407.096 232.021H413.431V231.453C413.431 228.203 411.499 227.089 409.681 227.089C407.318 227.089 405.749 228.953 405.749 231.635C405.749 234.317 407.295 236.112 409.818 236.112ZM407.096 230.862C407.187 229.504 408.147 228.294 409.681 228.294C411.136 228.294 412.068 229.385 412.068 230.862H407.096ZM415.471 235.93H416.812V230.407C416.812 229.226 417.744 228.362 419.016 228.362C419.374 228.362 419.744 228.43 419.835 228.453V227.089C419.681 227.078 419.329 227.067 419.13 227.067C418.085 227.067 417.175 227.657 416.857 228.521H416.766V227.203H415.471V235.93ZM425.766 227.203H423.903V225.112H422.562V227.203H421.244V228.339H422.562V233.794C422.562 235.317 423.789 236.044 424.925 236.044C425.425 236.044 425.744 235.953 425.925 235.885L425.653 234.68C425.539 234.703 425.357 234.748 425.062 234.748C424.471 234.748 423.903 234.567 423.903 233.43V228.339H425.766V227.203ZM428.647 239.203C429.857 239.203 430.71 238.561 431.215 237.203L434.931 227.226L433.465 227.203L431.056 234.157H430.965L428.556 227.203H427.102L430.329 235.976L430.079 236.657C429.59 237.987 428.988 238.112 428.011 237.862L427.67 239.044C427.806 239.112 428.193 239.203 428.647 239.203ZM444.751 236.112C446.683 236.112 447.955 234.93 448.183 233.385H446.842C446.592 234.339 445.796 234.907 444.751 234.907C443.16 234.907 442.137 233.589 442.137 231.567C442.137 229.589 443.183 228.294 444.751 228.294C445.933 228.294 446.637 229.021 446.842 229.817H448.183C447.955 228.18 446.569 227.089 444.728 227.089C442.364 227.089 440.796 228.953 440.796 231.612C440.796 234.226 442.296 236.112 444.751 236.112ZM451.484 230.68C451.484 229.157 452.455 228.294 453.779 228.294C455.041 228.294 455.802 229.089 455.802 230.476V235.93H457.143V230.385C457.143 228.14 455.95 227.089 454.166 227.089C452.791 227.089 452.006 227.663 451.597 228.567H451.484V224.294H450.143V235.93H451.484V230.68ZM462.164 236.135C463.687 236.135 464.482 235.317 464.755 234.748H464.823V235.93H466.164V230.18C466.164 227.407 464.05 227.089 462.937 227.089C461.619 227.089 460.119 227.544 459.437 229.135L460.71 229.589C461.005 228.953 461.704 228.271 462.982 228.271C464.215 228.271 464.823 228.924 464.823 230.044V230.089C464.823 230.737 464.164 230.68 462.573 230.885C460.954 231.095 459.187 231.453 459.187 233.453C459.187 235.157 460.505 236.135 462.164 236.135ZM462.369 234.93C461.3 234.93 460.528 234.453 460.528 233.521C460.528 232.498 461.46 232.18 462.505 232.044C463.073 231.976 464.596 231.817 464.823 231.544V232.771C464.823 233.862 463.96 234.93 462.369 234.93ZM469.952 230.68C469.952 229.157 470.896 228.294 472.18 228.294C473.424 228.294 474.18 229.106 474.18 230.476V235.93H475.521V230.385C475.521 228.157 474.333 227.089 472.566 227.089C471.248 227.089 470.43 227.68 470.021 228.567H469.907V227.203H468.612V235.93H469.952V230.68ZM481.494 239.385C483.585 239.385 485.266 238.43 485.266 236.18V227.203H483.971V228.589H483.835C483.539 228.135 482.994 227.089 481.289 227.089C479.085 227.089 477.562 228.839 477.562 231.521C477.562 234.248 479.153 235.794 481.266 235.794C482.971 235.794 483.516 234.794 483.812 234.317H483.925V236.089C483.925 237.544 482.903 238.203 481.494 238.203C479.908 238.203 479.352 237.368 478.994 236.885L477.925 237.635C478.471 238.549 479.545 239.385 481.494 239.385ZM481.448 234.589C479.766 234.589 478.903 233.317 478.903 231.498C478.903 229.726 479.744 228.294 481.448 228.294C483.085 228.294 483.948 229.612 483.948 231.498C483.948 233.43 483.062 234.589 481.448 234.589ZM491.38 236.112C493.153 236.112 494.448 235.226 494.857 233.907L493.562 233.544C493.221 234.453 492.431 234.907 491.38 234.907C489.806 234.907 488.721 233.89 488.658 232.021H494.994V231.453C494.994 228.203 493.062 227.089 491.244 227.089C488.88 227.089 487.312 228.953 487.312 231.635C487.312 234.317 488.857 236.112 491.38 236.112ZM488.658 230.862C488.749 229.504 489.71 228.294 491.244 228.294C492.698 228.294 493.63 229.385 493.63 230.862H488.658ZM500.329 236.112C502.011 236.112 502.579 235.067 502.874 234.589H503.033V235.93H504.329V224.294H502.988V228.589H502.874C502.579 228.135 502.056 227.089 500.352 227.089C498.147 227.089 496.624 228.839 496.624 231.589C496.624 234.362 498.147 236.112 500.329 236.112ZM500.511 234.907C498.829 234.907 497.965 233.43 497.965 231.567C497.965 229.726 498.806 228.294 500.511 228.294C502.147 228.294 503.011 229.612 503.011 231.567C503.011 233.544 502.124 234.907 500.511 234.907Z" fill="#C3C3C3"/>
<path d="M302.184 371.589H309.298V370.339H303.593V366.385H308.843V365.135H303.593V361.203H309.207V359.953H302.184V371.589ZM318.701 362.862H317.246L314.837 369.816H314.746L312.337 362.862H310.883L314.11 371.589H315.474L318.701 362.862ZM323.818 371.771C325.59 371.771 326.886 370.885 327.295 369.566L325.999 369.203C325.658 370.112 324.869 370.566 323.818 370.566C322.244 370.566 321.158 369.549 321.096 367.68H327.431V367.112C327.431 363.862 325.499 362.748 323.681 362.748C321.318 362.748 319.749 364.612 319.749 367.294C319.749 369.975 321.295 371.771 323.818 371.771ZM321.096 366.521C321.187 365.163 322.147 363.953 323.681 363.953C325.136 363.953 326.068 365.044 326.068 366.521H321.096ZM330.812 366.339C330.812 364.816 331.755 363.953 333.039 363.953C334.283 363.953 335.039 364.765 335.039 366.135V371.589H336.38V366.044C336.38 363.816 335.193 362.748 333.425 362.748C332.107 362.748 331.289 363.339 330.88 364.225H330.766V362.862H329.471V371.589H330.812V366.339ZM342.626 362.862H340.762V360.771H339.421V362.862H338.103V363.998H339.421V369.453C339.421 370.975 340.648 371.703 341.785 371.703C342.285 371.703 342.603 371.612 342.785 371.544L342.512 370.339C342.398 370.362 342.217 370.407 341.921 370.407C341.33 370.407 340.762 370.225 340.762 369.089V363.998H342.626V362.862ZM349.325 371.589H356.143V370.339H350.734V359.953H349.325V371.589ZM358.143 371.589H359.484V362.862H358.143V371.589ZM358.825 361.407C359.347 361.407 359.779 360.998 359.779 360.498C359.779 359.998 359.347 359.589 358.825 359.589C358.302 359.589 357.87 359.998 357.87 360.498C357.87 360.998 358.302 361.407 358.825 361.407ZM368.121 364.816C367.701 363.578 366.758 362.748 365.031 362.748C363.19 362.748 361.826 363.794 361.826 365.271C361.826 366.475 362.542 367.282 364.144 367.657L365.599 367.998C366.479 368.203 366.894 368.623 366.894 369.225C366.894 369.975 366.099 370.589 364.849 370.589C363.752 370.589 363.065 370.118 362.826 369.18L361.553 369.498C361.866 370.981 363.087 371.771 364.871 371.771C366.9 371.771 368.281 370.663 368.281 369.157C368.281 367.941 367.519 367.174 365.962 366.794L364.667 366.475C363.633 366.22 363.167 365.873 363.167 365.203C363.167 364.453 363.962 363.907 365.031 363.907C366.201 363.907 366.684 364.555 366.917 365.157L368.121 364.816ZM374.095 362.862H372.231V360.771H370.89V362.862H369.572V363.998H370.89V369.453C370.89 370.975 372.117 371.703 373.254 371.703C373.754 371.703 374.072 371.612 374.254 371.544L373.981 370.339C373.867 370.362 373.685 370.407 373.39 370.407C372.799 370.407 372.231 370.225 372.231 369.089V363.998H374.095V362.862ZM379.677 371.771C381.45 371.771 382.745 370.885 383.154 369.566L381.859 369.203C381.518 370.112 380.728 370.566 379.677 370.566C378.103 370.566 377.018 369.549 376.955 367.68H383.291V367.112C383.291 363.862 381.359 362.748 379.541 362.748C377.177 362.748 375.609 364.612 375.609 367.294C375.609 369.975 377.154 371.771 379.677 371.771ZM376.955 366.521C377.046 365.163 378.006 363.953 379.541 363.953C380.995 363.953 381.927 365.044 381.927 366.521H376.955ZM386.671 366.339C386.671 364.816 387.614 363.953 388.898 363.953C390.143 363.953 390.898 364.765 390.898 366.135V371.589H392.239V366.044C392.239 363.816 391.052 362.748 389.285 362.748C387.967 362.748 387.148 363.339 386.739 364.225H386.626V362.862H385.33V371.589H386.671V366.339ZM398.349 371.771C400.121 371.771 401.417 370.885 401.826 369.566L400.531 369.203C400.19 370.112 399.4 370.566 398.349 370.566C396.775 370.566 395.69 369.549 395.627 367.68H401.962V367.112C401.962 363.862 400.031 362.748 398.212 362.748C395.849 362.748 394.281 364.612 394.281 367.294C394.281 369.975 395.826 371.771 398.349 371.771ZM395.627 366.521C395.718 365.163 396.678 363.953 398.212 363.953C399.667 363.953 400.599 365.044 400.599 366.521H395.627ZM404.002 371.589H405.343V366.066C405.343 364.885 406.275 364.021 407.548 364.021C407.906 364.021 408.275 364.089 408.366 364.112V362.748C408.212 362.737 407.86 362.725 407.661 362.725C406.616 362.725 405.707 363.316 405.389 364.18H405.298V362.862H404.002V371.589ZM416.137 364.816C415.717 363.578 414.773 362.748 413.046 362.748C411.205 362.748 409.842 363.794 409.842 365.271C409.842 366.475 410.558 367.282 412.16 367.657L413.614 367.998C414.495 368.203 414.91 368.623 414.91 369.225C414.91 369.975 414.114 370.589 412.864 370.589C411.768 370.589 411.08 370.118 410.842 369.18L409.569 369.498C409.881 370.981 411.103 371.771 412.887 371.771C414.916 371.771 416.296 370.663 416.296 369.157C416.296 367.941 415.535 367.174 413.978 366.794L412.683 366.475C411.648 366.22 411.183 365.873 411.183 365.203C411.183 364.453 411.978 363.907 413.046 363.907C414.217 363.907 414.7 364.555 414.933 365.157L416.137 364.816ZM425.383 371.794C426.906 371.794 427.701 370.975 427.974 370.407H428.042V371.589H429.383V365.839C429.383 363.066 427.269 362.748 426.156 362.748C424.837 362.748 423.337 363.203 422.656 364.794L423.928 365.248C424.224 364.612 424.923 363.93 426.201 363.93C427.434 363.93 428.042 364.583 428.042 365.703V365.748C428.042 366.396 427.383 366.339 425.792 366.544C424.173 366.754 422.406 367.112 422.406 369.112C422.406 370.816 423.724 371.794 425.383 371.794ZM425.587 370.589C424.519 370.589 423.746 370.112 423.746 369.18C423.746 368.157 424.678 367.839 425.724 367.703C426.292 367.635 427.815 367.475 428.042 367.203V368.43C428.042 369.521 427.178 370.589 425.587 370.589ZM435.126 371.771C436.808 371.771 437.376 370.725 437.671 370.248H437.83V371.589H439.126V359.953H437.785V364.248H437.671C437.376 363.794 436.853 362.748 435.148 362.748C432.944 362.748 431.421 364.498 431.421 367.248C431.421 370.021 432.944 371.771 435.126 371.771ZM435.308 370.566C433.626 370.566 432.762 369.089 432.762 367.225C432.762 365.385 433.603 363.953 435.308 363.953C436.944 363.953 437.808 365.271 437.808 367.225C437.808 369.203 436.921 370.566 435.308 370.566ZM445.063 371.771C446.745 371.771 447.313 370.725 447.609 370.248H447.768V371.589H449.063V359.953H447.722V364.248H447.609C447.313 363.794 446.791 362.748 445.086 362.748C442.881 362.748 441.359 364.498 441.359 367.248C441.359 370.021 442.881 371.771 445.063 371.771ZM445.245 370.566C443.563 370.566 442.7 369.089 442.7 367.225C442.7 365.385 443.541 363.953 445.245 363.953C446.881 363.953 447.745 365.271 447.745 367.225C447.745 369.203 446.859 370.566 445.245 370.566ZM455.364 371.771C457.137 371.771 458.433 370.885 458.842 369.566L457.546 369.203C457.205 370.112 456.416 370.566 455.364 370.566C453.791 370.566 452.705 369.549 452.643 367.68H458.978V367.112C458.978 363.862 457.046 362.748 455.228 362.748C452.864 362.748 451.296 364.612 451.296 367.294C451.296 369.975 452.842 371.771 455.364 371.771ZM452.643 366.521C452.734 365.163 453.694 363.953 455.228 363.953C456.683 363.953 457.614 365.044 457.614 366.521H452.643ZM464.313 371.771C465.995 371.771 466.563 370.725 466.859 370.248H467.018V371.589H468.313V359.953H466.972V364.248H466.859C466.563 363.794 466.041 362.748 464.336 362.748C462.131 362.748 460.609 364.498 460.609 367.248C460.609 370.021 462.131 371.771 464.313 371.771ZM464.495 370.566C462.813 370.566 461.95 369.089 461.95 367.225C461.95 365.385 462.791 363.953 464.495 363.953C466.131 363.953 466.995 365.271 466.995 367.225C466.995 369.203 466.109 370.566 464.495 370.566Z" fill="#C3C3C3"/>
<path d="M196.758 576.24H203.871V574.99H198.167V571.036H203.417V569.786H198.167V565.854H203.78V564.604H196.758V576.24ZM207.479 564.604H206.138V576.24H207.479V564.604ZM213.594 576.422C215.367 576.422 216.663 575.536 217.072 574.218L215.776 573.854C215.435 574.763 214.646 575.218 213.594 575.218C212.021 575.218 210.935 574.201 210.873 572.331H217.208V571.763C217.208 568.513 215.276 567.399 213.458 567.399C211.094 567.399 209.526 569.263 209.526 571.945C209.526 574.627 211.072 576.422 213.594 576.422ZM210.873 571.172C210.964 569.814 211.924 568.604 213.458 568.604C214.913 568.604 215.844 569.695 215.844 571.172H210.873ZM219.248 576.24H220.589V570.786C220.589 569.507 221.521 568.604 222.566 568.604C223.583 568.604 224.293 569.269 224.293 570.263V576.24H225.657V570.558C225.657 569.433 226.361 568.604 227.589 568.604C228.543 568.604 229.361 569.11 229.361 570.399V576.24H230.702V570.399C230.702 568.348 229.6 567.399 228.043 567.399C226.793 567.399 225.878 567.973 225.43 568.877H225.339C224.907 567.945 224.146 567.399 222.998 567.399C221.861 567.399 221.021 567.945 220.657 568.877H220.543V567.513H219.248V576.24ZM236.813 576.422C238.586 576.422 239.881 575.536 240.29 574.218L238.995 573.854C238.654 574.763 237.864 575.218 236.813 575.218C235.239 575.218 234.154 574.201 234.092 572.331H240.427V571.763C240.427 568.513 238.495 567.399 236.677 567.399C234.313 567.399 232.745 569.263 232.745 571.945C232.745 574.627 234.29 576.422 236.813 576.422ZM234.092 571.172C234.182 569.814 235.143 568.604 236.677 568.604C238.131 568.604 239.063 569.695 239.063 571.172H234.092ZM243.807 570.99C243.807 569.468 244.751 568.604 246.035 568.604C247.279 568.604 248.035 569.416 248.035 570.786V576.24H249.376V570.695C249.376 568.468 248.188 567.399 246.421 567.399C245.103 567.399 244.285 567.99 243.876 568.877H243.762V567.513H242.467V576.24H243.807V570.99ZM255.621 567.513H253.758V565.422H252.417V567.513H251.099V568.649H252.417V574.104C252.417 575.627 253.644 576.354 254.78 576.354C255.28 576.354 255.599 576.263 255.78 576.195L255.508 574.99C255.394 575.013 255.212 575.058 254.917 575.058C254.326 575.058 253.758 574.877 253.758 573.74V568.649H255.621V567.513ZM262.138 576.24H263.479V570.718C263.479 569.536 264.411 568.672 265.684 568.672C266.042 568.672 266.411 568.74 266.502 568.763V567.399C266.349 567.388 265.996 567.377 265.797 567.377C264.752 567.377 263.843 567.968 263.525 568.831H263.434V567.513H262.138V576.24ZM271.485 576.422C273.258 576.422 274.553 575.536 274.962 574.218L273.667 573.854C273.326 574.763 272.536 575.218 271.485 575.218C269.911 575.218 268.826 574.201 268.763 572.331H275.099V571.763C275.099 568.513 273.167 567.399 271.349 567.399C268.985 567.399 267.417 569.263 267.417 571.945C267.417 574.627 268.962 576.422 271.485 576.422ZM268.763 571.172C268.854 569.814 269.815 568.604 271.349 568.604C272.803 568.604 273.735 569.695 273.735 571.172H268.763ZM277.138 576.24H278.479V570.786C278.479 569.507 279.411 568.604 280.457 568.604C281.474 568.604 282.184 569.269 282.184 570.263V576.24H283.547V570.558C283.547 569.433 284.252 568.604 285.479 568.604C286.434 568.604 287.252 569.11 287.252 570.399V576.24H288.593V570.399C288.593 568.348 287.491 567.399 285.934 567.399C284.684 567.399 283.769 567.973 283.32 568.877H283.229C282.797 567.945 282.036 567.399 280.888 567.399C279.752 567.399 278.911 567.945 278.547 568.877H278.434V567.513H277.138V576.24ZM294.59 576.422C296.954 576.422 298.545 574.627 298.545 571.922C298.545 569.195 296.954 567.399 294.59 567.399C292.226 567.399 290.636 569.195 290.636 571.922C290.636 574.627 292.226 576.422 294.59 576.422ZM294.59 575.218C292.795 575.218 291.976 573.672 291.976 571.922C291.976 570.172 292.795 568.604 294.59 568.604C296.386 568.604 297.204 570.172 297.204 571.922C297.204 573.672 296.386 575.218 294.59 575.218ZM307.415 567.513H305.961L303.552 574.468H303.461L301.052 567.513H299.597L302.824 576.24H304.188L307.415 567.513ZM312.532 576.422C314.305 576.422 315.6 575.536 316.009 574.218L314.714 573.854C314.373 574.763 313.583 575.218 312.532 575.218C310.958 575.218 309.873 574.201 309.81 572.331H316.146V571.763C316.146 568.513 314.214 567.399 312.396 567.399C310.032 567.399 308.464 569.263 308.464 571.945C308.464 574.627 310.009 576.422 312.532 576.422ZM309.81 571.172C309.901 569.814 310.861 568.604 312.396 568.604C313.85 568.604 314.782 569.695 314.782 571.172H309.81ZM321.481 576.422C323.163 576.422 323.731 575.377 324.026 574.899H324.185V576.24H325.481V564.604H324.14V568.899H324.026C323.731 568.445 323.208 567.399 321.503 567.399C319.299 567.399 317.776 569.149 317.776 571.899C317.776 574.672 319.299 576.422 321.481 576.422ZM321.663 575.218C319.981 575.218 319.117 573.74 319.117 571.877C319.117 570.036 319.958 568.604 321.663 568.604C323.299 568.604 324.163 569.922 324.163 571.877C324.163 573.854 323.276 575.218 321.663 575.218ZM336.509 567.513H334.555V566.627C334.555 565.763 334.918 565.308 335.805 565.308C336.191 565.308 336.418 565.399 336.555 565.445L336.941 564.286C336.736 564.195 336.327 564.058 335.668 564.058C334.418 564.058 333.214 564.808 333.214 566.308V567.513H331.805V568.649H333.214V576.24H334.555V568.649H336.509V567.513ZM338.388 576.24H339.729V570.718C339.729 569.536 340.661 568.672 341.934 568.672C342.292 568.672 342.661 568.74 342.752 568.763V567.399C342.599 567.388 342.246 567.377 342.047 567.377C341.002 567.377 340.093 567.968 339.775 568.831H339.684V567.513H338.388V576.24ZM347.621 576.422C349.985 576.422 351.576 574.627 351.576 571.922C351.576 569.195 349.985 567.399 347.621 567.399C345.258 567.399 343.667 569.195 343.667 571.922C343.667 574.627 345.258 576.422 347.621 576.422ZM347.621 575.218C345.826 575.218 345.008 573.672 345.008 571.922C345.008 570.172 345.826 568.604 347.621 568.604C349.417 568.604 350.235 570.172 350.235 571.922C350.235 573.672 349.417 575.218 347.621 575.218ZM353.623 576.24H354.964V570.786C354.964 569.507 355.896 568.604 356.941 568.604C357.958 568.604 358.668 569.269 358.668 570.263V576.24H360.032V570.558C360.032 569.433 360.736 568.604 361.964 568.604C362.918 568.604 363.736 569.11 363.736 570.399V576.24H365.077V570.399C365.077 568.348 363.975 567.399 362.418 567.399C361.168 567.399 360.253 567.973 359.805 568.877H359.714C359.282 567.945 358.521 567.399 357.373 567.399C356.236 567.399 355.396 567.945 355.032 568.877H354.918V567.513H353.623V576.24ZM375.824 567.513H373.961V565.422H372.62V567.513H371.302V568.649H372.62V574.104C372.62 575.627 373.847 576.354 374.984 576.354C375.484 576.354 375.802 576.263 375.984 576.195L375.711 574.99C375.597 575.013 375.415 575.058 375.12 575.058C374.529 575.058 373.961 574.877 373.961 573.74V568.649H375.824V567.513ZM379.37 570.99C379.37 569.468 380.342 568.604 381.665 568.604C382.927 568.604 383.688 569.399 383.688 570.786V576.24H385.029V570.695C385.029 568.451 383.836 567.399 382.052 567.399C380.677 567.399 379.893 567.973 379.484 568.877H379.37V564.604H378.029V576.24H379.37V570.99ZM391.141 576.422C392.914 576.422 394.209 575.536 394.619 574.218L393.323 573.854C392.982 574.763 392.192 575.218 391.141 575.218C389.567 575.218 388.482 574.201 388.42 572.331H394.755V571.763C394.755 568.513 392.823 567.399 391.005 567.399C388.641 567.399 387.073 569.263 387.073 571.945C387.073 574.627 388.619 576.422 391.141 576.422ZM388.42 571.172C388.511 569.814 389.471 568.604 391.005 568.604C392.459 568.604 393.391 569.695 393.391 571.172H388.42ZM405.067 576.24C408.613 576.24 410.613 574.036 410.613 570.399C410.613 566.786 408.613 564.604 405.226 564.604H401.476V576.24H405.067ZM402.886 574.99V565.854H405.136C407.863 565.854 409.249 567.581 409.249 570.399C409.249 573.24 407.863 574.99 404.976 574.99H402.886ZM422.795 570.422C422.795 566.74 420.636 564.445 417.658 564.445C414.681 564.445 412.522 566.74 412.522 570.422C412.522 574.104 414.681 576.399 417.658 576.399C420.636 576.399 422.795 574.104 422.795 570.422ZM421.431 570.422C421.431 573.445 419.772 575.081 417.658 575.081C415.545 575.081 413.886 573.445 413.886 570.422C413.886 567.399 415.545 565.763 417.658 565.763C419.772 565.763 421.431 567.399 421.431 570.422ZM425.164 564.604V576.24H426.482V567.399H426.596L430.232 576.24H431.505L435.141 567.399H435.255V576.24H436.573V564.604H434.891L430.937 574.263H430.8L426.846 564.604H425.164Z" fill="#C3C3C3"/>
<path d="M196.758 607H203.871V605.75H198.167V601.795H203.417V600.545H198.167V596.614H203.78V595.364H196.758V607ZM213.275 598.273H211.82L209.411 605.227H209.32L206.911 598.273H205.457L208.684 607H210.047L213.275 598.273ZM218.391 607.182C220.164 607.182 221.459 606.295 221.869 604.977L220.573 604.614C220.232 605.523 219.442 605.977 218.391 605.977C216.817 605.977 215.732 604.96 215.67 603.091H222.005V602.523C222.005 599.273 220.073 598.159 218.255 598.159C215.891 598.159 214.323 600.023 214.323 602.705C214.323 605.386 215.869 607.182 218.391 607.182ZM215.67 601.932C215.761 600.574 216.721 599.364 218.255 599.364C219.709 599.364 220.641 600.455 220.641 601.932H215.67ZM225.386 601.75C225.386 600.227 226.329 599.364 227.613 599.364C228.857 599.364 229.613 600.176 229.613 601.545V607H230.954V601.455C230.954 599.227 229.766 598.159 227.999 598.159C226.681 598.159 225.863 598.75 225.454 599.636H225.34V598.273H224.045V607H225.386V601.75ZM237.199 598.273H235.336V596.182H233.995V598.273H232.677V599.409H233.995V604.864C233.995 606.386 235.222 607.114 236.359 607.114C236.859 607.114 237.177 607.023 237.359 606.955L237.086 605.75C236.972 605.773 236.79 605.818 236.495 605.818C235.904 605.818 235.336 605.636 235.336 604.5V599.409H237.199V598.273ZM243.898 607H250.717V605.75H245.307V595.364H243.898V607ZM252.717 607H254.057V598.273H252.717V607ZM253.398 596.818C253.921 596.818 254.353 596.409 254.353 595.909C254.353 595.409 253.921 595 253.398 595C252.876 595 252.444 595.409 252.444 595.909C252.444 596.409 252.876 596.818 253.398 596.818ZM262.695 600.227C262.275 598.989 261.332 598.159 259.604 598.159C257.763 598.159 256.4 599.205 256.4 600.682C256.4 601.886 257.116 602.693 258.718 603.068L260.172 603.409C261.053 603.614 261.468 604.034 261.468 604.636C261.468 605.386 260.672 606 259.422 606C258.326 606 257.638 605.528 257.4 604.591L256.127 604.909C256.44 606.392 257.661 607.182 259.445 607.182C261.474 607.182 262.854 606.074 262.854 604.568C262.854 603.352 262.093 602.585 260.536 602.205L259.241 601.886C258.207 601.631 257.741 601.284 257.741 600.614C257.741 599.864 258.536 599.318 259.604 599.318C260.775 599.318 261.258 599.966 261.491 600.568L262.695 600.227ZM268.668 598.273H266.805V596.182H265.464V598.273H264.146V599.409H265.464V604.864C265.464 606.386 266.691 607.114 267.827 607.114C268.327 607.114 268.646 607.023 268.827 606.955L268.555 605.75C268.441 605.773 268.259 605.818 267.964 605.818C267.373 605.818 266.805 605.636 266.805 604.5V599.409H268.668V598.273ZM274.251 607.182C276.023 607.182 277.319 606.295 277.728 604.977L276.432 604.614C276.092 605.523 275.302 605.977 274.251 605.977C272.677 605.977 271.592 604.96 271.529 603.091H277.864V602.523C277.864 599.273 275.932 598.159 274.114 598.159C271.751 598.159 270.182 600.023 270.182 602.705C270.182 605.386 271.728 607.182 274.251 607.182ZM271.529 601.932C271.62 600.574 272.58 599.364 274.114 599.364C275.569 599.364 276.501 600.455 276.501 601.932H271.529ZM281.245 601.75C281.245 600.227 282.188 599.364 283.472 599.364C284.717 599.364 285.472 600.176 285.472 601.545V607H286.813V601.455C286.813 599.227 285.626 598.159 283.859 598.159C282.54 598.159 281.722 598.75 281.313 599.636H281.199V598.273H279.904V607H281.245V601.75ZM292.922 607.182C294.695 607.182 295.991 606.295 296.4 604.977L295.104 604.614C294.763 605.523 293.974 605.977 292.922 605.977C291.349 605.977 290.263 604.96 290.201 603.091H296.536V602.523C296.536 599.273 294.604 598.159 292.786 598.159C290.422 598.159 288.854 600.023 288.854 602.705C288.854 605.386 290.4 607.182 292.922 607.182ZM290.201 601.932C290.292 600.574 291.252 599.364 292.786 599.364C294.241 599.364 295.172 600.455 295.172 601.932H290.201ZM298.576 607H299.917V601.477C299.917 600.295 300.849 599.432 302.121 599.432C302.479 599.432 302.849 599.5 302.94 599.523V598.159C302.786 598.148 302.434 598.136 302.235 598.136C301.19 598.136 300.28 598.727 299.962 599.591H299.871V598.273H298.576V607ZM310.711 600.227C310.29 598.989 309.347 598.159 307.62 598.159C305.779 598.159 304.415 599.205 304.415 600.682C304.415 601.886 305.131 602.693 306.734 603.068L308.188 603.409C309.069 603.614 309.484 604.034 309.484 604.636C309.484 605.386 308.688 606 307.438 606C306.342 606 305.654 605.528 305.415 604.591L304.143 604.909C304.455 606.392 305.677 607.182 307.461 607.182C309.489 607.182 310.87 606.074 310.87 604.568C310.87 603.352 310.109 602.585 308.552 602.205L307.256 601.886C306.222 601.631 305.756 601.284 305.756 600.614C305.756 599.864 306.552 599.318 307.62 599.318C308.79 599.318 309.273 599.966 309.506 600.568L310.711 600.227ZM317.388 607H318.729V601.477C318.729 600.295 319.661 599.432 320.934 599.432C321.292 599.432 321.661 599.5 321.752 599.523V598.159C321.599 598.148 321.246 598.136 321.047 598.136C320.002 598.136 319.093 598.727 318.775 599.591H318.684V598.273H317.388V607ZM326.735 607.182C328.508 607.182 329.803 606.295 330.212 604.977L328.917 604.614C328.576 605.523 327.786 605.977 326.735 605.977C325.161 605.977 324.076 604.96 324.013 603.091H330.349V602.523C330.349 599.273 328.417 598.159 326.599 598.159C324.235 598.159 322.667 600.023 322.667 602.705C322.667 605.386 324.212 607.182 326.735 607.182ZM324.013 601.932C324.104 600.574 325.065 599.364 326.599 599.364C328.053 599.364 328.985 600.455 328.985 601.932H324.013ZM332.388 607H333.729V601.545C333.729 600.267 334.661 599.364 335.707 599.364C336.724 599.364 337.434 600.028 337.434 601.023V607H338.797V601.318C338.797 600.193 339.502 599.364 340.729 599.364C341.684 599.364 342.502 599.869 342.502 601.159V607H343.843V601.159C343.843 599.108 342.741 598.159 341.184 598.159C339.934 598.159 339.019 598.733 338.57 599.636H338.479C338.047 598.705 337.286 598.159 336.138 598.159C335.002 598.159 334.161 598.705 333.797 599.636H333.684V598.273H332.388V607ZM349.84 607.182C352.204 607.182 353.795 605.386 353.795 602.682C353.795 599.955 352.204 598.159 349.84 598.159C347.476 598.159 345.886 599.955 345.886 602.682C345.886 605.386 347.476 607.182 349.84 607.182ZM349.84 605.977C348.045 605.977 347.226 604.432 347.226 602.682C347.226 600.932 348.045 599.364 349.84 599.364C351.636 599.364 352.454 600.932 352.454 602.682C352.454 604.432 351.636 605.977 349.84 605.977ZM362.665 598.273H361.211L358.802 605.227H358.711L356.302 598.273H354.847L358.074 607H359.438L362.665 598.273ZM367.782 607.182C369.555 607.182 370.85 606.295 371.259 604.977L369.964 604.614C369.623 605.523 368.833 605.977 367.782 605.977C366.208 605.977 365.123 604.96 365.06 603.091H371.396V602.523C371.396 599.273 369.464 598.159 367.646 598.159C365.282 598.159 363.714 600.023 363.714 602.705C363.714 605.386 365.259 607.182 367.782 607.182ZM365.06 601.932C365.151 600.574 366.111 599.364 367.646 599.364C369.1 599.364 370.032 600.455 370.032 601.932H365.06ZM376.731 607.182C378.413 607.182 378.981 606.136 379.276 605.659H379.435V607H380.731V595.364H379.39V599.659H379.276C378.981 599.205 378.458 598.159 376.753 598.159C374.549 598.159 373.026 599.909 373.026 602.659C373.026 605.432 374.549 607.182 376.731 607.182ZM376.913 605.977C375.231 605.977 374.367 604.5 374.367 602.636C374.367 600.795 375.208 599.364 376.913 599.364C378.549 599.364 379.413 600.682 379.413 602.636C379.413 604.614 378.526 605.977 376.913 605.977Z" fill="#C3C3C3"/>
<line x1="77.519" y1="132.946" x2="182.945" y2="132.946" stroke="#545454" stroke-width="2.32558"/>
<line x1="182.946" y1="366.279" x2="288.372" y2="366.279" stroke="#545454" stroke-width="2.32558"/>
<line x1="77.519" y1="230.62" x2="182.945" y2="230.62" stroke="#545454" stroke-width="2.32558"/>
<line x1="183.212" y1="336.047" x2="288.638" y2="336.047" stroke="#545454" stroke-width="2.32558"/>
<line x1="191.473" y1="230.62" x2="288.372" y2="230.62" stroke="#545454" stroke-width="2.32558" stroke-dasharray="4.65 4.65"/>
<line x1="77.519" y1="570.93" x2="182.945" y2="570.93" stroke="#545454" stroke-width="2.32558"/>
<line x1="77.519" y1="601.69" x2="182.945" y2="601.69" stroke="#545454" stroke-width="2.32558"/>
<line x1="77.519" y1="41.4729" x2="182.945" y2="41.4729" stroke="#545454" stroke-width="2.32558"/>
<rect x="77.4966" y="32.5581" width="12.4031" height="12.4031" rx="6.20155" transform="rotate(45 77.4966 32.5581)" fill="#545454"/>
<rect x="183.188" y="357.364" width="12.4031" height="12.4031" rx="6.20155" transform="rotate(45 183.188 357.364)" fill="#545454"/>
<rect x="77.4966" y="124.031" width="12.4031" height="12.4031" rx="6.20155" transform="rotate(45 77.4966 124.031)" fill="#545454"/>
<rect x="77.4966" y="221.705" width="12.4031" height="12.4031" rx="6.20155" transform="rotate(45 77.4966 221.705)" fill="#545454"/>
<rect x="183.188" y="327.132" width="12.4031" height="12.4031" rx="6.20155" transform="rotate(45 183.188 327.132)" fill="#545454"/>
<rect x="183.188" y="221.705" width="12.4031" height="12.4031" rx="6.20155" transform="rotate(45 183.188 221.705)" fill="#545454"/>
<rect x="77.4966" y="562.016" width="12.4031" height="12.4031" rx="6.20155" transform="rotate(45 77.4966 562.016)" fill="#545454"/>
<rect x="77.4966" y="592.775" width="12.4031" height="12.4031" rx="6.20155" transform="rotate(45 77.4966 592.775)" fill="#545454"/>
<defs>
<linearGradient id="paint0_linear_143_57" x1="135.406" y1="73.6083" x2="12.4024" y2="133.583" gradientUnits="userSpaceOnUse">
<stop stop-color="#33FFA0"/>
<stop offset="1" stop-color="#35F7DF"/>
</linearGradient>
<linearGradient id="paint1_linear_143_57" x1="135.406" y1="165.081" x2="12.4024" y2="225.056" gradientUnits="userSpaceOnUse">
<stop stop-color="#33FFA0"/>
<stop offset="1" stop-color="#35F7DF"/>
</linearGradient>
<linearGradient id="paint2_linear_143_57" x1="135.406" y1="511.593" x2="12.4024" y2="571.568" gradientUnits="userSpaceOnUse">
<stop stop-color="#33FFA0"/>
<stop offset="1" stop-color="#35F7DF"/>
</linearGradient>
<linearGradient id="paint3_linear_143_57" x1="135.406" y1="638.368" x2="12.4024" y2="698.343" gradientUnits="userSpaceOnUse">
<stop stop-color="#33FFA0"/>
<stop offset="1" stop-color="#35F7DF"/>
</linearGradient>
</defs>
</svg>
