<svg width="645" height="869" viewBox="0 0 645 869" fill="none" xmlns="http://www.w3.org/2000/svg">
<line x1="235.5" y1="296" x2="235.5" y2="608" stroke="#C8C8C8" stroke-width="3"/>
<path d="M98.9394 868.061C99.5252 868.646 100.475 868.646 101.061 868.061L110.607 858.515C111.192 857.929 111.192 856.979 110.607 856.393C110.021 855.808 109.071 855.808 108.485 856.393L100 864.879L91.5148 856.393C90.929 855.808 89.9792 855.808 89.3934 856.393C88.8076 856.979 88.8076 857.929 89.3934 858.515L98.9394 868.061ZM98.5 52L98.5 867L101.5 867L101.5 52L98.5 52Z" fill="#C8C8C8"/>
<path d="M109.939 606.939C109.354 607.525 109.354 608.475 109.939 609.061L119.485 618.607C120.071 619.192 121.021 619.192 121.607 618.607C122.192 618.021 122.192 617.071 121.607 616.485L113.121 608L121.607 599.515C122.192 598.929 122.192 597.979 121.607 597.393C121.021 596.808 120.071 596.808 119.485 597.393L109.939 606.939ZM237 606.5H111V609.5H237V606.5Z" fill="#C8C8C8"/>
<rect y="79" width="200" height="60" rx="4" fill="url(#paint0_linear_138_156)"/>
<path d="M69.5795 116.213C72.7756 116.213 74.8068 113.962 74.8068 110.588C74.8068 107.207 72.7756 104.949 69.5795 104.949C66.3835 104.949 64.3523 107.207 64.3523 110.588C64.3523 113.962 66.3835 116.213 69.5795 116.213ZM69.5938 114.153C67.8253 114.153 66.9588 112.577 66.9588 110.581C66.9588 108.585 67.8253 106.987 69.5938 106.987C71.3338 106.987 72.2003 108.585 72.2003 110.581C72.2003 112.577 71.3338 114.153 69.5938 114.153ZM79.56 109.608C79.56 108.031 80.5117 107.122 81.8683 107.122C83.1964 107.122 83.9918 107.996 83.9918 109.452V116H86.5629V109.054C86.57 106.44 85.0785 104.949 82.8271 104.949C81.1935 104.949 80.0714 105.73 79.5742 106.945H79.4464V105.091H76.989V116H79.56V109.608ZM97.195 105.453H99.7305C99.6808 102.996 97.5856 101.256 94.489 101.256C91.435 101.256 89.141 102.974 89.1481 105.545C89.1481 107.634 90.6325 108.834 93.0259 109.452L94.6808 109.878C96.2504 110.276 97.2873 110.766 97.2944 111.895C97.2873 113.138 96.1083 113.969 94.3896 113.969C92.7418 113.969 91.4634 113.23 91.3569 111.703H88.7646C88.8711 114.594 91.0231 116.22 94.4109 116.22C97.8981 116.22 99.9222 114.48 99.9293 111.916C99.9222 109.395 97.8413 108.244 95.6538 107.726L94.2901 107.385C93.0969 107.101 91.8043 106.597 91.8185 105.382C91.8256 104.288 92.8058 103.486 94.4535 103.486C96.0231 103.486 97.06 104.217 97.195 105.453ZM107.612 105.091H105.46V102.477H102.889V105.091H101.341V107.08H102.889V113.145C102.875 115.197 104.366 116.206 106.298 116.149C107.03 116.128 107.534 115.986 107.811 115.893L107.378 113.884C107.236 113.919 106.945 113.983 106.625 113.983C105.979 113.983 105.46 113.756 105.46 112.719V107.08H107.612V105.091ZM112.902 116.22C114.613 116.22 115.636 115.418 116.105 114.501H116.19V116H118.662V108.699C118.662 105.815 116.311 104.949 114.23 104.949C111.936 104.949 110.174 105.972 109.606 107.96L112.007 108.301C112.262 107.555 112.987 106.916 114.244 106.916C115.437 106.916 116.091 107.527 116.091 108.599V108.642C116.091 109.381 115.316 109.416 113.392 109.622C111.275 109.849 109.251 110.482 109.251 112.939C109.251 115.084 110.821 116.22 112.902 116.22ZM113.569 114.331C112.497 114.331 111.73 113.841 111.73 112.896C111.73 111.909 112.589 111.497 113.74 111.334C114.414 111.241 115.764 111.071 116.098 110.801V112.087C116.098 113.301 115.118 114.331 113.569 114.331ZM121.247 116H123.818V109.587C123.818 108.202 124.862 107.222 126.275 107.222C126.708 107.222 127.248 107.3 127.468 107.371V105.006C127.234 104.963 126.829 104.935 126.545 104.935C125.295 104.935 124.251 105.645 123.853 106.909H123.74V105.091H121.247V116ZM135.21 105.091H133.058V102.477H130.487V105.091H128.939V107.08H130.487V113.145C130.473 115.197 131.964 116.206 133.896 116.149C134.627 116.128 135.132 115.986 135.409 115.893L134.975 113.884C134.833 113.919 134.542 113.983 134.223 113.983C133.576 113.983 133.058 113.756 133.058 112.719V107.08H135.21V105.091Z" fill="#2D503C"/>
<rect y="197" width="200" height="60" rx="4" fill="url(#paint1_linear_138_156)"/>
<path d="M52.0795 234.213C55.2756 234.213 57.3068 231.962 57.3068 228.588C57.3068 225.207 55.2756 222.949 52.0795 222.949C48.8835 222.949 46.8523 225.207 46.8523 228.588C46.8523 231.962 48.8835 234.213 52.0795 234.213ZM52.0938 232.153C50.3253 232.153 49.4588 230.577 49.4588 228.581C49.4588 226.585 50.3253 224.987 52.0938 224.987C53.8338 224.987 54.7003 226.585 54.7003 228.581C54.7003 230.577 53.8338 232.153 52.0938 232.153ZM62.06 227.608C62.06 226.031 63.0117 225.122 64.3683 225.122C65.6964 225.122 66.4918 225.996 66.4918 227.452V234H69.0629V227.054C69.07 224.44 67.5785 222.949 65.3271 222.949C63.6935 222.949 62.5714 223.73 62.0742 224.945H61.9464V223.091H59.489V234H62.06V227.608ZM71.7901 234H74.4251V228.673H77.1097L79.9648 234H82.9052L79.7589 228.233C81.4705 227.544 82.3725 226.081 82.3725 224.107C82.3725 221.33 80.5827 219.455 77.2447 219.455H71.7901V234ZM74.4251 226.486V221.656H76.8398C78.8072 221.656 79.6879 222.558 79.6879 224.107C79.6879 225.655 78.8072 226.486 76.854 226.486H74.4251ZM89.3576 234.213C91.9002 234.213 93.6474 232.97 94.1019 231.074L91.7013 230.804C91.3533 231.727 90.5011 232.21 89.3931 232.21C87.7312 232.21 86.6303 231.116 86.609 229.249H94.2085V228.46C94.2085 224.632 91.9073 222.949 89.2227 222.949C86.0977 222.949 84.0593 225.243 84.0593 228.609C84.0593 232.033 86.0692 234.213 89.3576 234.213ZM86.6161 227.516C86.6942 226.124 87.7241 224.952 89.2582 224.952C90.7354 224.952 91.7298 226.031 91.744 227.516H86.6161ZM99.5227 234.22C101.234 234.22 102.257 233.418 102.726 232.501H102.811V234H105.283V226.699C105.283 223.815 102.932 222.949 100.851 222.949C98.5568 222.949 96.7955 223.972 96.2273 225.96L98.6278 226.301C98.8835 225.555 99.608 224.916 100.865 224.916C102.058 224.916 102.712 225.527 102.712 226.599V226.642C102.712 227.381 101.938 227.416 100.013 227.622C97.8963 227.849 95.8722 228.482 95.8722 230.939C95.8722 233.084 97.4418 234.22 99.5227 234.22ZM100.19 232.331C99.1179 232.331 98.3509 231.841 98.3509 230.896C98.3509 229.909 99.2102 229.497 100.361 229.334C101.036 229.241 102.385 229.071 102.719 228.801V230.087C102.719 231.301 101.739 232.331 100.19 232.331ZM112.626 234.213C115.368 234.213 117.115 232.587 117.3 230.271H114.842C114.622 231.443 113.777 232.118 112.648 232.118C111.043 232.118 110.006 230.776 110.006 228.545C110.006 226.344 111.064 225.023 112.648 225.023C113.884 225.023 114.643 225.818 114.842 226.869H117.3C117.122 224.504 115.276 222.949 112.612 222.949C109.416 222.949 107.399 225.257 107.399 228.588C107.399 231.891 109.366 234.213 112.626 234.213ZM124.858 223.091H122.706V220.477H120.135V223.091H118.587V225.08H120.135V231.145C120.121 233.197 121.613 234.206 123.544 234.149C124.276 234.128 124.78 233.986 125.057 233.893L124.624 231.884C124.482 231.919 124.191 231.983 123.871 231.983C123.225 231.983 122.706 231.756 122.706 230.719V225.08H124.858V223.091ZM127.009 234H129.58V223.091H127.009V234ZM128.301 221.543C129.118 221.543 129.786 220.918 129.786 220.151C129.786 219.376 129.118 218.751 128.301 218.751C127.477 218.751 126.81 219.376 126.81 220.151C126.81 220.918 127.477 221.543 128.301 221.543ZM141.968 223.091H139.233L136.719 231.195H136.605L134.098 223.091H131.357L135.242 234H138.083L141.968 223.091ZM148.205 234.213C150.748 234.213 152.495 232.97 152.95 231.074L150.549 230.804C150.201 231.727 149.349 232.21 148.241 232.21C146.579 232.21 145.478 231.116 145.457 229.249H153.056V228.46C153.056 224.632 150.755 222.949 148.07 222.949C144.945 222.949 142.907 225.243 142.907 228.609C142.907 232.033 144.917 234.213 148.205 234.213ZM145.464 227.516C145.542 226.124 146.572 224.952 148.106 224.952C149.583 224.952 150.577 226.031 150.592 227.516H145.464Z" fill="#2D503C"/>
<rect x="134" y="333" width="200" height="60" rx="4" fill="#4B4B4B"/>
<path d="M168.935 370H171.463V368.281H171.612C172.017 369.077 172.862 370.192 174.737 370.192C177.308 370.192 179.233 368.153 179.233 364.56C179.233 360.923 177.251 358.949 174.73 358.949C172.805 358.949 172.003 360.107 171.612 360.895H171.506V355.455H168.935V370ZM171.456 364.545C171.456 362.429 172.365 361.058 174.02 361.058C175.732 361.058 176.612 362.514 176.612 364.545C176.612 366.591 175.717 368.082 174.02 368.082C172.379 368.082 171.456 366.662 171.456 364.545ZM186.248 370.213C188.791 370.213 190.538 368.97 190.993 367.074L188.592 366.804C188.244 367.727 187.392 368.21 186.284 368.21C184.622 368.21 183.521 367.116 183.5 365.249H191.099V364.46C191.099 360.632 188.798 358.949 186.113 358.949C182.988 358.949 180.95 361.243 180.95 364.609C180.95 368.033 182.96 370.213 186.248 370.213ZM183.507 363.516C183.585 362.124 184.615 360.952 186.149 360.952C187.626 360.952 188.62 362.031 188.635 363.516H183.507ZM198.8 359.091H196.534V358.232C196.534 357.379 196.889 356.903 197.848 356.903C198.253 356.903 198.594 356.996 198.807 357.06L199.325 355.071C198.991 354.957 198.26 354.773 197.372 354.773C195.476 354.773 193.963 355.859 193.963 358.061V359.091H192.351V361.08H193.963V370H196.534V361.08H198.8V359.091ZM205.162 370.213C208.358 370.213 210.389 367.962 210.389 364.588C210.389 361.207 208.358 358.949 205.162 358.949C201.966 358.949 199.934 361.207 199.934 364.588C199.934 367.962 201.966 370.213 205.162 370.213ZM205.176 368.153C203.407 368.153 202.541 366.577 202.541 364.581C202.541 362.585 203.407 360.987 205.176 360.987C206.916 360.987 207.782 362.585 207.782 364.581C207.782 366.577 206.916 368.153 205.176 368.153ZM212.571 370H215.142V363.587C215.142 362.202 216.186 361.222 217.599 361.222C218.033 361.222 218.572 361.3 218.793 361.371V359.006C218.558 358.963 218.153 358.935 217.869 358.935C216.619 358.935 215.575 359.645 215.178 360.909H215.064V359.091H212.571V370ZM224.881 370.213C227.424 370.213 229.171 368.97 229.625 367.074L227.225 366.804C226.877 367.727 226.025 368.21 224.917 368.21C223.255 368.21 222.154 367.116 222.132 365.249H229.732V364.46C229.732 360.632 227.431 358.949 224.746 358.949C221.621 358.949 219.583 361.243 219.583 364.609C219.583 368.033 221.593 370.213 224.881 370.213ZM222.14 363.516C222.218 362.124 223.248 360.952 224.782 360.952C226.259 360.952 227.253 362.031 227.267 363.516H222.14ZM232.021 370H234.656V364.673H237.34L240.195 370H243.136L239.989 364.233C241.701 363.544 242.603 362.081 242.603 360.107C242.603 357.33 240.813 355.455 237.475 355.455H232.021V370ZM234.656 362.486V357.656H237.07C239.038 357.656 239.918 358.558 239.918 360.107C239.918 361.655 239.038 362.486 237.085 362.486H234.656ZM249.588 370.213C252.131 370.213 253.878 368.97 254.332 367.074L251.932 366.804C251.584 367.727 250.732 368.21 249.624 368.21C247.962 368.21 246.861 367.116 246.839 365.249H254.439V364.46C254.439 360.632 252.138 358.949 249.453 358.949C246.328 358.949 244.29 361.243 244.29 364.609C244.29 368.033 246.3 370.213 249.588 370.213ZM246.847 363.516C246.925 362.124 247.955 360.952 249.489 360.952C250.966 360.952 251.96 362.031 251.974 363.516H246.847ZM259.185 363.608C259.185 362.031 260.137 361.122 261.493 361.122C262.821 361.122 263.617 361.996 263.617 363.452V370H266.188V363.054C266.195 360.44 264.703 358.949 262.452 358.949C260.819 358.949 259.696 359.73 259.199 360.945H259.071V359.091H256.614V370H259.185V363.608ZM272.85 370.192C274.725 370.192 275.57 369.077 275.975 368.281H276.131V370H278.659V355.455H276.081V360.895H275.975C275.584 360.107 274.782 358.949 272.857 358.949C270.336 358.949 268.354 360.923 268.354 364.56C268.354 368.153 270.279 370.192 272.85 370.192ZM273.567 368.082C271.87 368.082 270.975 366.591 270.975 364.545C270.975 362.514 271.855 361.058 273.567 361.058C275.222 361.058 276.131 362.429 276.131 364.545C276.131 366.662 275.208 368.082 273.567 368.082ZM286.229 370.213C288.771 370.213 290.518 368.97 290.973 367.074L288.572 366.804C288.224 367.727 287.372 368.21 286.264 368.21C284.602 368.21 283.501 367.116 283.48 365.249H291.08V364.46C291.08 360.632 288.778 358.949 286.094 358.949C282.969 358.949 280.93 361.243 280.93 364.609C280.93 368.033 282.94 370.213 286.229 370.213ZM283.487 363.516C283.565 362.124 284.595 360.952 286.129 360.952C287.607 360.952 288.601 362.031 288.615 363.516H283.487ZM293.255 370H295.826V363.587C295.826 362.202 296.87 361.222 298.283 361.222C298.716 361.222 299.256 361.3 299.476 361.371V359.006C299.242 358.963 298.837 358.935 298.553 358.935C297.303 358.935 296.259 359.645 295.861 360.909H295.748V359.091H293.255V370Z" fill="white"/>
<rect x="134" y="508" width="200" height="60" rx="4" fill="#4B4B4B"/>
<path d="M193.08 545.213C196.276 545.213 198.307 542.962 198.307 539.588C198.307 536.207 196.276 533.949 193.08 533.949C189.884 533.949 187.852 536.207 187.852 539.588C187.852 542.962 189.884 545.213 193.08 545.213ZM193.094 543.153C191.325 543.153 190.459 541.577 190.459 539.581C190.459 537.585 191.325 535.987 193.094 535.987C194.834 535.987 195.7 537.585 195.7 539.581C195.7 541.577 194.834 543.153 193.094 543.153ZM203.06 538.608C203.06 537.031 204.012 536.122 205.368 536.122C206.696 536.122 207.492 536.996 207.492 538.452V545H210.063V538.054C210.07 535.44 208.578 533.949 206.327 533.949C204.694 533.949 203.571 534.73 203.074 535.945H202.946V534.091H200.489V545H203.06V538.608ZM212.79 545H215.425V539.673H218.11L220.965 545H223.905L220.759 539.233C222.471 538.544 223.373 537.081 223.373 535.107C223.373 532.33 221.583 530.455 218.245 530.455H212.79V545ZM215.425 537.486V532.656H217.84C219.807 532.656 220.688 533.558 220.688 535.107C220.688 536.655 219.807 537.486 217.854 537.486H215.425ZM230.358 545.213C232.9 545.213 234.647 543.97 235.102 542.074L232.701 541.804C232.353 542.727 231.501 543.21 230.393 543.21C228.731 543.21 227.63 542.116 227.609 540.249H235.208V539.46C235.208 535.632 232.907 533.949 230.223 533.949C227.098 533.949 225.059 536.243 225.059 539.609C225.059 543.033 227.069 545.213 230.358 545.213ZM227.616 538.516C227.694 537.124 228.724 535.952 230.258 535.952C231.735 535.952 232.73 537.031 232.744 538.516H227.616ZM239.955 538.608C239.955 537.031 240.906 536.122 242.263 536.122C243.591 536.122 244.386 536.996 244.386 538.452V545H246.957V538.054C246.964 535.44 245.473 533.949 243.222 533.949C241.588 533.949 240.466 534.73 239.969 535.945H239.841V534.091H237.384V545H239.955V538.608ZM253.619 545.192C255.494 545.192 256.339 544.077 256.744 543.281H256.901V545H259.429V530.455H256.851V535.895H256.744C256.354 535.107 255.551 533.949 253.626 533.949C251.105 533.949 249.124 535.923 249.124 539.56C249.124 543.153 251.048 545.192 253.619 545.192ZM254.337 543.082C252.639 543.082 251.744 541.591 251.744 539.545C251.744 537.514 252.625 536.058 254.337 536.058C255.991 536.058 256.901 537.429 256.901 539.545C256.901 541.662 255.977 543.082 254.337 543.082ZM266.998 545.213C269.541 545.213 271.288 543.97 271.743 542.074L269.342 541.804C268.994 542.727 268.142 543.21 267.034 543.21C265.372 543.21 264.271 542.116 264.25 540.249H271.849V539.46C271.849 535.632 269.548 533.949 266.863 533.949C263.738 533.949 261.7 536.243 261.7 539.609C261.7 543.033 263.71 545.213 266.998 545.213ZM264.257 538.516C264.335 537.124 265.365 535.952 266.899 535.952C268.376 535.952 269.37 537.031 269.385 538.516H264.257ZM274.024 545H276.595V538.587C276.595 537.202 277.639 536.222 279.053 536.222C279.486 536.222 280.026 536.3 280.246 536.371V534.006C280.011 533.963 279.607 533.935 279.322 533.935C278.072 533.935 277.028 534.645 276.631 535.909H276.517V534.091H274.024V545Z" fill="white"/>
<rect y="644" width="200" height="60" rx="4" fill="url(#paint2_linear_138_156)"/>
<path d="M63.5795 681.213C66.7756 681.213 68.8068 678.962 68.8068 675.588C68.8068 672.207 66.7756 669.949 63.5795 669.949C60.3835 669.949 58.3523 672.207 58.3523 675.588C58.3523 678.962 60.3835 681.213 63.5795 681.213ZM63.5938 679.153C61.8253 679.153 60.9588 677.577 60.9588 675.581C60.9588 673.585 61.8253 671.987 63.5938 671.987C65.3338 671.987 66.2003 673.585 66.2003 675.581C66.2003 677.577 65.3338 679.153 63.5938 679.153ZM73.56 674.608C73.56 673.031 74.5117 672.122 75.8683 672.122C77.1964 672.122 77.9918 672.996 77.9918 674.452V681H80.5629V674.054C80.57 671.44 79.0785 669.949 76.8271 669.949C75.1935 669.949 74.0714 670.73 73.5742 671.945H73.4464V670.091H70.989V681H73.56V674.608ZM83.2901 681H85.9251V675.673H88.6097L91.4648 681H94.4052L91.2589 675.233C92.9705 674.544 93.8725 673.081 93.8725 671.107C93.8725 668.33 92.0827 666.455 88.7447 666.455H83.2901V681ZM85.9251 673.486V668.656H88.3398C90.3072 668.656 91.1879 669.558 91.1879 671.107C91.1879 672.655 90.3072 673.486 88.354 673.486H85.9251ZM100.858 681.213C103.4 681.213 105.147 679.97 105.602 678.074L103.201 677.804C102.853 678.727 102.001 679.21 100.893 679.21C99.2312 679.21 98.1303 678.116 98.109 676.249H105.708V675.46C105.708 671.632 103.407 669.949 100.723 669.949C97.5977 669.949 95.5593 672.243 95.5593 675.609C95.5593 679.033 97.5692 681.213 100.858 681.213ZM98.1161 674.516C98.1942 673.124 99.2241 671.952 100.758 671.952C102.235 671.952 103.23 673.031 103.244 674.516H98.1161ZM111.023 681.22C112.734 681.22 113.757 680.418 114.226 679.501H114.311V681H116.783V673.699C116.783 670.815 114.432 669.949 112.351 669.949C110.057 669.949 108.295 670.972 107.727 672.96L110.128 673.301C110.384 672.555 111.108 671.916 112.365 671.916C113.558 671.916 114.212 672.527 114.212 673.599V673.642C114.212 674.381 113.438 674.416 111.513 674.622C109.396 674.849 107.372 675.482 107.372 677.939C107.372 680.084 108.942 681.22 111.023 681.22ZM111.69 679.331C110.618 679.331 109.851 678.841 109.851 677.896C109.851 676.909 110.71 676.497 111.861 676.334C112.536 676.241 113.885 676.071 114.219 675.801V677.087C114.219 678.301 113.239 679.331 111.69 679.331ZM123.416 681.192C125.291 681.192 126.136 680.077 126.541 679.281H126.697V681H129.226V666.455H126.648V671.895H126.541C126.151 671.107 125.348 669.949 123.423 669.949C120.902 669.949 118.92 671.923 118.92 675.56C118.92 679.153 120.845 681.192 123.416 681.192ZM124.134 679.082C122.436 679.082 121.541 677.591 121.541 675.545C121.541 673.514 122.422 672.058 124.134 672.058C125.788 672.058 126.697 673.429 126.697 675.545C126.697 677.662 125.774 679.082 124.134 679.082ZM133.564 685.091C135.566 685.091 136.724 684.061 137.342 682.321L141.724 670.105L138.975 670.091L136.454 678.33H136.341L133.826 670.091H131.099L135.055 681.227L134.835 681.817C134.359 683.06 133.606 683.145 132.484 682.818L131.887 684.821C132.235 684.963 132.86 685.091 133.564 685.091Z" fill="#2D503C"/>
<rect y="762" width="200" height="60" rx="4" fill="url(#paint3_linear_138_156)"/>
<path d="M55.5795 799.213C58.7756 799.213 60.8068 796.962 60.8068 793.588C60.8068 790.207 58.7756 787.949 55.5795 787.949C52.3835 787.949 50.3523 790.207 50.3523 793.588C50.3523 796.962 52.3835 799.213 55.5795 799.213ZM55.5938 797.153C53.8253 797.153 52.9588 795.577 52.9588 793.581C52.9588 791.585 53.8253 789.987 55.5938 789.987C57.3338 789.987 58.2003 791.585 58.2003 793.581C58.2003 795.577 57.3338 797.153 55.5938 797.153ZM65.56 792.608C65.56 791.031 66.5117 790.122 67.8683 790.122C69.1964 790.122 69.9918 790.996 69.9918 792.452V799H72.5629V792.054C72.57 789.44 71.0785 787.949 68.8271 787.949C67.1935 787.949 66.0714 788.73 65.5742 789.945H65.4464V788.091H62.989V799H65.56V792.608ZM80.2191 799C84.6509 799 87.2788 796.259 87.2788 791.713C87.2788 787.182 84.6509 784.455 80.3185 784.455H75.2901V799H80.2191ZM77.9251 796.72V786.734H80.1694C83.1239 786.734 84.6651 788.382 84.6651 791.713C84.6651 795.058 83.1239 796.72 80.0913 796.72H77.9251ZM94.4982 799.213C97.0408 799.213 98.788 797.97 99.2425 796.074L96.842 795.804C96.494 796.727 95.6417 797.21 94.5337 797.21C92.8718 797.21 91.771 796.116 91.7496 794.249H99.3491V793.46C99.3491 789.632 97.0479 787.949 94.3633 787.949C91.2383 787.949 89.1999 790.243 89.1999 793.609C89.1999 797.033 91.2099 799.213 94.4982 799.213ZM91.7567 792.516C91.8349 791.124 92.8647 789.952 94.3988 789.952C95.8761 789.952 96.8704 791.031 96.8846 792.516H91.7567ZM110.146 790.974C109.791 789.128 108.314 787.949 105.757 787.949C103.129 787.949 101.339 789.241 101.347 791.259C101.339 792.849 102.32 793.901 104.415 794.334L106.276 794.724C107.277 794.945 107.746 795.349 107.746 795.967C107.746 796.713 106.936 797.274 105.714 797.274C104.536 797.274 103.768 796.763 103.548 795.783L101.041 796.024C101.361 798.027 103.044 799.213 105.722 799.213C108.449 799.213 110.374 797.8 110.381 795.733C110.374 794.178 109.372 793.226 107.312 792.778L105.452 792.381C104.344 792.132 103.903 791.749 103.911 791.116C103.903 790.378 104.72 789.866 105.793 789.866C106.979 789.866 107.604 790.513 107.803 791.23L110.146 790.974ZM117.948 788.091H115.796V785.477H113.225V788.091H111.677V790.08H113.225V796.145C113.211 798.197 114.702 799.206 116.634 799.149C117.366 799.128 117.87 798.986 118.147 798.893L117.714 796.884C117.572 796.919 117.281 796.983 116.961 796.983C116.315 796.983 115.796 796.756 115.796 795.719V790.08H117.948V788.091ZM120.098 799H122.669V792.587C122.669 791.202 123.713 790.222 125.127 790.222C125.56 790.222 126.1 790.3 126.32 790.371V788.006C126.086 787.963 125.681 787.935 125.397 787.935C124.147 787.935 123.103 788.645 122.705 789.909H122.591V788.091H120.098V799ZM132.337 799.213C135.533 799.213 137.565 796.962 137.565 793.588C137.565 790.207 135.533 787.949 132.337 787.949C129.141 787.949 127.11 790.207 127.11 793.588C127.11 796.962 129.141 799.213 132.337 799.213ZM132.352 797.153C130.583 797.153 129.717 795.577 129.717 793.581C129.717 791.585 130.583 789.987 132.352 789.987C134.092 789.987 134.958 791.585 134.958 793.581C134.958 795.577 134.092 797.153 132.352 797.153ZM140.974 803.091C142.977 803.091 144.134 802.061 144.752 800.321L149.134 788.105L146.386 788.091L143.864 796.33H143.751L141.237 788.091H138.509L142.465 799.227L142.245 799.817C141.769 801.06 141.016 801.145 139.894 800.818L139.298 802.821C139.646 802.963 140.271 803.091 140.974 803.091Z" fill="#2D503C"/>
<path d="M255.523 44.4545H253.761V59H255.523V44.4545ZM260.503 52.4375C260.503 50.5341 261.682 49.4545 263.287 49.4545C264.843 49.4545 265.787 50.4702 265.787 52.1818V59H267.463V52.0682C267.463 49.2841 265.979 47.9489 263.77 47.9489C262.123 47.9489 261.1 48.6875 260.588 49.7955H260.446V48.0909H258.827V59H260.503V52.4375ZM278.254 50.5341C277.728 48.9858 276.549 47.9489 274.39 47.9489C272.089 47.9489 270.384 49.2557 270.384 51.1023C270.384 52.608 271.279 53.6165 273.282 54.0852L275.1 54.5114C276.201 54.767 276.719 55.2926 276.719 56.0455C276.719 56.983 275.725 57.75 274.163 57.75C272.792 57.75 271.933 57.1605 271.634 55.9886L270.043 56.3864C270.434 58.2401 271.961 59.2273 274.191 59.2273C276.727 59.2273 278.452 57.8423 278.452 55.9602C278.452 54.4403 277.501 53.4815 275.555 53.0057L273.935 52.608C272.643 52.2884 272.06 51.8551 272.06 51.017C272.06 50.0795 273.055 49.3977 274.39 49.3977C275.853 49.3977 276.457 50.2074 276.748 50.9602L278.254 50.5341ZM285.549 59.2273C287.765 59.2273 289.385 58.1193 289.896 56.4716L288.277 56.017C287.85 57.1534 286.863 57.7216 285.549 57.7216C283.582 57.7216 282.225 56.4503 282.147 54.1136H290.066V53.4034C290.066 49.3409 287.652 47.9489 285.379 47.9489C282.424 47.9489 280.464 50.2784 280.464 53.6307C280.464 56.983 282.396 59.2273 285.549 59.2273ZM282.147 52.6648C282.261 50.9673 283.461 49.4545 285.379 49.4545C287.197 49.4545 288.362 50.8182 288.362 52.6648H282.147ZM292.616 59H294.292V52.0966C294.292 50.6193 295.457 49.5398 297.048 49.5398C297.495 49.5398 297.957 49.625 298.071 49.6534V47.9489C297.879 47.9347 297.439 47.9205 297.19 47.9205C295.883 47.9205 294.747 48.6591 294.349 49.7386H294.235V48.0909H292.616V59ZM305.485 48.0909H303.156V45.4773H301.48V48.0909H299.832V49.5114H301.48V56.3295C301.48 58.233 303.014 59.142 304.434 59.142C305.059 59.142 305.457 59.0284 305.684 58.9432L305.343 57.4375C305.201 57.4659 304.974 57.5227 304.605 57.5227C303.866 57.5227 303.156 57.2955 303.156 55.875V49.5114H305.485V48.0909ZM312.463 59.2273C314.679 59.2273 316.299 58.1193 316.81 56.4716L315.191 56.017C314.765 57.1534 313.777 57.7216 312.463 57.7216C310.496 57.7216 309.14 56.4503 309.061 54.1136H316.98V53.4034C316.98 49.3409 314.566 47.9489 312.293 47.9489C309.338 47.9489 307.378 50.2784 307.378 53.6307C307.378 56.983 309.31 59.2273 312.463 59.2273ZM309.061 52.6648C309.175 50.9673 310.375 49.4545 312.293 49.4545C314.111 49.4545 315.276 50.8182 315.276 52.6648H309.061ZM323.65 59.2273C325.752 59.2273 326.462 57.9205 326.831 57.3239H327.03V59H328.65V44.4545H326.973V49.8239H326.831C326.462 49.2557 325.809 47.9489 323.678 47.9489C320.922 47.9489 319.019 50.1364 319.019 53.5739C319.019 57.0398 320.922 59.2273 323.65 59.2273ZM323.877 57.7216C321.775 57.7216 320.695 55.875 320.695 53.5455C320.695 51.2443 321.746 49.4545 323.877 49.4545C325.922 49.4545 327.002 51.1023 327.002 53.5455C327.002 56.017 325.894 57.7216 323.877 57.7216ZM337.577 59H339.253V48.0909H337.577V59ZM338.429 46.2727C339.083 46.2727 339.623 45.7614 339.623 45.1364C339.623 44.5114 339.083 44 338.429 44C337.776 44 337.236 44.5114 337.236 45.1364C337.236 45.7614 337.776 46.2727 338.429 46.2727ZM343.999 52.4375C343.999 50.5341 345.178 49.4545 346.783 49.4545C348.339 49.4545 349.283 50.4702 349.283 52.1818V59H350.96V52.0682C350.96 49.2841 349.475 47.9489 347.266 47.9489C345.619 47.9489 344.596 48.6875 344.085 49.7955H343.942V48.0909H342.323V59H343.999V52.4375ZM358.767 48.0909H356.437V45.4773H354.761V48.0909H353.113V49.5114H354.761V56.3295C354.761 58.233 356.295 59.142 357.716 59.142C358.341 59.142 358.738 59.0284 358.966 58.9432L358.625 57.4375C358.483 57.4659 358.255 57.5227 357.886 57.5227C357.147 57.5227 356.437 57.2955 356.437 55.875V49.5114H358.767V48.0909ZM365.603 59.2273C368.557 59.2273 370.546 56.983 370.546 53.6023C370.546 50.1932 368.557 47.9489 365.603 47.9489C362.648 47.9489 360.659 50.1932 360.659 53.6023C360.659 56.983 362.648 59.2273 365.603 59.2273ZM365.603 57.7216C363.358 57.7216 362.336 55.7898 362.336 53.6023C362.336 51.4148 363.358 49.4545 365.603 49.4545C367.847 49.4545 368.87 51.4148 368.87 53.6023C368.87 55.7898 367.847 57.7216 365.603 57.7216ZM383.474 48.0909H381.144V45.4773H379.468V48.0909H377.82V49.5114H379.468V56.3295C379.468 58.233 381.002 59.142 382.423 59.142C383.048 59.142 383.445 59.0284 383.673 58.9432L383.332 57.4375C383.19 57.4659 382.962 57.5227 382.593 57.5227C381.854 57.5227 381.144 57.2955 381.144 55.875V49.5114H383.474V48.0909ZM387.906 52.4375C387.906 50.5341 389.12 49.4545 390.775 49.4545C392.352 49.4545 393.303 50.4489 393.303 52.1818V59H394.979V52.0682C394.979 49.2628 393.488 47.9489 391.258 47.9489C389.539 47.9489 388.559 48.6662 388.048 49.7955H387.906V44.4545H386.229V59H387.906V52.4375ZM402.62 59.2273C404.836 59.2273 406.455 58.1193 406.966 56.4716L405.347 56.017C404.921 57.1534 403.934 57.7216 402.62 57.7216C400.652 57.7216 399.296 56.4503 399.218 54.1136H407.137V53.4034C407.137 49.3409 404.722 47.9489 402.449 47.9489C399.495 47.9489 397.534 50.2784 397.534 53.6307C397.534 56.983 399.466 59.2273 402.62 59.2273ZM399.218 52.6648C399.331 50.9673 400.532 49.4545 402.449 49.4545C404.267 49.4545 405.432 50.8182 405.432 52.6648H399.218ZM420.027 59C424.459 59 426.959 56.2443 426.959 51.6989C426.959 47.1818 424.459 44.4545 420.226 44.4545H415.539V59H420.027ZM417.3 57.4375V46.017H420.113C423.522 46.017 425.255 48.1761 425.255 51.6989C425.255 55.25 423.522 57.4375 419.914 57.4375H417.3ZM442.186 51.7273C442.186 47.125 439.488 44.2557 435.766 44.2557C432.044 44.2557 429.346 47.125 429.346 51.7273C429.346 56.3295 432.044 59.1989 435.766 59.1989C439.488 59.1989 442.186 56.3295 442.186 51.7273ZM440.482 51.7273C440.482 55.5057 438.408 57.5511 435.766 57.5511C433.124 57.5511 431.05 55.5057 431.05 51.7273C431.05 47.9489 433.124 45.9034 435.766 45.9034C438.408 45.9034 440.482 47.9489 440.482 51.7273ZM445.148 44.4545V59H446.796V47.9489H446.938L451.483 59H453.074L457.62 47.9489H457.762V59H459.409V44.4545H457.307L452.364 56.5284H452.194L447.25 44.4545H445.148Z" fill="black"/>
<path d="M253.761 178H255.523V172.318H258.705C258.832 172.318 258.953 172.318 259.074 172.311L262.142 178H264.188L260.899 171.991C262.753 171.359 263.619 169.847 263.619 167.915C263.619 165.344 262.085 163.455 258.676 163.455H253.761V178ZM255.523 170.727V165.017H258.619C260.977 165.017 261.886 166.168 261.886 167.915C261.886 169.662 260.977 170.727 258.648 170.727H255.523ZM270.784 178.227C273 178.227 274.619 177.119 275.13 175.472L273.511 175.017C273.085 176.153 272.098 176.722 270.784 176.722C268.816 176.722 267.46 175.45 267.382 173.114H275.301V172.403C275.301 168.341 272.886 166.949 270.613 166.949C267.659 166.949 265.699 169.278 265.699 172.631C265.699 175.983 267.63 178.227 270.784 178.227ZM267.382 171.665C267.495 169.967 268.696 168.455 270.613 168.455C272.431 168.455 273.596 169.818 273.596 171.665H267.382ZM281.061 178.256C282.964 178.256 283.958 177.233 284.299 176.523H284.385V178H286.061V170.812C286.061 167.347 283.419 166.949 282.027 166.949C280.379 166.949 278.504 167.517 277.652 169.506L279.243 170.074C279.612 169.278 280.485 168.426 282.083 168.426C283.625 168.426 284.385 169.243 284.385 170.642V170.699C284.385 171.509 283.561 171.438 281.572 171.693C279.548 171.956 277.339 172.403 277.339 174.903C277.339 177.034 278.987 178.256 281.061 178.256ZM281.316 176.75C279.981 176.75 279.015 176.153 279.015 174.989C279.015 173.71 280.18 173.312 281.487 173.142C282.197 173.057 284.1 172.858 284.385 172.517V174.051C284.385 175.415 283.305 176.75 281.316 176.75ZM293.552 178.227C295.967 178.227 297.558 176.75 297.842 174.818H296.165C295.853 176.011 294.859 176.722 293.552 176.722C291.563 176.722 290.285 175.074 290.285 172.545C290.285 170.074 291.592 168.455 293.552 168.455C295.029 168.455 295.91 169.364 296.165 170.358H297.842C297.558 168.312 295.825 166.949 293.523 166.949C290.569 166.949 288.609 169.278 288.609 172.602C288.609 175.869 290.484 178.227 293.552 178.227ZM305.036 167.091H302.707V164.477H301.031V167.091H299.383V168.511H301.031V175.33C301.031 177.233 302.565 178.142 303.985 178.142C304.61 178.142 305.008 178.028 305.235 177.943L304.894 176.438C304.752 176.466 304.525 176.523 304.156 176.523C303.417 176.523 302.707 176.295 302.707 174.875V168.511H305.036V167.091ZM307.558 178H309.234V167.091H307.558V178ZM308.41 165.273C309.063 165.273 309.603 164.761 309.603 164.136C309.603 163.511 309.063 163 308.41 163C307.756 163 307.217 163.511 307.217 164.136C307.217 164.761 307.756 165.273 308.41 165.273ZM321.224 167.091H319.406L316.395 175.784H316.281L313.27 167.091H311.451L315.485 178H317.19L321.224 167.091ZM327.62 178.227C329.836 178.227 331.455 177.119 331.966 175.472L330.347 175.017C329.921 176.153 328.934 176.722 327.62 176.722C325.652 176.722 324.296 175.45 324.218 173.114H332.137V172.403C332.137 168.341 329.722 166.949 327.449 166.949C324.495 166.949 322.534 169.278 322.534 172.631C322.534 175.983 324.466 178.227 327.62 178.227ZM324.218 171.665C324.331 169.967 325.532 168.455 327.449 168.455C329.267 168.455 330.432 169.818 330.432 171.665H324.218ZM340.311 182.091H341.988V176.324H342.13C342.499 176.92 343.209 178.227 345.311 178.227C348.039 178.227 349.942 176.04 349.942 172.574C349.942 169.136 348.039 166.949 345.283 166.949C343.152 166.949 342.499 168.256 342.13 168.824H341.931V167.091H340.311V182.091ZM341.959 172.545C341.959 170.102 343.039 168.455 345.084 168.455C347.215 168.455 348.266 170.244 348.266 172.545C348.266 174.875 347.186 176.722 345.084 176.722C343.067 176.722 341.959 175.017 341.959 172.545ZM352.499 178H354.175V171.097C354.175 169.619 355.34 168.54 356.931 168.54C357.378 168.54 357.84 168.625 357.953 168.653V166.949C357.762 166.935 357.321 166.92 357.073 166.92C355.766 166.92 354.63 167.659 354.232 168.739H354.118V167.091H352.499V178ZM364.04 178.227C366.995 178.227 368.983 175.983 368.983 172.602C368.983 169.193 366.995 166.949 364.04 166.949C361.086 166.949 359.097 169.193 359.097 172.602C359.097 175.983 361.086 178.227 364.04 178.227ZM364.04 176.722C361.796 176.722 360.773 174.79 360.773 172.602C360.773 170.415 361.796 168.455 364.04 168.455C366.284 168.455 367.307 170.415 367.307 172.602C367.307 174.79 366.284 176.722 364.04 176.722ZM371.542 182.091H373.218V176.324H373.36C373.729 176.92 374.44 178.227 376.542 178.227C379.269 178.227 381.173 176.04 381.173 172.574C381.173 169.136 379.269 166.949 376.513 166.949C374.383 166.949 373.729 168.256 373.36 168.824H373.161V167.091H371.542V182.091ZM373.19 172.545C373.19 170.102 374.269 168.455 376.315 168.455C378.445 168.455 379.496 170.244 379.496 172.545C379.496 174.875 378.417 176.722 376.315 176.722C374.298 176.722 373.19 175.017 373.19 172.545ZM388.303 178.227C390.519 178.227 392.138 177.119 392.65 175.472L391.031 175.017C390.604 176.153 389.617 176.722 388.303 176.722C386.336 176.722 384.979 175.45 384.901 173.114H392.82V172.403C392.82 168.341 390.406 166.949 388.133 166.949C385.178 166.949 383.218 169.278 383.218 172.631C383.218 175.983 385.15 178.227 388.303 178.227ZM384.901 171.665C385.015 169.967 386.215 168.455 388.133 168.455C389.951 168.455 391.116 169.818 391.116 171.665H384.901ZM395.37 178H397.046V171.097C397.046 169.619 398.211 168.54 399.802 168.54C400.249 168.54 400.711 168.625 400.825 168.653V166.949C400.633 166.935 400.192 166.92 399.944 166.92C398.637 166.92 397.501 167.659 397.103 168.739H396.989V167.091H395.37V178ZM408.239 167.091H405.91V164.477H404.234V167.091H402.586V168.511H404.234V175.33C404.234 177.233 405.768 178.142 407.188 178.142C407.813 178.142 408.211 178.028 408.438 177.943L408.097 176.438C407.955 176.466 407.728 176.523 407.359 176.523C406.62 176.523 405.91 176.295 405.91 174.875V168.511H408.239V167.091ZM410.761 178H412.437V167.091H410.761V178ZM411.613 165.273C412.266 165.273 412.806 164.761 412.806 164.136C412.806 163.511 412.266 163 411.613 163C410.96 163 410.42 163.511 410.42 164.136C410.42 164.761 410.96 165.273 411.613 165.273ZM420.081 178.227C422.297 178.227 423.916 177.119 424.427 175.472L422.808 175.017C422.382 176.153 421.395 176.722 420.081 176.722C418.113 176.722 416.757 175.45 416.679 173.114H424.598V172.403C424.598 168.341 422.183 166.949 419.91 166.949C416.956 166.949 414.995 169.278 414.995 172.631C414.995 175.983 416.927 178.227 420.081 178.227ZM416.679 171.665C416.792 169.967 417.993 168.455 419.91 168.455C421.728 168.455 422.893 169.818 422.893 171.665H416.679ZM434.875 169.534C434.349 167.986 433.17 166.949 431.011 166.949C428.71 166.949 427.005 168.256 427.005 170.102C427.005 171.608 427.9 172.616 429.903 173.085L431.721 173.511C432.822 173.767 433.341 174.293 433.341 175.045C433.341 175.983 432.346 176.75 430.784 176.75C429.413 176.75 428.554 176.161 428.255 174.989L426.664 175.386C427.055 177.24 428.582 178.227 430.812 178.227C433.348 178.227 435.074 176.842 435.074 174.96C435.074 173.44 434.122 172.482 432.176 172.006L430.556 171.608C429.264 171.288 428.681 170.855 428.681 170.017C428.681 169.08 429.676 168.398 431.011 168.398C432.474 168.398 433.078 169.207 433.369 169.96L434.875 169.534ZM443.222 178H444.898V167.091H443.222V178ZM444.074 165.273C444.727 165.273 445.267 164.761 445.267 164.136C445.267 163.511 444.727 163 444.074 163C443.42 163 442.881 163.511 442.881 164.136C442.881 164.761 443.42 165.273 444.074 165.273ZM449.644 171.438C449.644 169.534 450.823 168.455 452.428 168.455C453.983 168.455 454.928 169.47 454.928 171.182V178H456.604V171.068C456.604 168.284 455.12 166.949 452.911 166.949C451.263 166.949 450.24 167.688 449.729 168.795H449.587V167.091H447.968V178H449.644V171.438ZM459.667 178H461.343V167.091H459.667V178ZM460.519 165.273C461.173 165.273 461.712 164.761 461.712 164.136C461.712 163.511 461.173 163 460.519 163C459.866 163 459.326 163.511 459.326 164.136C459.326 164.761 459.866 165.273 460.519 165.273ZM469.157 167.091H466.828V164.477H465.152V167.091H463.504V168.511H465.152V175.33C465.152 177.233 466.686 178.142 468.106 178.142C468.731 178.142 469.129 178.028 469.356 177.943L469.015 176.438C468.873 176.466 468.646 176.523 468.277 176.523C467.538 176.523 466.828 176.295 466.828 174.875V168.511H469.157V167.091ZM471.679 178H473.355V167.091H471.679V178ZM472.531 165.273C473.184 165.273 473.724 164.761 473.724 164.136C473.724 163.511 473.184 163 472.531 163C471.877 163 471.338 163.511 471.338 164.136C471.338 164.761 471.877 165.273 472.531 165.273ZM479.635 178.256C481.538 178.256 482.533 177.233 482.874 176.523H482.959V178H484.635V170.812C484.635 167.347 481.993 166.949 480.601 166.949C478.953 166.949 477.078 167.517 476.226 169.506L477.817 170.074C478.186 169.278 479.06 168.426 480.658 168.426C482.199 168.426 482.959 169.243 482.959 170.642V170.699C482.959 171.509 482.135 171.438 480.146 171.693C478.122 171.956 475.913 172.403 475.913 174.903C475.913 177.034 477.561 178.256 479.635 178.256ZM479.891 176.75C478.555 176.75 477.589 176.153 477.589 174.989C477.589 173.71 478.754 173.312 480.061 173.142C480.771 173.057 482.675 172.858 482.959 172.517V174.051C482.959 175.415 481.879 176.75 479.891 176.75ZM489.37 163.455H487.694V178H489.37V163.455ZM492.44 178H494.116V167.091H492.44V178ZM493.293 165.273C493.946 165.273 494.486 164.761 494.486 164.136C494.486 163.511 493.946 163 493.293 163C492.639 163 492.099 163.511 492.099 164.136C492.099 164.761 492.639 165.273 493.293 165.273ZM496.874 178H505.425V176.438H499.203V176.324L505.226 168.426V167.091H497.073V168.653H503.067V168.767L496.874 176.722V178ZM512.268 178.227C514.484 178.227 516.103 177.119 516.615 175.472L514.995 175.017C514.569 176.153 513.582 176.722 512.268 176.722C510.301 176.722 508.944 175.45 508.866 173.114H516.785V172.403C516.785 168.341 514.37 166.949 512.098 166.949C509.143 166.949 507.183 169.278 507.183 172.631C507.183 175.983 509.115 178.227 512.268 178.227ZM508.866 171.665C508.98 169.967 510.18 168.455 512.098 168.455C513.916 168.455 515.081 169.818 515.081 171.665H508.866ZM523.454 178.227C525.556 178.227 526.267 176.92 526.636 176.324H526.835V178H528.454V163.455H526.778V168.824H526.636C526.267 168.256 525.613 166.949 523.483 166.949C520.727 166.949 518.824 169.136 518.824 172.574C518.824 176.04 520.727 178.227 523.454 178.227ZM523.681 176.722C521.579 176.722 520.5 174.875 520.5 172.545C520.5 170.244 521.551 168.455 523.681 168.455C525.727 168.455 526.806 170.102 526.806 172.545C526.806 175.017 525.699 176.722 523.681 176.722Z" fill="black"/>
<path d="M388.966 428.017H393.54V441H395.301V428.017H399.875V426.455H388.966V428.017ZM405.358 441.227C407.574 441.227 409.193 440.119 409.705 438.472L408.085 438.017C407.659 439.153 406.672 439.722 405.358 439.722C403.391 439.722 402.034 438.45 401.956 436.114H409.875V435.403C409.875 431.341 407.46 429.949 405.188 429.949C402.233 429.949 400.273 432.278 400.273 435.631C400.273 438.983 402.205 441.227 405.358 441.227ZM401.956 434.665C402.07 432.967 403.27 431.455 405.188 431.455C407.006 431.455 408.17 432.818 408.17 434.665H401.956ZM412.425 441H414.101V434.182C414.101 432.584 415.266 431.455 416.572 431.455C417.844 431.455 418.732 432.286 418.732 433.528V441H420.436V433.898C420.436 432.491 421.317 431.455 422.851 431.455C424.044 431.455 425.067 432.087 425.067 433.699V441H426.743V433.699C426.743 431.135 425.365 429.949 423.419 429.949C421.857 429.949 420.713 430.666 420.152 431.795H420.038C419.499 430.631 418.547 429.949 417.112 429.949C415.692 429.949 414.641 430.631 414.186 431.795H414.044V430.091H412.425V441ZM429.808 445.091H431.484V439.324H431.626C431.995 439.92 432.705 441.227 434.808 441.227C437.535 441.227 439.438 439.04 439.438 435.574C439.438 432.136 437.535 429.949 434.779 429.949C432.648 429.949 431.995 431.256 431.626 431.824H431.427V430.091H429.808V445.091ZM431.455 435.545C431.455 433.102 432.535 431.455 434.58 431.455C436.711 431.455 437.762 433.244 437.762 435.545C437.762 437.875 436.683 439.722 434.58 439.722C432.563 439.722 431.455 438.017 431.455 435.545ZM443.671 426.455H441.995V441H443.671V426.455ZM449.951 441.256C451.855 441.256 452.849 440.233 453.19 439.523H453.275V441H454.951V433.812C454.951 430.347 452.309 429.949 450.917 429.949C449.27 429.949 447.395 430.517 446.542 432.506L448.133 433.074C448.502 432.278 449.376 431.426 450.974 431.426C452.515 431.426 453.275 432.243 453.275 433.642V433.699C453.275 434.509 452.451 434.438 450.463 434.693C448.439 434.956 446.23 435.403 446.23 437.903C446.23 440.034 447.877 441.256 449.951 441.256ZM450.207 439.75C448.872 439.75 447.906 439.153 447.906 437.989C447.906 436.71 449.071 436.312 450.377 436.142C451.088 436.057 452.991 435.858 453.275 435.517V437.051C453.275 438.415 452.196 439.75 450.207 439.75ZM462.755 430.091H460.425V427.477H458.749V430.091H457.102V431.511H458.749V438.33C458.749 440.233 460.283 441.142 461.704 441.142C462.329 441.142 462.727 441.028 462.954 440.943L462.613 439.438C462.471 439.466 462.244 439.523 461.874 439.523C461.136 439.523 460.425 439.295 460.425 437.875V431.511H462.755V430.091ZM469.733 441.227C471.949 441.227 473.568 440.119 474.08 438.472L472.46 438.017C472.034 439.153 471.047 439.722 469.733 439.722C467.766 439.722 466.409 438.45 466.331 436.114H474.25V435.403C474.25 431.341 471.835 429.949 469.562 429.949C466.608 429.949 464.648 432.278 464.648 435.631C464.648 438.983 466.58 441.227 469.733 441.227ZM466.331 434.665C466.445 432.967 467.645 431.455 469.562 431.455C471.381 431.455 472.545 432.818 472.545 434.665H466.331ZM482.425 441H484.101V434.097C484.101 432.619 485.266 431.54 486.857 431.54C487.304 431.54 487.766 431.625 487.879 431.653V429.949C487.688 429.935 487.247 429.92 486.999 429.92C485.692 429.92 484.555 430.659 484.158 431.739H484.044V430.091H482.425V441ZM494.108 441.227C496.324 441.227 497.943 440.119 498.455 438.472L496.835 438.017C496.409 439.153 495.422 439.722 494.108 439.722C492.141 439.722 490.784 438.45 490.706 436.114H498.625V435.403C498.625 431.341 496.21 429.949 493.938 429.949C490.983 429.949 489.023 432.278 489.023 435.631C489.023 438.983 490.955 441.227 494.108 441.227ZM490.706 434.665C490.82 432.967 492.02 431.455 493.938 431.455C495.756 431.455 496.92 432.818 496.92 434.665H490.706ZM502.851 434.438C502.851 432.534 504.03 431.455 505.635 431.455C507.19 431.455 508.135 432.47 508.135 434.182V441H509.811V434.068C509.811 431.284 508.327 429.949 506.118 429.949C504.47 429.949 503.447 430.688 502.936 431.795H502.794V430.091H501.175V441H502.851V434.438ZM516.993 441.227C519.096 441.227 519.806 439.92 520.175 439.324H520.374V441H521.993V426.455H520.317V431.824H520.175C519.806 431.256 519.152 429.949 517.022 429.949C514.266 429.949 512.363 432.136 512.363 435.574C512.363 439.04 514.266 441.227 516.993 441.227ZM517.221 439.722C515.118 439.722 514.039 437.875 514.039 435.545C514.039 433.244 515.09 431.455 517.221 431.455C519.266 431.455 520.346 433.102 520.346 435.545C520.346 438.017 519.238 439.722 517.221 439.722ZM529.87 441.227C532.086 441.227 533.705 440.119 534.216 438.472L532.597 438.017C532.171 439.153 531.184 439.722 529.87 439.722C527.902 439.722 526.546 438.45 526.468 436.114H534.387V435.403C534.387 431.341 531.972 429.949 529.699 429.949C526.745 429.949 524.784 432.278 524.784 435.631C524.784 438.983 526.716 441.227 529.87 441.227ZM526.468 434.665C526.581 432.967 527.782 431.455 529.699 431.455C531.517 431.455 532.682 432.818 532.682 434.665H526.468ZM536.936 441H538.613V434.097C538.613 432.619 539.777 431.54 541.368 431.54C541.816 431.54 542.277 431.625 542.391 431.653V429.949C542.199 429.935 541.759 429.92 541.51 429.92C540.203 429.92 539.067 430.659 538.669 431.739H538.556V430.091H536.936V441ZM548.62 441.227C550.836 441.227 552.455 440.119 552.966 438.472L551.347 438.017C550.921 439.153 549.934 439.722 548.62 439.722C546.652 439.722 545.296 438.45 545.218 436.114H553.137V435.403C553.137 431.341 550.722 429.949 548.449 429.949C545.495 429.949 543.534 432.278 543.534 435.631C543.534 438.983 545.466 441.227 548.62 441.227ZM545.218 434.665C545.331 432.967 546.532 431.455 548.449 431.455C550.267 431.455 551.432 432.818 551.432 434.665H545.218ZM559.806 441.227C561.908 441.227 562.618 439.92 562.988 439.324H563.186V441H564.806V426.455H563.13V431.824H562.988C562.618 431.256 561.965 429.949 559.834 429.949C557.078 429.949 555.175 432.136 555.175 435.574C555.175 439.04 557.078 441.227 559.806 441.227ZM560.033 439.722C557.931 439.722 556.851 437.875 556.851 435.545C556.851 433.244 557.902 431.455 560.033 431.455C562.078 431.455 563.158 433.102 563.158 435.545C563.158 438.017 562.05 439.722 560.033 439.722Z" fill="black"/>
<path d="M389.761 304H391.523V298.318H394.705C394.832 298.318 394.953 298.318 395.074 298.311L398.142 304H400.188L396.899 297.991C398.753 297.359 399.619 295.847 399.619 293.915C399.619 291.344 398.085 289.455 394.676 289.455H389.761V304ZM391.523 296.727V291.017H394.619C396.977 291.017 397.886 292.168 397.886 293.915C397.886 295.662 396.977 296.727 394.648 296.727H391.523ZM406.784 304.227C409 304.227 410.619 303.119 411.13 301.472L409.511 301.017C409.085 302.153 408.098 302.722 406.784 302.722C404.816 302.722 403.46 301.45 403.382 299.114H411.301V298.403C411.301 294.341 408.886 292.949 406.613 292.949C403.659 292.949 401.699 295.278 401.699 298.631C401.699 301.983 403.63 304.227 406.784 304.227ZM403.382 297.665C403.495 295.967 404.696 294.455 406.613 294.455C408.431 294.455 409.596 295.818 409.596 297.665H403.382ZM417.061 304.256C418.964 304.256 419.958 303.233 420.299 302.523H420.385V304H422.061V296.812C422.061 293.347 419.419 292.949 418.027 292.949C416.379 292.949 414.504 293.517 413.652 295.506L415.243 296.074C415.612 295.278 416.485 294.426 418.083 294.426C419.625 294.426 420.385 295.243 420.385 296.642V296.699C420.385 297.509 419.561 297.438 417.572 297.693C415.548 297.956 413.339 298.403 413.339 300.903C413.339 303.034 414.987 304.256 417.061 304.256ZM417.316 302.75C415.981 302.75 415.015 302.153 415.015 300.989C415.015 299.71 416.18 299.312 417.487 299.142C418.197 299.057 420.1 298.858 420.385 298.517V300.051C420.385 301.415 419.305 302.75 417.316 302.75ZM429.552 304.227C431.967 304.227 433.558 302.75 433.842 300.818H432.165C431.853 302.011 430.859 302.722 429.552 302.722C427.563 302.722 426.285 301.074 426.285 298.545C426.285 296.074 427.592 294.455 429.552 294.455C431.029 294.455 431.91 295.364 432.165 296.358H433.842C433.558 294.312 431.825 292.949 429.523 292.949C426.569 292.949 424.609 295.278 424.609 298.602C424.609 301.869 426.484 304.227 429.552 304.227ZM441.036 293.091H438.707V290.477H437.031V293.091H435.383V294.511H437.031V301.33C437.031 303.233 438.565 304.142 439.985 304.142C440.61 304.142 441.008 304.028 441.235 303.943L440.894 302.438C440.752 302.466 440.525 302.523 440.156 302.523C439.417 302.523 438.707 302.295 438.707 300.875V294.511H441.036V293.091ZM443.558 304H445.234V293.091H443.558V304ZM444.41 291.273C445.063 291.273 445.603 290.761 445.603 290.136C445.603 289.511 445.063 289 444.41 289C443.756 289 443.217 289.511 443.217 290.136C443.217 290.761 443.756 291.273 444.41 291.273ZM457.224 293.091H455.406L452.395 301.784H452.281L449.27 293.091H447.451L451.485 304H453.19L457.224 293.091ZM463.62 304.227C465.836 304.227 467.455 303.119 467.966 301.472L466.347 301.017C465.921 302.153 464.934 302.722 463.62 302.722C461.652 302.722 460.296 301.45 460.218 299.114H468.137V298.403C468.137 294.341 465.722 292.949 463.449 292.949C460.495 292.949 458.534 295.278 458.534 298.631C458.534 301.983 460.466 304.227 463.62 304.227ZM460.218 297.665C460.331 295.967 461.532 294.455 463.449 294.455C465.267 294.455 466.432 295.818 466.432 297.665H460.218ZM476.311 308.091H477.988V302.324H478.13C478.499 302.92 479.209 304.227 481.311 304.227C484.039 304.227 485.942 302.04 485.942 298.574C485.942 295.136 484.039 292.949 481.283 292.949C479.152 292.949 478.499 294.256 478.13 294.824H477.931V293.091H476.311V308.091ZM477.959 298.545C477.959 296.102 479.039 294.455 481.084 294.455C483.215 294.455 484.266 296.244 484.266 298.545C484.266 300.875 483.186 302.722 481.084 302.722C479.067 302.722 477.959 301.017 477.959 298.545ZM488.499 304H490.175V297.097C490.175 295.619 491.34 294.54 492.931 294.54C493.378 294.54 493.84 294.625 493.953 294.653V292.949C493.762 292.935 493.321 292.92 493.073 292.92C491.766 292.92 490.63 293.659 490.232 294.739H490.118V293.091H488.499V304ZM500.04 304.227C502.995 304.227 504.983 301.983 504.983 298.602C504.983 295.193 502.995 292.949 500.04 292.949C497.086 292.949 495.097 295.193 495.097 298.602C495.097 301.983 497.086 304.227 500.04 304.227ZM500.04 302.722C497.796 302.722 496.773 300.79 496.773 298.602C496.773 296.415 497.796 294.455 500.04 294.455C502.284 294.455 503.307 296.415 503.307 298.602C503.307 300.79 502.284 302.722 500.04 302.722ZM507.542 308.091H509.218V302.324H509.36C509.729 302.92 510.44 304.227 512.542 304.227C515.269 304.227 517.173 302.04 517.173 298.574C517.173 295.136 515.269 292.949 512.513 292.949C510.383 292.949 509.729 294.256 509.36 294.824H509.161V293.091H507.542V308.091ZM509.19 298.545C509.19 296.102 510.269 294.455 512.315 294.455C514.445 294.455 515.496 296.244 515.496 298.545C515.496 300.875 514.417 302.722 512.315 302.722C510.298 302.722 509.19 301.017 509.19 298.545ZM524.303 304.227C526.519 304.227 528.138 303.119 528.65 301.472L527.031 301.017C526.604 302.153 525.617 302.722 524.303 302.722C522.336 302.722 520.979 301.45 520.901 299.114H528.82V298.403C528.82 294.341 526.406 292.949 524.133 292.949C521.178 292.949 519.218 295.278 519.218 298.631C519.218 301.983 521.15 304.227 524.303 304.227ZM520.901 297.665C521.015 295.967 522.215 294.455 524.133 294.455C525.951 294.455 527.116 295.818 527.116 297.665H520.901ZM531.37 304H533.046V297.097C533.046 295.619 534.211 294.54 535.802 294.54C536.249 294.54 536.711 294.625 536.825 294.653V292.949C536.633 292.935 536.192 292.92 535.944 292.92C534.637 292.92 533.501 293.659 533.103 294.739H532.989V293.091H531.37V304ZM544.239 293.091H541.91V290.477H540.234V293.091H538.586V294.511H540.234V301.33C540.234 303.233 541.768 304.142 543.188 304.142C543.813 304.142 544.211 304.028 544.438 303.943L544.097 302.438C543.955 302.466 543.728 302.523 543.359 302.523C542.62 302.523 541.91 302.295 541.91 300.875V294.511H544.239V293.091ZM547.84 308.091C549.353 308.091 550.418 307.288 551.05 305.591L555.695 293.119L553.863 293.091L550.852 301.784H550.738L547.727 293.091H545.908L549.942 304.057L549.63 304.909C549.019 306.571 548.266 306.727 547.045 306.415L546.619 307.892C546.789 307.977 547.272 308.091 547.84 308.091ZM567.97 304.227C570.385 304.227 571.975 302.75 572.26 300.818H570.583C570.271 302.011 569.277 302.722 567.97 302.722C565.981 302.722 564.703 301.074 564.703 298.545C564.703 296.074 566.01 294.455 567.97 294.455C569.447 294.455 570.328 295.364 570.583 296.358H572.26C571.975 294.312 570.243 292.949 567.941 292.949C564.987 292.949 563.027 295.278 563.027 298.602C563.027 301.869 564.902 304.227 567.97 304.227ZM576.386 297.438C576.386 295.534 577.6 294.455 579.255 294.455C580.832 294.455 581.784 295.449 581.784 297.182V304H583.46V297.068C583.46 294.263 581.968 292.949 579.738 292.949C578.02 292.949 577.039 293.666 576.528 294.795H576.386V289.455H574.71V304H576.386V297.438ZM589.737 304.256C591.64 304.256 592.634 303.233 592.975 302.523H593.06V304H594.737V296.812C594.737 293.347 592.094 292.949 590.702 292.949C589.055 292.949 587.18 293.517 586.327 295.506L587.918 296.074C588.288 295.278 589.161 294.426 590.759 294.426C592.3 294.426 593.06 295.243 593.06 296.642V296.699C593.06 297.509 592.237 297.438 590.248 297.693C588.224 297.956 586.015 298.403 586.015 300.903C586.015 303.034 587.663 304.256 589.737 304.256ZM589.992 302.75C588.657 302.75 587.691 302.153 587.691 300.989C587.691 299.71 588.856 299.312 590.163 299.142C590.873 299.057 592.776 298.858 593.06 298.517V300.051C593.06 301.415 591.981 302.75 589.992 302.75ZM599.472 297.438C599.472 295.534 600.651 294.455 602.256 294.455C603.811 294.455 604.756 295.47 604.756 297.182V304H606.432V297.068C606.432 294.284 604.948 292.949 602.739 292.949C601.091 292.949 600.069 293.688 599.557 294.795H599.415V293.091H597.796V304H599.472V297.438ZM613.898 308.318C616.512 308.318 618.614 307.125 618.614 304.312V293.091H616.995V294.824H616.825C616.455 294.256 615.773 292.949 613.643 292.949C610.887 292.949 608.984 295.136 608.984 298.489C608.984 301.898 610.972 303.83 613.614 303.83C615.745 303.83 616.427 302.58 616.796 301.983H616.938V304.199C616.938 306.017 615.66 306.841 613.898 306.841C611.917 306.841 611.221 305.797 610.773 305.193L609.438 306.131C610.12 307.274 611.462 308.318 613.898 308.318ZM613.842 302.324C611.739 302.324 610.66 300.733 610.66 298.46C610.66 296.244 611.711 294.455 613.842 294.455C615.887 294.455 616.967 296.102 616.967 298.46C616.967 300.875 615.859 302.324 613.842 302.324ZM626.256 304.227C628.472 304.227 630.092 303.119 630.603 301.472L628.984 301.017C628.558 302.153 627.57 302.722 626.256 302.722C624.289 302.722 622.933 301.45 622.854 299.114H630.773V298.403C630.773 294.341 628.359 292.949 626.086 292.949C623.131 292.949 621.171 295.278 621.171 298.631C621.171 301.983 623.103 304.227 626.256 304.227ZM622.854 297.665C622.968 295.967 624.168 294.455 626.086 294.455C627.904 294.455 629.069 295.818 629.069 297.665H622.854ZM637.442 304.227C639.545 304.227 640.255 302.92 640.624 302.324H640.823V304H642.442V289.455H640.766V294.824H640.624C640.255 294.256 639.602 292.949 637.471 292.949C634.715 292.949 632.812 295.136 632.812 298.574C632.812 302.04 634.715 304.227 637.442 304.227ZM637.67 302.722C635.567 302.722 634.488 300.875 634.488 298.545C634.488 296.244 635.539 294.455 637.67 294.455C639.715 294.455 640.795 296.102 640.795 298.545C640.795 301.017 639.687 302.722 637.67 302.722Z" fill="black"/>
<path d="M389.761 479H398.653V477.438H391.523V472.494H398.085V470.932H391.523V466.017H398.54V464.455H389.761V479ZM410.408 468.091H408.589L405.578 476.784H405.464L402.453 468.091H400.635L404.669 479H406.374L410.408 468.091ZM416.803 479.227C419.019 479.227 420.638 478.119 421.15 476.472L419.531 476.017C419.104 477.153 418.117 477.722 416.803 477.722C414.836 477.722 413.479 476.45 413.401 474.114H421.32V473.403C421.32 469.341 418.906 467.949 416.633 467.949C413.678 467.949 411.718 470.278 411.718 473.631C411.718 476.983 413.65 479.227 416.803 479.227ZM413.401 472.665C413.515 470.967 414.715 469.455 416.633 469.455C418.451 469.455 419.616 470.818 419.616 472.665H413.401ZM425.546 472.438C425.546 470.534 426.725 469.455 428.33 469.455C429.886 469.455 430.83 470.47 430.83 472.182V479H432.506V472.068C432.506 469.284 431.022 467.949 428.813 467.949C427.165 467.949 426.143 468.688 425.631 469.795H425.489V468.091H423.87V479H425.546V472.438ZM440.314 468.091H437.984V465.477H436.308V468.091H434.66V469.511H436.308V476.33C436.308 478.233 437.842 479.142 439.262 479.142C439.887 479.142 440.285 479.028 440.512 478.943L440.172 477.438C440.029 477.466 439.802 477.523 439.433 477.523C438.694 477.523 437.984 477.295 437.984 475.875V469.511H440.314V468.091ZM448.687 479H457.21V477.438H450.449V464.455H448.687V479ZM459.71 479H461.386V468.091H459.71V479ZM460.562 466.273C461.216 466.273 461.755 465.761 461.755 465.136C461.755 464.511 461.216 464 460.562 464C459.909 464 459.369 464.511 459.369 465.136C459.369 465.761 459.909 466.273 460.562 466.273ZM472.183 470.534C471.658 468.986 470.479 467.949 468.32 467.949C466.018 467.949 464.314 469.256 464.314 471.102C464.314 472.608 465.209 473.616 467.212 474.085L469.03 474.511C470.131 474.767 470.649 475.293 470.649 476.045C470.649 476.983 469.655 477.75 468.092 477.75C466.722 477.75 465.862 477.161 465.564 475.989L463.973 476.386C464.364 478.24 465.891 479.227 468.121 479.227C470.656 479.227 472.382 477.842 472.382 475.96C472.382 474.44 471.43 473.482 469.484 473.006L467.865 472.608C466.572 472.288 465.99 471.855 465.99 471.017C465.99 470.08 466.984 469.398 468.32 469.398C469.783 469.398 470.386 470.207 470.678 470.96L472.183 470.534ZM479.65 468.091H477.32V465.477H475.644V468.091H473.996V469.511H475.644V476.33C475.644 478.233 477.178 479.142 478.598 479.142C479.223 479.142 479.621 479.028 479.848 478.943L479.507 477.438C479.365 477.466 479.138 477.523 478.769 477.523C478.03 477.523 477.32 477.295 477.32 475.875V469.511H479.65V468.091ZM486.627 479.227C488.843 479.227 490.463 478.119 490.974 476.472L489.355 476.017C488.929 477.153 487.941 477.722 486.627 477.722C484.66 477.722 483.304 476.45 483.225 474.114H491.145V473.403C491.145 469.341 488.73 467.949 486.457 467.949C483.502 467.949 481.542 470.278 481.542 473.631C481.542 476.983 483.474 479.227 486.627 479.227ZM483.225 472.665C483.339 470.967 484.539 469.455 486.457 469.455C488.275 469.455 489.44 470.818 489.44 472.665H483.225ZM495.37 472.438C495.37 470.534 496.549 469.455 498.154 469.455C499.71 469.455 500.654 470.47 500.654 472.182V479H502.331V472.068C502.331 469.284 500.846 467.949 498.637 467.949C496.99 467.949 495.967 468.688 495.456 469.795H495.314V468.091H493.694V479H495.37V472.438ZM509.967 479.227C512.183 479.227 513.803 478.119 514.314 476.472L512.695 476.017C512.268 477.153 511.281 477.722 509.967 477.722C508 477.722 506.643 476.45 506.565 474.114H514.484V473.403C514.484 469.341 512.07 467.949 509.797 467.949C506.842 467.949 504.882 470.278 504.882 473.631C504.882 476.983 506.814 479.227 509.967 479.227ZM506.565 472.665C506.679 470.967 507.879 469.455 509.797 469.455C511.615 469.455 512.78 470.818 512.78 472.665H506.565ZM517.034 479H518.71V472.097C518.71 470.619 519.875 469.54 521.466 469.54C521.913 469.54 522.375 469.625 522.489 469.653V467.949C522.297 467.935 521.857 467.92 521.608 467.92C520.301 467.92 519.165 468.659 518.767 469.739H518.653V468.091H517.034V479ZM532.203 470.534C531.677 468.986 530.498 467.949 528.339 467.949C526.038 467.949 524.333 469.256 524.333 471.102C524.333 472.608 525.228 473.616 527.231 474.085L529.049 474.511C530.15 474.767 530.669 475.293 530.669 476.045C530.669 476.983 529.674 477.75 528.112 477.75C526.741 477.75 525.882 477.161 525.583 475.989L523.993 476.386C524.383 478.24 525.91 479.227 528.14 479.227C530.676 479.227 532.402 477.842 532.402 475.96C532.402 474.44 531.45 473.482 529.504 473.006L527.885 472.608C526.592 472.288 526.01 471.855 526.01 471.017C526.01 470.08 527.004 469.398 528.339 469.398C529.802 469.398 530.406 470.207 530.697 470.96L532.203 470.534ZM543.76 479.256C545.663 479.256 546.658 478.233 546.999 477.523H547.084V479H548.76V471.812C548.76 468.347 546.118 467.949 544.726 467.949C543.078 467.949 541.203 468.517 540.351 470.506L541.942 471.074C542.311 470.278 543.185 469.426 544.783 469.426C546.324 469.426 547.084 470.243 547.084 471.642V471.699C547.084 472.509 546.26 472.438 544.271 472.693C542.247 472.956 540.038 473.403 540.038 475.903C540.038 478.034 541.686 479.256 543.76 479.256ZM544.016 477.75C542.68 477.75 541.714 477.153 541.714 475.989C541.714 474.71 542.879 474.312 544.186 474.142C544.896 474.057 546.8 473.858 547.084 473.517V475.051C547.084 476.415 546.004 477.75 544.016 477.75ZM555.939 479.227C558.041 479.227 558.751 477.92 559.12 477.324H559.319V479H560.939V464.455H559.262V469.824H559.12C558.751 469.256 558.098 467.949 555.967 467.949C553.211 467.949 551.308 470.136 551.308 473.574C551.308 477.04 553.211 479.227 555.939 479.227ZM556.166 477.722C554.064 477.722 552.984 475.875 552.984 473.545C552.984 471.244 554.035 469.455 556.166 469.455C558.211 469.455 559.291 471.102 559.291 473.545C559.291 476.017 558.183 477.722 556.166 477.722ZM568.36 479.227C570.463 479.227 571.173 477.92 571.542 477.324H571.741V479H573.36V464.455H571.684V469.824H571.542C571.173 469.256 570.52 467.949 568.389 467.949C565.633 467.949 563.73 470.136 563.73 473.574C563.73 477.04 565.633 479.227 568.36 479.227ZM568.588 477.722C566.485 477.722 565.406 475.875 565.406 473.545C565.406 471.244 566.457 469.455 568.588 469.455C570.633 469.455 571.713 471.102 571.713 473.545C571.713 476.017 570.605 477.722 568.588 477.722ZM581.237 479.227C583.453 479.227 585.072 478.119 585.583 476.472L583.964 476.017C583.538 477.153 582.551 477.722 581.237 477.722C579.27 477.722 577.913 476.45 577.835 474.114H585.754V473.403C585.754 469.341 583.339 467.949 581.066 467.949C578.112 467.949 576.152 470.278 576.152 473.631C576.152 476.983 578.083 479.227 581.237 479.227ZM577.835 472.665C577.949 470.967 579.149 469.455 581.066 469.455C582.885 469.455 584.049 470.818 584.049 472.665H577.835ZM592.423 479.227C594.525 479.227 595.235 477.92 595.605 477.324H595.804V479H597.423V464.455H595.747V469.824H595.605C595.235 469.256 594.582 467.949 592.451 467.949C589.696 467.949 587.792 470.136 587.792 473.574C587.792 477.04 589.696 479.227 592.423 479.227ZM592.65 477.722C590.548 477.722 589.468 475.875 589.468 473.545C589.468 471.244 590.52 469.455 592.65 469.455C594.696 469.455 595.775 471.102 595.775 473.545C595.775 476.017 594.667 477.722 592.65 477.722Z" fill="black"/>
<path d="M253.761 743H262.653V741.438H255.523V736.494H262.085V734.932H255.523V730.017H262.54V728.455H253.761V743ZM267.163 728.455H265.487V743H267.163V728.455ZM274.807 743.227C277.023 743.227 278.642 742.119 279.154 740.472L277.534 740.017C277.108 741.153 276.121 741.722 274.807 741.722C272.84 741.722 271.483 740.45 271.405 738.114H279.324V737.403C279.324 733.341 276.909 731.949 274.637 731.949C271.682 731.949 269.722 734.278 269.722 737.631C269.722 740.983 271.654 743.227 274.807 743.227ZM271.405 736.665C271.519 734.967 272.719 733.455 274.637 733.455C276.455 733.455 277.62 734.818 277.62 736.665H271.405ZM281.874 743H283.55V736.182C283.55 734.584 284.715 733.455 286.022 733.455C287.293 733.455 288.181 734.286 288.181 735.528V743H289.885V735.898C289.885 734.491 290.766 733.455 292.3 733.455C293.493 733.455 294.516 734.087 294.516 735.699V743H296.192V735.699C296.192 733.135 294.814 731.949 292.868 731.949C291.306 731.949 290.162 732.666 289.601 733.795H289.488C288.948 732.631 287.996 731.949 286.561 731.949C285.141 731.949 284.09 732.631 283.635 733.795H283.493V732.091H281.874V743ZM303.831 743.227C306.047 743.227 307.666 742.119 308.177 740.472L306.558 740.017C306.132 741.153 305.145 741.722 303.831 741.722C301.863 741.722 300.507 740.45 300.429 738.114H308.348V737.403C308.348 733.341 305.933 731.949 303.66 731.949C300.706 731.949 298.745 734.278 298.745 737.631C298.745 740.983 300.677 743.227 303.831 743.227ZM300.429 736.665C300.542 734.967 301.743 733.455 303.66 733.455C305.478 733.455 306.643 734.818 306.643 736.665H300.429ZM312.574 736.438C312.574 734.534 313.752 733.455 315.358 733.455C316.913 733.455 317.858 734.47 317.858 736.182V743H319.534V736.068C319.534 733.284 318.049 731.949 315.841 731.949C314.193 731.949 313.17 732.688 312.659 733.795H312.517V732.091H310.897V743H312.574V736.438ZM327.341 732.091H325.011V729.477H323.335V732.091H321.688V733.511H323.335V740.33C323.335 742.233 324.869 743.142 326.29 743.142C326.915 743.142 327.312 743.028 327.54 742.943L327.199 741.438C327.057 741.466 326.83 741.523 326.46 741.523C325.722 741.523 325.011 741.295 325.011 739.875V733.511H327.341V732.091ZM335.487 743H337.163V736.097C337.163 734.619 338.328 733.54 339.919 733.54C340.366 733.54 340.828 733.625 340.942 733.653V731.949C340.75 731.935 340.31 731.92 340.061 731.92C338.754 731.92 337.618 732.659 337.22 733.739H337.107V732.091H335.487V743ZM347.17 743.227C349.386 743.227 351.006 742.119 351.517 740.472L349.898 740.017C349.472 741.153 348.484 741.722 347.17 741.722C345.203 741.722 343.847 740.45 343.768 738.114H351.688V737.403C351.688 733.341 349.273 731.949 347 731.949C344.045 731.949 342.085 734.278 342.085 737.631C342.085 740.983 344.017 743.227 347.17 743.227ZM343.768 736.665C343.882 734.967 345.082 733.455 347 733.455C348.818 733.455 349.983 734.818 349.983 736.665H343.768ZM354.237 743H355.913V736.182C355.913 734.584 357.078 733.455 358.385 733.455C359.656 733.455 360.544 734.286 360.544 735.528V743H362.249V735.898C362.249 734.491 363.129 733.455 364.663 733.455C365.857 733.455 366.879 734.087 366.879 735.699V743H368.555V735.699C368.555 733.135 367.178 731.949 365.232 731.949C363.669 731.949 362.526 732.666 361.964 733.795H361.851C361.311 732.631 360.359 731.949 358.925 731.949C357.504 731.949 356.453 732.631 355.999 733.795H355.857V732.091H354.237V743ZM376.052 743.227C379.006 743.227 380.995 740.983 380.995 737.602C380.995 734.193 379.006 731.949 376.052 731.949C373.097 731.949 371.109 734.193 371.109 737.602C371.109 740.983 373.097 743.227 376.052 743.227ZM376.052 741.722C373.808 741.722 372.785 739.79 372.785 737.602C372.785 735.415 373.808 733.455 376.052 733.455C378.296 733.455 379.319 735.415 379.319 737.602C379.319 739.79 378.296 741.722 376.052 741.722ZM392.083 732.091H390.265L387.254 740.784H387.14L384.129 732.091H382.311L386.345 743H388.049L392.083 732.091ZM398.479 743.227C400.695 743.227 402.314 742.119 402.826 740.472L401.206 740.017C400.78 741.153 399.793 741.722 398.479 741.722C396.512 741.722 395.155 740.45 395.077 738.114H402.996V737.403C402.996 733.341 400.581 731.949 398.309 731.949C395.354 731.949 393.394 734.278 393.394 737.631C393.394 740.983 395.326 743.227 398.479 743.227ZM395.077 736.665C395.191 734.967 396.391 733.455 398.309 733.455C400.127 733.455 401.292 734.818 401.292 736.665H395.077ZM409.665 743.227C411.767 743.227 412.478 741.92 412.847 741.324H413.046V743H414.665V728.455H412.989V733.824H412.847C412.478 733.256 411.824 731.949 409.694 731.949C406.938 731.949 405.034 734.136 405.034 737.574C405.034 741.04 406.938 743.227 409.665 743.227ZM409.892 741.722C407.79 741.722 406.711 739.875 406.711 737.545C406.711 735.244 407.762 733.455 409.892 733.455C411.938 733.455 413.017 735.102 413.017 737.545C413.017 740.017 411.909 741.722 409.892 741.722ZM428.451 732.091H426.007V730.983C426.007 729.903 426.462 729.335 427.57 729.335C428.053 729.335 428.337 729.449 428.507 729.506L428.99 728.057C428.735 727.943 428.223 727.773 427.4 727.773C425.837 727.773 424.331 728.71 424.331 730.585V732.091H422.57V733.511H424.331V743H426.007V733.511H428.451V732.091ZM430.8 743H432.476V736.097C432.476 734.619 433.641 733.54 435.232 733.54C435.679 733.54 436.141 733.625 436.254 733.653V731.949C436.062 731.935 435.622 731.92 435.374 731.92C434.067 731.92 432.93 732.659 432.533 733.739H432.419V732.091H430.8V743ZM442.341 743.227C445.295 743.227 447.284 740.983 447.284 737.602C447.284 734.193 445.295 731.949 442.341 731.949C439.386 731.949 437.398 734.193 437.398 737.602C437.398 740.983 439.386 743.227 442.341 743.227ZM442.341 741.722C440.097 741.722 439.074 739.79 439.074 737.602C439.074 735.415 440.097 733.455 442.341 733.455C444.585 733.455 445.608 735.415 445.608 737.602C445.608 739.79 444.585 741.722 442.341 741.722ZM449.843 743H451.519V736.182C451.519 734.584 452.684 733.455 453.99 733.455C455.262 733.455 456.15 734.286 456.15 735.528V743H457.854V735.898C457.854 734.491 458.735 733.455 460.269 733.455C461.462 733.455 462.485 734.087 462.485 735.699V743H464.161V735.699C464.161 733.135 462.783 731.949 460.837 731.949C459.275 731.949 458.131 732.666 457.57 733.795H457.456C456.917 732.631 455.965 731.949 454.53 731.949C453.11 731.949 452.059 732.631 451.604 733.795H451.462V732.091H449.843V743ZM477.595 732.091H475.265V729.477H473.589V732.091H471.941V733.511H473.589V740.33C473.589 742.233 475.123 743.142 476.544 743.142C477.169 743.142 477.566 743.028 477.794 742.943L477.453 741.438C477.311 741.466 477.083 741.523 476.714 741.523C475.975 741.523 475.265 741.295 475.265 739.875V733.511H477.595V732.091ZM482.027 736.438C482.027 734.534 483.241 733.455 484.896 733.455C486.473 733.455 487.424 734.449 487.424 736.182V743H489.1V736.068C489.1 733.263 487.609 731.949 485.379 731.949C483.66 731.949 482.68 732.666 482.169 733.795H482.027V728.455H480.35V743H482.027V736.438ZM496.741 743.227C498.957 743.227 500.576 742.119 501.087 740.472L499.468 740.017C499.042 741.153 498.055 741.722 496.741 741.722C494.773 741.722 493.417 740.45 493.339 738.114H501.258V737.403C501.258 733.341 498.843 731.949 496.57 731.949C493.616 731.949 491.656 734.278 491.656 737.631C491.656 740.983 493.587 743.227 496.741 743.227ZM493.339 736.665C493.452 734.967 494.653 733.455 496.57 733.455C498.388 733.455 499.553 734.818 499.553 736.665H493.339ZM514.148 743C518.58 743 521.08 740.244 521.08 735.699C521.08 731.182 518.58 728.455 514.347 728.455H509.66V743H514.148ZM511.421 741.438V730.017H514.234C517.643 730.017 519.376 732.176 519.376 735.699C519.376 739.25 517.643 741.438 514.035 741.438H511.421ZM536.308 735.727C536.308 731.125 533.609 728.256 529.887 728.256C526.165 728.256 523.467 731.125 523.467 735.727C523.467 740.33 526.165 743.199 529.887 743.199C533.609 743.199 536.308 740.33 536.308 735.727ZM534.603 735.727C534.603 739.506 532.529 741.551 529.887 741.551C527.245 741.551 525.171 739.506 525.171 735.727C525.171 731.949 527.245 729.903 529.887 729.903C532.529 729.903 534.603 731.949 534.603 735.727ZM539.269 728.455V743H540.917V731.949H541.059L545.604 743H547.195L551.741 731.949H551.883V743H553.531V728.455H551.428L546.485 740.528H546.315L541.371 728.455H539.269Z" fill="black"/>
<line x1="100" y1="171.5" x2="236" y2="171.5" stroke="#C8C8C8" stroke-width="3"/>
<line x1="236" y1="472.5" x2="372" y2="472.5" stroke="#C8C8C8" stroke-width="3"/>
<line x1="100" y1="297.5" x2="236" y2="297.5" stroke="#C8C8C8" stroke-width="3"/>
<line x1="236.343" y1="433.5" x2="372.343" y2="433.5" stroke="#C8C8C8" stroke-width="3"/>
<line x1="247" y1="297.5" x2="372" y2="297.5" stroke="#C8C8C8" stroke-width="3" stroke-dasharray="6 6"/>
<line x1="100" y1="736.5" x2="236" y2="736.5" stroke="#C8C8C8" stroke-width="3"/>
<line x1="100" y1="53.5" x2="236" y2="53.5" stroke="#C8C8C8" stroke-width="3"/>
<rect x="99.9707" y="42" width="16" height="16" rx="8" transform="rotate(45 99.9707 42)" fill="#C8C8C8"/>
<rect x="236.314" y="461" width="16" height="16" rx="8" transform="rotate(45 236.314 461)" fill="#C8C8C8"/>
<rect x="99.9707" y="160" width="16" height="16" rx="8" transform="rotate(45 99.9707 160)" fill="#C8C8C8"/>
<rect x="99.9707" y="286" width="16" height="16" rx="8" transform="rotate(45 99.9707 286)" fill="#C8C8C8"/>
<rect x="236.314" y="422" width="16" height="16" rx="8" transform="rotate(45 236.314 422)" fill="#C8C8C8"/>
<rect x="236.314" y="286" width="16" height="16" rx="8" transform="rotate(45 236.314 286)" fill="#C8C8C8"/>
<rect x="99.9707" y="725" width="16" height="16" rx="8" transform="rotate(45 99.9707 725)" fill="#C8C8C8"/>
<defs>
<linearGradient id="paint0_linear_138_156" x1="174.673" y1="94.8203" x2="16.5178" y2="172.591" gradientUnits="userSpaceOnUse">
<stop stop-color="#33FFA0"/>
<stop offset="1" stop-color="#35F7DF"/>
</linearGradient>
<linearGradient id="paint1_linear_138_156" x1="174.673" y1="212.82" x2="16.5178" y2="290.591" gradientUnits="userSpaceOnUse">
<stop stop-color="#33FFA0"/>
<stop offset="1" stop-color="#35F7DF"/>
</linearGradient>
<linearGradient id="paint2_linear_138_156" x1="174.673" y1="659.82" x2="16.5178" y2="737.591" gradientUnits="userSpaceOnUse">
<stop stop-color="#33FFA0"/>
<stop offset="1" stop-color="#35F7DF"/>
</linearGradient>
<linearGradient id="paint3_linear_138_156" x1="174.673" y1="777.82" x2="16.5178" y2="855.591" gradientUnits="userSpaceOnUse">
<stop stop-color="#33FFA0"/>
<stop offset="1" stop-color="#35F7DF"/>
</linearGradient>
</defs>
</svg>
