<svg width="350" height="135" viewBox="0 0 350 135" fill="none" xmlns="http://www.w3.org/2000/svg">
<path d="M27 17.7028C44.2517 5.62304 50.1005 21.0039 71.8441 52.0569C93.5877 83.11 97.2291 118.076 79.9774 130.156C62.7257 142.236 31.1138 126.855 9.37022 95.8016C-12.3733 64.7486 9.74832 29.7826 27 17.7028Z" fill="#50D296"/>
<path d="M51.344 130.156C34.0924 118.076 37.7337 83.11 59.4773 52.057C81.2209 21.004 98.9604 -8.24924 116.212 3.83051C133.464 15.9103 143.695 64.7486 121.951 95.8017C100.208 126.855 68.5957 142.236 51.344 130.156Z" fill="#73F5B9"/>
<path d="M164.153 49.4545V96H173.698V65.5909H174.084L186.13 95.7727H192.63L204.675 65.7045H205.062V96H214.607V49.4545H202.471L189.653 80.7273H189.107L176.289 49.4545H164.153ZM222.533 96H232.215V61.0909H222.533V96ZM227.397 56.5909C230.283 56.5909 232.647 54.3864 232.647 51.6818C232.647 49 230.283 46.7955 227.397 46.7955C224.533 46.7955 222.17 49 222.17 51.6818C222.17 54.3864 224.533 56.5909 227.397 56.5909ZM249.653 75.8182C249.675 71.3182 252.357 68.6818 256.266 68.6818C260.153 68.6818 262.494 71.2273 262.471 75.5V96H272.153V73.7727C272.153 65.6364 267.38 60.6364 260.107 60.6364C254.925 60.6364 251.175 63.1818 249.607 67.25H249.198V61.0909H239.971V96H249.653V75.8182ZM279.601 96H308.942V88.2727H292.306V88.0227L308.351 67.3864V61.0909H280.192V68.8182H296.692V69.0682L279.601 90.2273V96ZM331.255 96.6818C339.891 96.6818 345.709 92.4773 347.073 86L338.119 85.4091C337.141 88.0682 334.641 89.4545 331.414 89.4545C326.573 89.4545 323.505 86.25 323.505 81.0455V81.0227H347.278V78.3636C347.278 66.5 340.096 60.6364 330.869 60.6364C320.596 60.6364 313.937 67.9318 313.937 78.7045C313.937 89.7727 320.505 96.6818 331.255 96.6818ZM323.505 75.0227C323.709 71.0455 326.732 67.8636 331.028 67.8636C335.232 67.8636 338.141 70.8636 338.164 75.0227H323.505Z" fill="black"/>
</svg>
